<?xml version="1.0" standalone="no"?>
<!DOCTYPE svg PUBLIC "-//W3C//DTD SVG 1.1//EN" "http://www.w3.org/Graphics/SVG/1.1/DTD/svg11.dtd" >
<svg xmlns="http://www.w3.org/2000/svg">
<metadata>
This is a custom SVG webfont generated by Font Squirrel.
Copyright   : 41 c198692 by Richard A Ware All Rights Reserved
</metadata>
<defs>
<font id="PreludeFLFBold" horiz-adv-x="1126" >
<font-face units-per-em="2048" ascent="1638" descent="-410" />
<missing-glyph horiz-adv-x="583" />
<glyph unicode=" "  horiz-adv-x="583" />
<glyph unicode="&#x09;" horiz-adv-x="583" />
<glyph unicode="&#xa0;" horiz-adv-x="583" />
<glyph unicode="!" horiz-adv-x="645" d="M57 23q0 -35 21.5 -63t71.5 -28q78 0 127 31t49 62q0 16 -13.5 38.5t-35 44t-49 37t-54.5 15.5q-25 0 -46.5 -12.5t-36.5 -33t-24.5 -43.5t-9.5 -48zM188 285q0 -35 26 -54.5t54 -19.5q23 0 41.5 11t28.5 38q49 135 96 269.5t91 256t88 225t87 181.5q6 10 8.5 19.5 t2.5 17.5q0 33 -24.5 54.5t-55.5 21.5q-16 0 -33.5 -9.5t-28.5 -29.5q-25 -45 -62.5 -131t-80.5 -190.5t-85 -215.5t-76 -204t-55.5 -159.5t-21.5 -80.5z" />
<glyph unicode="&#x22;" horiz-adv-x="532" d="M190 981q0 -33 25 -54.5t53 -21.5q45 0 66 45q20 43 38.5 93.5t32 94.5t21.5 77.5t8 46.5q0 35 -24.5 54t-53.5 19q-23 0 -44 -14t-27 -47q-6 -29 -16.5 -64.5t-23 -71.5t-24.5 -69t-22 -53q-9 -17 -9 -35zM406 981q0 -33 24.5 -54.5t52.5 -21.5q45 0 66 45 q20 43 38.5 93.5t32 94.5t21.5 77.5t8 46.5q0 35 -24.5 54t-53.5 19q-23 0 -44 -14t-27 -47q-6 -29 -16.5 -64.5t-22.5 -71.5t-24.5 -69t-22.5 -53q-8 -17 -8 -35z" />
<glyph unicode="#" horiz-adv-x="1138" d="M-4 567q0 -29 20.5 -54.5t55.5 -25.5q37 0 77.5 8.5t59.5 10.5q-12 -27 -27.5 -54.5t-30 -54t-23.5 -50t-9 -40.5q0 -33 25.5 -54.5t54.5 -21.5q18 0 35.5 9.5t27.5 31.5l64 127q33 66 65 133q45 10 85 13.5t83 3.5q-25 -74 -38 -113t-13 -74t25.5 -54t54.5 -19 q23 0 43 14t26 43q12 53 28.5 107.5t35.5 107.5q68 0 140.5 4t150.5 4q37 0 56 23.5t19 52.5t-19 52.5t-56 23.5q-61 0 -118.5 -3t-113.5 -3l33 73q16 37 33 72q59 10 120.5 22.5t131.5 26.5q33 6 47 26.5t14 45.5q0 29 -19.5 53.5t-54.5 24.5q-31 0 -76.5 -12.5 t-80.5 -18.5q23 43 46 77t23 62q0 31 -24.5 52.5t-52.5 21.5q-39 0 -62 -35q-31 -47 -61.5 -101t-59.5 -114q-45 -6 -88 -13t-90 -7q6 25 13.5 52.5t13.5 54t9 48t3 31.5q0 35 -24.5 54.5t-53.5 19.5q-27 0 -48 -15.5t-26 -48.5q-12 -94 -49 -202q-55 0 -115.5 1t-129.5 1 q-39 0 -58.5 -24.5t-19.5 -53.5t18.5 -51.5t54.5 -22.5h195q-12 -35 -26.5 -71.5t-30.5 -71.5q-55 -8 -111.5 -15.5t-114.5 -17.5q-33 -4 -48 -25.5t-15 -46.5zM459 692q14 33 26.5 64.5t22.5 62.5q41 0 80 5l78 10q-14 -31 -26.5 -63t-25.5 -64q-41 0 -79.5 -5.5 t-75.5 -9.5z" />
<glyph unicode="$" horiz-adv-x="1368" d="M-37 156q0 -43 20.5 -86t67.5 -79t122 -62.5t183 -37.5q-18 -35 -30.5 -61.5t-12.5 -50.5q0 -29 23.5 -47.5t52.5 -18.5q23 0 42.5 10.5t29.5 34.5q16 31 30.5 61.5t30.5 63.5q147 4 277.5 27.5t227.5 75t152.5 135.5t55.5 209q0 70 -26.5 127t-70.5 100t-103.5 71.5 t-125.5 43.5q63 123 122 235.5t112 216.5q47 -10 69.5 -35.5t22.5 -58.5q0 -35 -15.5 -46t-33.5 -11q-41 0 -62.5 -25.5t-21.5 -54.5q0 -45 27.5 -59.5t60.5 -14.5q39 0 74.5 16.5t62.5 45t43 67.5t16 86q0 49 -15 87t-39.5 67t-54.5 47t-60 29q10 18 12 28.5t2 18.5 q0 33 -20.5 54t-59.5 21q-18 0 -35.5 -9t-28.5 -31l-15 -31q-7 -14 -17 -31q-98 0 -204 -29.5t-193 -85t-142 -135.5t-55 -182q0 -104 53 -171t170 -114q-63 -129 -127.5 -260t-126.5 -264q-80 4 -134 16.5t-87 28.5t-47.5 34.5t-14.5 37.5q0 31 26 48t85 17q29 0 53.5 -4 t44.5 -8q12 -4 24.5 -6t25.5 -2q35 0 55 22.5t20 55.5q0 25 -14 44t-47 27q-41 10 -80 16.5t-82 6.5q-90 0 -147.5 -21.5t-90 -55.5t-45 -72.5t-12.5 -71.5zM596 43q59 123 119.5 243t120.5 238q117 -23 180 -65.5t63 -134.5q0 -74 -44 -127.5t-113.5 -87t-155.5 -50 t-170 -16.5zM614 854q0 68 42 119t99.5 85t119 51t98.5 17q-51 -98 -105.5 -204.5t-113.5 -219.5q-70 18 -105 49t-35 103z" />
<glyph unicode="%" horiz-adv-x="1208" d="M119 803q0 -55 21.5 -93t55 -61.5t74.5 -34t82 -10.5q76 0 146.5 31t124 80t86 108.5t32.5 116.5q0 53 -31.5 96t-103.5 70q12 0 24.5 -3t22.5 -3q33 0 49.5 22.5t16.5 51.5t-17.5 54t-74.5 25q-106 0 -198.5 -44t-161 -110.5t-108.5 -145t-40 -150.5zM156 6 q0 -25 17 -41t40 -16q35 0 61 35q137 176 246 319t213.5 279.5t218 280t262.5 317.5q20 27 21 51q0 23 -16.5 38t-38.5 15q-16 0 -31.5 -7t-30.5 -24q-100 -117 -184 -219t-158 -196.5t-143.5 -185.5t-141 -185t-148.5 -195.5t-169 -218.5q-18 -24 -18 -47zM268 821 q0 33 18.5 74t50.5 81t76 71.5t95 48.5q-6 -12 -6 -31q0 -29 16.5 -56.5t50.5 -39.5q6 2 15 2q18 0 18 -21q0 -20 -18.5 -54t-51 -65.5t-75.5 -54t-95 -22.5q-94 -1 -94 67zM594 209q0 -55 21.5 -93t55.5 -61.5t74.5 -34t81.5 -10.5q76 0 146.5 31t124 80t86.5 108.5 t33 116.5q0 53 -32 96t-104 70q12 0 24.5 -3t22.5 -3q33 0 49.5 22.5t16.5 51.5t-17.5 54t-74.5 25q-106 0 -198.5 -44t-161 -110.5t-108.5 -145t-40 -150.5zM743 227q0 33 18.5 74t50.5 81t76 71.5t95 48.5q-6 -12 -6 -31q0 -29 16.5 -56.5t50.5 -39.5q6 2 15 2 q18 0 18 -21q0 -20 -18.5 -54t-51 -65.5t-75.5 -54t-94 -22.5q-95 -1 -95 67z" />
<glyph unicode="&#x26;" horiz-adv-x="1187" d="M4 233q0 -68 27.5 -125t76 -98t114 -63.5t143.5 -22.5q70 0 140 19.5t135 49.5t121 65.5t97 70.5q86 -90 139.5 -147.5t98.5 -57.5q31 0 53 23.5t22 54.5t-24 53q-43 41 -87 84t-89 90q31 33 55.5 67t40.5 63.5t25.5 51t9.5 31.5q0 33 -25.5 53.5t-56.5 20.5 q-18 0 -36.5 -10t-29.5 -35q-31 -70 -86 -131q-57 68 -102 127q-25 31 -55 31q-31 0 -55.5 -22.5t-24.5 -55.5q0 -27 34.5 -72t92.5 -108q-74 -63 -179.5 -111.5t-213.5 -48.5q-98 0 -145.5 41t-47.5 112q0 70 22.5 122.5t62.5 93t96.5 76.5t121.5 71q20 12 41 21.5t37 21.5 t25.5 28.5t9.5 39.5q0 39 -21.5 61.5t-50.5 38.5q-86 47 -86 119q0 57 38 103t96.5 78t127 48t129.5 16q41 0 74 -9t49 -32q0 -33 -19.5 -60.5t-50 -51t-69.5 -44t-78 -36.5q-41 -16 -53 -34.5t-12 -39.5q0 -29 20 -54.5t53 -25.5q10 0 41 11.5t70 33t82 52t77.5 69.5t58 85 t23.5 98q0 49 -27.5 83.5t-70.5 57t-93 33t-95 10.5q-111 0 -208 -35t-170 -91t-115 -126t-42 -137q0 -74 40 -129.5t81 -83.5q-178 -78 -280.5 -205t-102.5 -277z" />
<glyph unicode="'" horiz-adv-x="389" d="M190 973q0 -35 25 -51.5t53 -16.5q45 0 66 45q20 43 38.5 93.5t32 94.5t21.5 77.5t8 46.5q0 35 -24.5 54t-53.5 19q-23 0 -44 -14t-27 -47q-6 -29 -16.5 -64.5t-23 -71.5t-24.5 -69t-22 -53q-9 -16 -9 -43z" />
<glyph unicode="(" horiz-adv-x="481" d="M27 522q0 -100 13 -190t34.5 -167t47 -139.5t50.5 -109.5q16 -31 33.5 -42t36.5 -11q31 0 56.5 21.5t25.5 52.5q0 16 -11 36q-23 43 -47 101.5t-43.5 128t-32 150.5t-12.5 171q0 111 17.5 204t49 178t74.5 163t97 158q18 29 23 41t5 22q0 33 -24.5 54.5t-54.5 21.5 q-16 0 -32 -8t-28 -27q-63 -94 -114.5 -180t-88 -180t-56 -203t-19.5 -246z" />
<glyph unicode=")" horiz-adv-x="481" d="M143 -70q0 -31 25 -52t55 -21q37 0 60 32q63 94 120.5 192.5t101.5 206t70.5 223.5t26.5 245q0 166 -44 307t-97 244q-10 23 -27.5 32t-36.5 9q-31 0 -56.5 -21.5t-25.5 -52.5q0 -16 11 -37q47 -88 85 -213t38 -266q0 -123 -28 -237.5t-71 -216t-95 -185.5t-99 -148 q-13 -14 -13 -41z" />
<glyph unicode="*" horiz-adv-x="593" d="M72 1124q0 -29 28 -43q23 -10 43.5 -19t38.5 -20q-20 -14 -41.5 -27.5t-44.5 -29.5q-23 -14 -22 -41q0 -20 14 -36.5t35 -16.5q6 0 14 2t19 10q18 10 37.5 23.5t39.5 23.5q-2 -20 -5 -44.5t-3 -51.5t16.5 -41t37.5 -14q16 0 31.5 11t17.5 36q4 35 7 63.5t3 57.5 q23 -10 47 -23l53 -26q12 -6 23 -7q23 0 37 16.5t14 37.5q0 29 -29 43q-27 12 -49 23t-45 22q25 16 51.5 33.5t57.5 37.5q25 14 24 41q0 20 -14 37t-37 17q-12 0 -33 -13q-47 -27 -88 -53q4 23 6 44.5t2 47.5q0 27 -16 41t-37 14q-16 0 -31.5 -11t-17.5 -36q-4 -33 -6 -65 l-4 -66q-23 10 -47 23l-54 26q-12 6 -22 7q-23 0 -37 -17t-14 -37z" />
<glyph unicode="+" horiz-adv-x="757" d="M68 502q0 -29 19 -52.5t56 -23.5q41 0 77 2t71 2q-6 -41 -13.5 -83t-15.5 -89q0 -4 -1 -7t-1 -7q0 -35 25.5 -54.5t56.5 -19.5q25 0 46.5 15.5t25.5 47.5q8 59 15 109.5t15 97.5q41 0 85 3t96 3q39 0 57 24t18 52q0 29 -18 52.5t-57 23.5q-43 0 -81 -3t-73 -3 q8 47 16.5 97t18.5 108q0 4 1 7t1 7q0 35 -24.5 54.5t-55.5 19.5q-25 0 -46.5 -15.5t-27.5 -48.5q-10 -68 -18 -126t-19 -111q-41 0 -82.5 -3t-91.5 -3q-37 0 -56 -23.5t-19 -52.5z" />
<glyph unicode="," horiz-adv-x="286" d="M-25 -174q0 -31 20.5 -55.5t51.5 -24.5q16 0 39 12q31 18 60.5 51t55 70t48 73t37.5 64q14 25 14 39q0 33 -27.5 55.5t-58.5 22.5q-33 0 -51 -27q-23 -31 -45.5 -66.5t-43 -67t-36.5 -53t-23 -25.5q-23 -12 -32 -31t-9 -37z" />
<glyph unicode="-" horiz-adv-x="716" d="M68 522q0 -29 19 -52.5t56 -23.5h430q37 0 56.5 24t19.5 52q0 29 -19.5 52.5t-56.5 23.5h-430q-37 0 -56 -23.5t-19 -52.5z" />
<glyph unicode="." horiz-adv-x="358" d="M78 23q0 -35 21.5 -63t70.5 -28q78 0 127 31t49 62q0 16 -13.5 38.5t-35 44t-49 37t-53.5 15.5q-25 0 -46.5 -12.5t-37 -33t-24.5 -43.5t-9 -48z" />
<glyph unicode="/" horiz-adv-x="593" d="M-45 -63q0 -33 24.5 -52.5t53.5 -19.5q23 0 40 11t27 36q78 199 153 373t148.5 330.5t148.5 304t152 294.5q10 20 11 37q0 31 -25.5 52.5t-54.5 21.5q-18 0 -35.5 -9t-30.5 -32q-78 -147 -153.5 -295.5t-149.5 -308.5t-149.5 -336t-153.5 -379q-6 -16 -6 -28z" />
<glyph unicode="0" horiz-adv-x="962" d="M-14 354q0 -80 16 -158.5t55 -141t101.5 -101.5t152.5 -39h2q98 0 182.5 40t152 106.5t120.5 152.5t88 180t53.5 189.5t18.5 179.5q0 68 -15.5 129t-45 112.5t-74.5 86t-107 47.5l-36 5q-7 1 -11 1q-33 0 -50.5 -23.5t-17.5 -52.5q0 -27 15.5 -49.5t48.5 -28.5 q141 -29 141 -225q0 -133 -41 -259t-104.5 -224.5t-139 -158t-145.5 -59.5q-61 0 -101 24t-64.5 65t-34 96t-9.5 119q0 61 18.5 145t53.5 173t86 176t114.5 156.5t140.5 111.5t165 42h28q14 0 29 -4q16 -4 23 -4h16q29 0 45 20.5t16 55.5q0 41 -36.5 61.5t-122.5 20.5 q-113 0 -210 -48t-178 -127t-143.5 -181.5t-106.5 -210t-66.5 -212t-22.5 -188.5z" />
<glyph unicode="1" horiz-adv-x="778" d="M219 -12q0 -33 25.5 -52.5t56.5 -19.5q20 0 38.5 11.5t29.5 35.5q47 121 96 273.5t105.5 318.5t121 335t144.5 324v3q0 16 -11.5 30.5t-27 23.5t-32.5 14t-32 5q-39 0 -72.5 -41t-75.5 -90t-98.5 -90t-138.5 -41q-47 0 -61.5 -22.5t-14.5 -44.5q0 -29 21.5 -56.5 t62.5 -27.5q14 0 38 7t51.5 17t56 22.5t51.5 24.5q-51 -129 -96 -258t-85 -247.5t-75 -223t-66 -186.5q-8 -20 -10 -28.5t-2 -16.5z" />
<glyph unicode="2" horiz-adv-x="1198" d="M-117 29q0 -57 40 -103.5t122 -46.5q80 0 144.5 37t117.5 72q72 -33 155 -67t189 -34q66 0 117 6.5t100.5 21.5t99.5 44t115 76q33 25 33 59q0 31 -22.5 56.5t-55.5 25.5q-10 0 -22 -4t-35 -20q-47 -31 -84 -52.5t-73 -35t-75.5 -19.5t-93.5 -6q-57 0 -106 12t-103 35 q94 70 185.5 141.5t155 129t136 119t135 137t104.5 168.5t42 212q0 82 -27.5 145.5t-74.5 106.5t-111.5 65.5t-140.5 22.5q-98 0 -172 -28.5t-126 -70.5t-82 -86t-42 -75q-6 -16 -8 -31.5t-2 -27.5q0 -29 22.5 -48.5t51.5 -19.5q20 0 38.5 11.5t28.5 35.5q12 27 32.5 59.5 t55.5 61.5t84 48.5t119 19.5q98 0 150.5 -44t52.5 -145q0 -84 -31 -153.5t-82 -131t-117.5 -120t-136.5 -117.5l-86 -72q-49 -41 -103.5 -84t-110.5 -86t-107 -77q-51 16 -104.5 27t-111.5 11q-45 0 -78.5 -14t-56 -36.5t-34 -51t-11.5 -59.5z" />
<glyph unicode="3" horiz-adv-x="1085" d="M27 229q0 -66 31.5 -123t84 -100t120 -67.5t136.5 -24.5q129 0 233.5 37t178.5 106.5t115 168t41 220.5q0 55 -5.5 93.5t-12.5 64t-16 40.5t-15 28q92 63 133 157.5t41 186.5q0 63 -22.5 120.5t-63.5 101.5t-99.5 70.5t-128.5 26.5q-78 0 -141.5 -21.5t-112.5 -52 t-82.5 -67.5t-50.5 -68q-10 -23 -13 -33t-3 -18q0 -33 26.5 -54.5t55.5 -21.5q18 0 34.5 9.5t26.5 31.5q8 18 30.5 43t56.5 47.5t76 38t89 15.5q78 0 124 -49.5t46 -120.5q0 -154 -131 -236q-41 23 -83 32t-83 9q-100 0 -147 -41t-47 -86q0 -43 37.5 -77.5t107.5 -34.5 q39 0 87 5t99 21q6 -10 12.5 -28.5t11.5 -41t8 -46t3 -44.5q0 -80 -31.5 -149.5t-87 -120.5t-132.5 -80.5t-165 -29.5q-49 0 -90 17t-70.5 43t-47 56.5t-17.5 57.5q8 10 12 22t4 21q0 25 -21.5 40t-53.5 15q-49 0 -68.5 -34t-19.5 -75z" />
<glyph unicode="4" horiz-adv-x="1167" d="M-53 360q0 -41 33.5 -74.5t111.5 -33.5q39 0 77 15.5t77 39.5q82 -20 186.5 -52t218.5 -56q-12 -53 -24.5 -111.5t-24.5 -124.5q-2 -6 -2 -16q0 -35 24.5 -54.5t53.5 -19.5q25 0 45 15.5t27 45.5q14 68 26 126.5t27 111.5q55 -6 110 -6q78 0 160 16q31 6 44 26.5t13 43.5 q0 29 -19 54.5t-54 25.5q-14 0 -21 -2q-53 -12 -112 -13h-37q-18 0 -39 5q45 152 97 283.5t96 232t76 163t38 74.5q8 16 8 33q0 33 -24.5 53.5t-55.5 20.5q-18 0 -36.5 -11.5t-30.5 -33.5q-35 -66 -70 -137.5t-72.5 -163t-81.5 -210t-96 -278.5q-78 18 -155.5 41t-151.5 43 q78 86 150.5 195.5t133 222.5t106.5 214t71 173q4 10 4 27q0 33 -24.5 51t-53.5 18q-23 0 -41 -11t-28 -40q-14 -43 -45 -107.5t-71 -140.5t-88 -156.5t-97.5 -157.5t-97.5 -142.5t-89 -108.5q-23 4 -58.5 11t-78.5 7q-61 0 -98 -40t-37 -87z" />
<glyph unicode="5" horiz-adv-x="1105" d="M-14 147q0 -20 14 -57q18 -53 56 -90t87.5 -60.5t105.5 -34.5t109 -11q150 0 277 57t220 150.5t145.5 213t52.5 242.5t-36 203t-93.5 128t-131 66.5t-149.5 18.5q-78 0 -156 -17q23 66 36.5 124.5t23.5 99.5q12 0 43 -1t74 -1t94 -1t104 -1q76 0 142.5 2t105.5 8 q33 4 47 25.5t14 45.5q0 29 -18 53.5t-53 24.5h-10q-6 0 -22.5 -4t-71 -7t-122.5 -1q-41 0 -80.5 1t-73.5 2t-58.5 2t-34.5 1q-51 0 -96.5 -1t-55.5 -11q-23 -23 -42 -69t-36.5 -101t-35 -116.5t-33.5 -115.5q-66 -25 -92.5 -52t-26.5 -89q0 -39 18.5 -65.5t51.5 -26.5 q35 0 69.5 29.5t59.5 66.5q53 16 115.5 29.5t123.5 13.5q51 0 97.5 -11t81 -40t56 -77t21.5 -122q0 -135 -58.5 -234t-141 -163.5t-175 -96.5t-159.5 -32q-109 0 -161 32t-75 91q-20 51 -72 51q-29 0 -52 -19.5t-23 -52.5z" />
<glyph unicode="6" horiz-adv-x="1024" d="M-8 385q0 -109 27.5 -198t80 -152.5t126 -97t163.5 -33.5q135 0 243.5 47t184.5 131t117 196.5t41 245.5q0 92 -26.5 161t-72 116t-106.5 70.5t-131 23.5q-113 0 -211 -42t-174 -157q-20 -35 -21 -65q0 -33 25 -55.5t53 -22.5q37 0 60 33q53 78 110.5 120t124.5 42 q109 0 161 -53.5t52 -170.5q0 -104 -34.5 -191t-93 -148.5t-132.5 -95.5t-153 -34q-123 0 -192 88t-69 246q0 135 60.5 265t156 236.5t215 180.5t236.5 94q33 4 47 25.5t14 46.5q0 29 -19 53.5t-54 24.5q-4 0 -11.5 -1t-31.5 -5q-156 -31 -295 -127.5t-243.5 -228.5 t-166 -281.5t-61.5 -286.5z" />
<glyph unicode="7" horiz-adv-x="970" d="M123 1114q0 -31 22.5 -49t51.5 -18q23 0 42 12t33 39q14 29 20.5 47t24.5 41q29 4 56 4h55q86 0 172 -5t170 -5h55q29 0 56 4q0 -41 -66.5 -157t-177.5 -290q-70 -109 -121 -201t-92 -176t-73 -160.5t-60 -154.5q-10 -29 -13.5 -40t-3.5 -17q0 -35 26 -54.5t54 -19.5 q23 0 41.5 11.5t28.5 37.5q31 84 64.5 161t73.5 159t89 172t113 200q68 115 121 197t91 144.5t57.5 112.5t19.5 101t-28 88t-89 37q-33 -4 -67.5 -6t-71.5 -2q-90 0 -187.5 6t-199.5 6h-66q-31 0 -63 -4q-43 -4 -73 -32.5t-49.5 -64.5t-27.5 -71t-8 -53z" />
<glyph unicode="8" horiz-adv-x="901" d="M27 131q0 -100 63.5 -163.5t165.5 -63.5q94 0 165 32.5t117 84t69.5 115t23.5 126.5q0 94 -36 167t-67 118q86 68 154 123t120 110.5t89 114.5t61 137q6 20 8.5 28.5t2.5 14.5q0 33 -25 52.5t-53 19.5q-23 0 -41.5 -11.5t-28.5 -39.5q-29 -84 -67.5 -142.5t-87 -104.5 t-104.5 -88t-118 -91q-37 45 -69.5 88t-59 83t-42 77.5t-15.5 74.5q0 31 16.5 67t54 65.5t99 50t153.5 20.5q66 0 108 -5t77 -15q23 -6 31 -8.5t14 -2.5q37 0 59.5 27t22.5 57q0 18 -11.5 34.5t-37.5 25.5q-29 8 -104 22.5t-171 14.5q-135 0 -225 -37t-143.5 -92.5t-76 -121 t-22.5 -120.5q0 -57 19.5 -111.5t50.5 -104.5t69.5 -96.5t77.5 -89.5q-78 -66 -132 -122t-89 -108t-50 -103.5t-15 -108.5zM168 139q0 55 53 131t193 189q33 -41 48 -80t15 -92q0 -45 -12 -87t-38 -74t-63.5 -51.5t-89.5 -19.5q-55 0 -80.5 24.5t-25.5 59.5z" />
<glyph unicode="9" horiz-adv-x="1011" d="M-66 -98q0 -29 19.5 -54.5t54.5 -25.5q16 0 27 4q246 82 425 203t295.5 265t172 304t55.5 324q0 80 -23.5 152.5t-71.5 129t-121 89t-173 32.5q-117 0 -217.5 -43t-174 -117.5t-115.5 -178t-42 -224.5q0 -74 18.5 -148.5t61.5 -133t112.5 -95.5t170.5 -37q82 0 157.5 36 t128.5 114q14 20 15 43q0 33 -25 54t-53 21q-16 0 -31.5 -6t-28.5 -22q-41 -49 -76.5 -68.5t-86.5 -19.5q-70 0 -112 26.5t-64.5 66.5t-29.5 87t-7 86q0 76 24.5 148.5t73.5 130t122.5 93.5t170.5 36q68 0 115 -20.5t76.5 -55.5t43 -83t13.5 -106q0 -172 -67 -318.5 t-182.5 -265t-270 -208.5t-328.5 -148q-27 -10 -39.5 -27t-12.5 -40z" />
<glyph unicode=":" horiz-adv-x="358" d="M-4 23q0 -35 21.5 -63t70.5 -28q78 0 127 31t49 62q0 16 -13 38.5t-34.5 44t-49.5 37t-54 15.5q-25 0 -46.5 -12.5t-37 -33t-24.5 -43.5t-9 -48zM131 526q0 -35 21.5 -62.5t70.5 -27.5q78 0 127 31t49 61q0 16 -13 39t-34.5 44.5t-49.5 37t-54 15.5q-25 0 -46.5 -12.5 t-36.5 -33t-24.5 -44t-9.5 -48.5z" />
<glyph unicode=";" horiz-adv-x="368" d="M-25 -174q0 -31 20.5 -55.5t51.5 -24.5q16 0 39 12q31 18 60.5 51t55 70t48 73t37.5 64q14 25 14 39q0 33 -27.5 55.5t-58.5 22.5q-33 0 -51 -27q-23 -31 -45.5 -66.5t-43 -67t-36.5 -53t-23 -25.5q-23 -12 -32 -31t-9 -37zM131 526q0 -35 21.5 -62.5t70.5 -27.5 q78 0 127 31t49 61q0 16 -13 39t-34.5 44.5t-49.5 37t-54 15.5q-25 0 -46.5 -12.5t-36.5 -33t-24.5 -44t-9.5 -48.5z" />
<glyph unicode="&#x3c;" horiz-adv-x="768" d="M41 530q0 -59 54.5 -118.5t131 -115.5t158.5 -108.5t137 -95.5q12 -10 31 -10q23 0 38 16.5t15 36.5q0 25 -22 39q-57 37 -132 84t-142.5 95t-113.5 91t-46 70q0 18 31.5 43t82.5 54.5t115.5 60t131.5 60.5t128 57.5t104 48.5q27 12 27 39q0 18 -16.5 35.5t-38.5 17.5 q-12 0 -25 -6q-41 -18 -105.5 -46t-136 -61t-144.5 -69.5t-131 -74.5t-95 -75t-37 -68z" />
<glyph unicode="=" horiz-adv-x="757" d="M80 387q0 -29 19.5 -52.5t56.5 -23.5h462q37 0 56.5 23.5t19.5 52.5t-19.5 52.5t-56.5 23.5h-462q-37 0 -56.5 -23.5t-19.5 -52.5zM92 649q0 -29 19.5 -52.5t56.5 -23.5h463q37 0 56.5 24t19.5 52q0 29 -19.5 52.5t-56.5 23.5h-463q-37 0 -56.5 -23.5t-19.5 -52.5z" />
<glyph unicode="&#x3e;" horiz-adv-x="768" d="M25 135q0 -18 16 -35.5t39 -17.5q12 0 24 6q41 18 105.5 46t136.5 60.5t144.5 69.5t131 75t95.5 75t37 67q0 59 -54.5 118.5t-131 116t-158.5 109t-138 95.5q-12 10 -30 10q-23 0 -38.5 -16.5t-15.5 -36.5q0 -25 23 -39q57 -37 132 -84t142.5 -95.5t113.5 -91.5t46 -69 q0 -18 -31.5 -43t-83 -54.5t-116 -60.5t-131 -60.5t-128 -57t-104.5 -48.5q-26 -12 -26 -39z" />
<glyph unicode="?" horiz-adv-x="962" d="M78 23q0 -35 21.5 -63t70.5 -28q78 0 127 31t49 62q0 16 -13.5 38.5t-35 44t-49 37t-53.5 15.5q-25 0 -46.5 -12.5t-37 -33t-24.5 -43.5t-9 -48zM170 1034q0 -33 24.5 -54.5t53.5 -21.5q41 0 63 37q27 43 52.5 77t58.5 57.5t77 36t107 12.5q98 0 146.5 -49.5t48.5 -118.5 q0 -152 -139 -205q-96 -39 -165 -78t-120 -92t-91 -125t-79 -174q-6 -16 -6 -31q0 -33 24.5 -52.5t53.5 -19.5q20 0 38.5 10.5t28.5 35.5q49 104 85 165.5t79 101.5t100.5 68.5t147.5 69.5q211 94 211 332q0 63 -21.5 120.5t-66.5 101.5t-114 69.5t-163 25.5 q-84 0 -150.5 -22.5t-118.5 -59.5t-90 -83t-65 -95q-10 -19 -10 -39z" />
<glyph unicode="@" horiz-adv-x="1085" d="M53 477q0 -86 24.5 -159.5t79 -129t137.5 -87t200 -31.5q61 0 131.5 9t152.5 32q31 8 44.5 26.5t13.5 40.5q0 25 -16.5 45.5t-41.5 20.5q-14 0 -32.5 -4t-43.5 -11q-37 -10 -91 -18t-103 -8q-86 0 -147.5 22.5t-101.5 60.5t-58.5 89t-18.5 108q0 86 32 172t95.5 154 t156.5 111t216 43q72 0 125 -20.5t88 -54.5t52.5 -77t17.5 -90q0 -53 -19.5 -101.5t-50.5 -85t-71 -59t-79 -22.5q-12 0 -24 4q43 53 61.5 102t18.5 68q0 33 -21.5 46t-56.5 13q-25 0 -48.5 -22.5t-43 -55.5t-34.5 -66.5t-22 -54.5q-20 -27 -45.5 -43t-64.5 -16 q-10 0 -22.5 3t-22.5 12.5t-17.5 29t-7.5 49.5q0 35 17.5 75t51.5 74t86 56.5t122 22.5q25 0 50.5 -3.5t41.5 -7.5q35 -8 41 -8q27 0 40 14.5t13 32.5q0 23 -18.5 43.5t-53.5 30.5q-76 20 -143 20q-74 0 -141.5 -28.5t-117.5 -77.5t-81 -115.5t-31 -142.5q0 -90 52.5 -142.5 t126.5 -52.5q41 0 81.5 15.5t77.5 36.5q12 -16 25 -29q39 -20 80 -21q35 0 95 20.5t119.5 69t103.5 125t44 187.5q0 70 -24.5 137.5t-75.5 119.5t-131 84t-193 32q-133 0 -243.5 -55.5t-189.5 -142.5t-123 -196.5t-44 -218.5z" />
<glyph unicode="A" horiz-adv-x="993" d="M-66 623q0 -29 18.5 -51.5t55.5 -22.5q55 0 104.5 -5t96.5 -16q-59 -117 -110.5 -241.5t-90.5 -266.5q-2 -6 -3 -12t-1 -16q0 -37 25.5 -52.5t54.5 -15.5q23 0 43 13.5t29 42.5q39 141 90 266t110 235q145 -66 230.5 -163t113.5 -189q-8 -29 -12 -55.5t-4 -61.5 q0 -55 30.5 -73.5t65.5 -18.5t60.5 19.5t25.5 62.5q0 35 -3 66.5t-9 66.5q31 178 79 343t94 302.5t80 238.5t34 148q0 86 -48.5 124t-113.5 38q-51 0 -104.5 -20.5t-96.5 -55.5q-141 -117 -261 -264t-230 -327q-63 16 -132 27t-143 11q-39 0 -58.5 -24t-19.5 -53zM430 608 q104 164 211 300t207 227q43 39 69.5 48t43.5 9q31 0 30 -41q0 -37 -24.5 -109.5t-61.5 -174t-80 -229.5t-77 -276q-55 74 -135.5 137.5t-182.5 108.5z" />
<glyph unicode="B" horiz-adv-x="1187" d="M-25 -2q0 -33 26 -53.5t54 -20.5q20 0 38 11.5t28 35.5q76 186 136 325.5t111.5 252.5t98.5 209t98 194q33 66 66 109t66.5 67.5t72.5 35t86 10.5q168 0 168 -164q0 -55 -14.5 -96.5t-46 -74t-82 -60t-123.5 -54.5q-63 -23 -100 -55.5t-37 -77.5t23.5 -65.5t51.5 -28.5 q57 -14 105.5 -30.5t83.5 -43.5t54 -66t19 -96q0 -37 -19 -73.5t-66.5 -67.5t-127 -49.5t-200.5 -18.5q-31 0 -70 3t-79 8.5t-75.5 8.5t-58.5 3q-41 0 -61.5 -26.5t-20.5 -55.5t17.5 -47.5t52.5 -22.5q143 -12 258 -12q172 0 287.5 25.5t185.5 71.5t99.5 108.5t29.5 136.5 q0 94 -30.5 158.5t-77 104.5t-97.5 59.5t-90 25.5q365 131 365 412q0 72 -28 130t-72 98t-101 61.5t-115 21.5q-152 0 -255 -74.5t-175 -234.5q-45 -102 -94 -200.5t-102.5 -210t-112.5 -243t-127 -294.5q-16 -37 -19.5 -49.5t-3.5 -20.5z" />
<glyph unicode="C" horiz-adv-x="972" d="M-51 311q0 -90 25.5 -164.5t78.5 -129t133 -85t191 -30.5q106 0 201.5 40t172 98t131 124.5t79.5 122.5q12 27 15 38t3 19q0 29 -21.5 48.5t-48.5 19.5q-20 0 -38.5 -11.5t-30.5 -35.5q-29 -55 -77 -110.5t-110.5 -99.5t-135.5 -73t-148 -29q-55 0 -104.5 15.5 t-86.5 49.5t-57.5 85t-20.5 123q0 98 35 199.5t94.5 195.5t138 178t163.5 146.5t172.5 98.5t164.5 36q72 0 72 -52q0 -49 -26.5 -101t-71.5 -99t-101.5 -85t-115.5 -61q-37 -14 -50.5 -32.5t-13.5 -40.5q0 -29 19.5 -53.5t50.5 -24.5q8 0 19.5 3t41.5 15q80 33 153 85 t128 118t87 139.5t32 147.5q0 86 -65.5 138t-166.5 52q-68 0 -162 -31.5t-194.5 -92t-200.5 -148.5t-178 -201t-127 -250t-49 -295z" />
<glyph unicode="D" horiz-adv-x="1474" d="M-41 47q0 -53 57.5 -97t165.5 -44q84 0 162 21.5t150 60.5q113 -27 226.5 -58.5t233.5 -31.5q145 0 252 34.5t176.5 97t103.5 151.5t34 198q0 129 -76 301t-232 358q16 41 24.5 64.5t8.5 46.5q0 35 -25.5 53.5t-54.5 18.5q-57 0 -73 -58q-109 88 -237 137.5t-234 49.5 q-68 0 -113 -18.5t-70.5 -47.5t-36 -62.5t-10.5 -64.5q0 -49 25.5 -96t66.5 -89t92.5 -76t104.5 -58q35 -16 47 -19.5t18 -3.5q35 0 56.5 25.5t21.5 56.5q0 18 -10 35.5t-33 28.5q-137 59 -187 107t-50 77t20.5 43t71.5 14q35 0 81 -9t99 -31.5t110.5 -60.5t114.5 -95 q-41 -104 -108.5 -230.5t-146 -248t-162.5 -223t-154 -157.5q-63 12 -132 20.5t-144 8.5q-123 0 -178.5 -40t-55.5 -89zM645 106q61 63 131 153.5t138.5 192t131 210t105.5 210.5q49 -68 90 -136t68.5 -131.5t43 -119t15.5 -96.5q0 -72 -24.5 -133t-73.5 -107.5t-125 -73 t-180 -26.5q-78 0 -156 17t-164 40z" />
<glyph unicode="E" horiz-adv-x="864" d="M18 217q0 -59 21.5 -112.5t64.5 -93.5t109 -63.5t156 -23.5q164 0 306 68.5t236 187.5q18 25 23.5 39t5.5 25q0 33 -24.5 55.5t-55.5 22.5q-14 0 -30.5 -9.5t-41.5 -40.5q-72 -92 -181 -144t-238 -52q-104 0 -150.5 46t-46.5 105q0 113 60.5 175.5t173.5 111.5 q39 16 60 40t21 52q0 35 -38 80q-35 35 -49.5 66.5t-14.5 62.5q0 70 47 137.5t111.5 120.5t133 85t111.5 32q16 0 24.5 -3t8.5 -18q0 -23 -55 -69.5t-154 -108.5q-27 -16 -36 -36.5t-9 -39.5q0 -27 20.5 -45t51.5 -18t61 18q123 78 204 161t81 177q0 76 -52 101.5t-132 25.5 q-74 0 -173.5 -41t-188.5 -112.5t-150.5 -166.5t-61.5 -204q0 -57 20.5 -105.5t51.5 -87.5q-51 -23 -101.5 -60.5t-90 -88.5t-64.5 -114.5t-25 -137.5z" />
<glyph unicode="F" horiz-adv-x="1075" d="M61 680q0 -94 34 -135t102 -41q80 0 163.5 42t155.5 105.5t124 137t67 135.5q4 23 5 30t1 11q0 31 -20.5 46t-47.5 15q-29 0 -53.5 -16.5t-32.5 -51.5q-12 -51 -54 -105t-93.5 -100t-101.5 -76t-79 -30q-18 0 -23 9.5t-5 29.5q0 31 20.5 79t60.5 102.5t99 110.5t136 100 t171 73t203 29q47 0 72.5 -16.5t25.5 -57.5q0 -35 -21.5 -95.5t-60.5 -138t-90 -172t-110 -196.5q-72 2 -109 2h-59q-37 0 -55.5 -22.5t-18.5 -51.5t18.5 -52.5t57.5 -25.5l78 -2q-78 -129 -143.5 -229t-104.5 -146q-16 -18 -17 -43q0 -29 25 -49t57 -20q33 0 62 31 q23 27 54.5 72.5t69.5 106t82 132.5t91 147h178q47 0 69.5 26t22.5 54q0 29 -19.5 50.5t-54.5 21.5h-100q49 80 94 167t79 169t54.5 155.5t20.5 126.5q0 102 -54.5 154.5t-179.5 52.5q-180 0 -334.5 -64.5t-268.5 -161.5t-178.5 -212t-64.5 -213z" />
<glyph unicode="G" horiz-adv-x="983" d="M-12 250q0 -158 69.5 -242t229.5 -84q45 0 90 11.5t87 30t78 39t60 38.5q-59 -145 -114.5 -238.5t-104.5 -149.5t-89 -85t-69 -43q-23 -12 -34 -30.5t-11 -37.5q0 -29 20.5 -52t55.5 -23q8 0 18.5 1t38.5 11q98 33 183.5 135t159 252.5t141 338t133.5 392.5q10 27 16 44 t6 34q0 33 -25.5 49t-54.5 16q-41 0 -59 -28q-29 -47 -70 -135t-106 -222q-39 -41 -73 -76.5t-71.5 -62.5t-87 -42t-118.5 -15q-78 0 -112 41t-34 131q0 109 34 220.5t91.5 217t131 197.5t153.5 160.5t160 108.5t149 40q39 0 56.5 -16.5t17.5 -42.5q0 -31 -16.5 -74 t-51.5 -86q-20 -27 -20 -64q0 -29 18.5 -47t46.5 -18q29 0 52 20q57 53 87.5 126t30.5 145q0 43 -12 80.5t-37.5 66.5t-66.5 46.5t-97 17.5q-100 0 -204.5 -49.5t-201.5 -132.5t-184.5 -193.5t-152 -232.5t-101 -247.5t-36.5 -240.5z" />
<glyph unicode="H" horiz-adv-x="1699" d="M-35 92q0 -53 23.5 -93t62.5 -67.5t91.5 -42t109.5 -14.5q68 0 156 15.5t187 59.5t202.5 123t201.5 208q172 23 342 55q-10 -88 -17 -167t-7 -144q0 -39 25.5 -59.5t54.5 -20.5t50 17.5t21 53.5q0 78 9.5 167t21.5 188q57 16 111.5 33.5t107.5 37.5q25 10 36 27.5 t11 38.5q0 29 -19.5 54.5t-41.5 25.5q-16 0 -27.5 -2t-29.5 -11q-20 -8 -51 -18t-66 -20q18 86 51 175t73 177t86 172t95 160q12 20 12 39q0 31 -24.5 52t-53.5 21q-39 0 -61 -35q-123 -197 -211 -386t-131 -416q-66 -14 -129 -25.5t-127 -21.5q45 74 92 166t86 188 t63.5 190t24.5 174q0 37 -23.5 56.5t-52.5 19.5t-52 -19.5t-23 -56.5q0 -78 -35 -184t-84 -213.5t-101.5 -201t-89.5 -144.5q-225 -27 -392 -44.5t-292 -41.5q-135 -27 -200.5 -80t-65.5 -166zM115 102q0 35 28.5 56.5t110.5 34.5q74 10 197.5 26.5t320.5 34.5 q-68 -68 -136.5 -111t-135 -68.5t-126 -35.5t-108.5 -10q-66 0 -108.5 18t-42.5 55z" />
<glyph unicode="I" horiz-adv-x="901" d="M-14 123q0 -68 28.5 -105.5t68.5 -56t83 -23t70 -4.5q84 0 170 59.5t163.5 149.5t142 198t105.5 204q33 78 64.5 153.5t57.5 146t41 135t15 122.5q0 45 -7 88t-28.5 78t-60.5 56.5t-102 21.5q-111 0 -196 -57.5t-142.5 -140.5t-86 -176t-28.5 -167q0 -37 21.5 -54.5 t50.5 -17.5t54.5 20.5t25.5 59.5q0 61 26.5 128t68.5 123t92 93t97 37q33 0 46.5 -21.5t13.5 -58.5q0 -43 -14.5 -102.5t-38 -128t-52 -141t-57.5 -142.5q-37 -88 -92.5 -179t-117.5 -166t-123.5 -122t-108.5 -47q-57 0 -76 11.5t-23 33.5q-8 35 -31.5 51.5t-50.5 16.5 t-48 -18.5t-21 -57.5z" />
<glyph unicode="J" horiz-adv-x="768" d="M-43 -520q0 -78 31.5 -128t103.5 -50q37 0 69 8t60.5 28.5t56 54.5t60.5 85q25 39 63.5 123t87 196.5t100.5 245.5t104 270.5t98.5 270.5t82 244.5t56 193.5t20.5 119q0 86 -39 140t-137 54q-68 0 -129 -45t-114.5 -118.5t-95.5 -167t-71.5 -191.5t-46 -191.5 t-16.5 -166.5q0 -84 17.5 -110t46.5 -26q31 0 58.5 20.5t27.5 53.5q0 29 -2 35q-4 20 -5 37q0 51 17.5 124t45.5 152.5t62.5 159.5t69.5 142.5t67.5 101.5t55.5 39q29 0 29 -54q0 -70 -27 -169t-69 -213.5t-90 -236.5t-91 -235q-84 -33 -181 -118.5t-181 -198.5 t-139.5 -238.5t-55.5 -240.5zM92 -506q0 29 33 102.5t83 160.5t109.5 172t110.5 134q-53 -133 -101 -245.5t-88 -194.5t-71 -128t-49 -46q-10 0 -18.5 11t-8.5 34z" />
<glyph unicode="K" horiz-adv-x="1085" d="M-4 -2q0 -31 23.5 -52.5t54.5 -21.5q37 0 61 37q70 111 139.5 255t137.5 314q14 -33 30.5 -78.5t34 -95t35.5 -96.5t37 -84q92 -162 204.5 -259t225.5 -140q29 -10 41 -13.5t20 -3.5q35 0 55.5 23.5t20.5 52.5q0 45 -53 70q-111 45 -205 125t-178 221q-27 45 -50.5 104.5 t-45.5 122.5l-45 127q-23 63 -47 119q72 29 148.5 80t154 115.5t154.5 138.5t149 149q20 20 27.5 34.5t7.5 29.5q0 31 -23 55.5t-51 24.5q-33 0 -60 -31q-104 -123 -222 -227.5t-216 -171.5q6 25 19.5 61.5t25.5 78.5t22.5 84t10.5 77q0 41 -22.5 60.5t-51.5 19.5 q-25 0 -47 -16.5t-31 -51.5q-18 -82 -41.5 -166t-68.5 -184q-14 27 -39 26q-18 0 -38.5 -14t-38 -37.5t-28 -50.5t-10.5 -51q0 -47 29 -57.5t59 -10.5q-76 -199 -153.5 -365.5t-149.5 -285.5q-12 -23 -12 -41z" />
<glyph unicode="L" horiz-adv-x="1073" d="M-166 45q0 -49 40 -93t130 -44q84 0 154.5 10t122.5 39q49 -18 91 -29.5t84 -19.5t89 -11t104 -3q45 0 99.5 2t108.5 11t107.5 26.5t100.5 48.5q33 25 33 57q0 31 -18.5 55.5t-55.5 24.5q-29 0 -49 -15q-39 -25 -87 -38t-97.5 -19t-96.5 -7t-80 -1q-68 0 -111.5 10 t-80.5 23q84 92 167 246.5t154 402.5q27 90 55.5 176t58.5 152.5t61.5 106.5t62.5 40q25 0 33 -19.5t8 -52.5q0 -35 -8 -79t-24.5 -87t-40 -80.5t-54.5 -60t-31 -51.5t24.5 -51.5t59.5 -22.5q25 0 47 15q39 25 73 72.5t58.5 107t39 124t14.5 119.5q0 45 -11.5 85t-37 69 t-65.5 46.5t-97 17.5q-82 0 -140.5 -58.5t-100.5 -145.5t-72.5 -188.5t-55.5 -185.5q-37 -123 -75 -217t-78.5 -169t-84 -135.5t-88.5 -117.5q-55 23 -120.5 48.5t-122.5 25.5q-86 0 -141.5 -41t-55.5 -119z" />
<glyph unicode="M" horiz-adv-x="1507" d="M-92 -25q0 -31 24.5 -53t53.5 -22q35 0 57 28q121 150 219 302.5t170 282.5t117 228.5t61 141.5q-20 -102 -37.5 -226.5t-30 -240t-19.5 -209.5t-7 -137q0 -63 28.5 -95t65.5 -32q57 0 95 57q176 274 324.5 511t273.5 427q-37 -102 -65 -217t-28 -238q0 -211 36 -386 t126 -337q10 -23 27.5 -31t34.5 -8q31 0 55 21.5t24 54.5q0 20 -10 37q-39 72 -65.5 144.5t-44 151.5t-24.5 166t-7 187q0 104 25.5 209t59.5 197t68.5 168t53.5 125q10 29 13 41t3 34q0 29 -34.5 59t-77.5 30q-39 0 -70 -33q-47 -53 -125 -163t-175 -257.5t-209 -322.5 t-228 -359q4 68 14 160t23.5 192.5t27.5 200.5t28.5 184t26 145.5t17.5 84.5q14 49 14 69q0 43 -30.5 67.5t-69.5 24.5q-29 0 -53.5 -12t-38.5 -41q-49 -109 -109.5 -250t-141.5 -304t-190.5 -343t-259.5 -366q-16 -19 -16 -48z" />
<glyph unicode="N" horiz-adv-x="1253" d="M-59 -14q0 -31 24.5 -54.5t52.5 -23.5q16 0 30.5 7t33.5 30q111 129 210 283.5t180 301t136.5 268.5t77.5 183q12 -115 25.5 -248t25 -266t19.5 -254t12 -209q2 -49 31.5 -77.5t68.5 -28.5q31 0 60.5 20.5t48.5 61.5q23 53 52.5 151t64 218t75.5 252t86 252t92.5 217 t96.5 149q20 23 20 49q0 31 -24.5 54.5t-53.5 23.5q-14 0 -28.5 -7.5t-36.5 -31.5q-63 -72 -121.5 -200t-112 -276.5t-99.5 -302.5l-83 -276q-8 125 -20.5 264t-27.5 274.5t-30.5 254t-29.5 204.5q-8 41 -36 61.5t-61 20.5q-35 0 -65.5 -23.5t-34.5 -70.5v-2 q-31 -123 -94.5 -279.5t-149.5 -318.5t-186 -316.5t-201 -275.5q-16 -23 -22 -36t-6 -23z" />
<glyph unicode="O" d="M4 324q0 -211 91 -317.5t261 -106.5q121 0 231.5 43t206 115.5t172 168t131 199.5t84 211.5t29.5 204.5q0 90 -21.5 150.5t-61.5 97t-94 52t-118 15.5q-102 0 -191 -37t-159.5 -94t-118 -127t-67.5 -133q-4 -16 -6 -31.5t-2 -27.5q0 -27 23.5 -44.5t54.5 -17.5 q23 0 42 12.5t27 40.5q12 51 50 107.5t92.5 102.5t120 77t134.5 31q31 0 57.5 -8.5t45 -30t30 -58t11.5 -96.5q0 -78 -26.5 -166t-74 -174t-112 -163.5t-141 -137t-161.5 -95.5t-171 -36q-104 0 -159.5 65.5t-55.5 211.5q0 78 23.5 173t69.5 191t116.5 188.5t164 163 t211 113.5t258.5 43q39 0 57.5 23.5t18.5 52.5t-18.5 52.5t-57.5 23.5q-164 0 -302 -50.5t-248.5 -132.5t-194.5 -188.5t-139.5 -221t-84 -227t-28.5 -208.5z" />
<glyph unicode="P" horiz-adv-x="757" d="M-37 51q0 -49 27.5 -68.5t58.5 -19.5q16 0 31.5 10.5t25.5 40.5q8 27 23.5 87.5t38 144.5t50.5 186.5t58 212.5q31 109 91.5 208t131 176t142.5 122t125 45t86 -52t33 -130q0 -76 -36 -159t-122 -146q-88 -66 -172 -100t-170 -34q-37 0 -56.5 -23.5t-19.5 -51.5 q0 -29 19.5 -52.5t56.5 -23.5q98 0 212 42t220 120q55 39 96 93t70 113.5t43 123t14 124.5t-17 117.5t-51 98.5t-83 67t-113 25q-59 0 -115.5 -24t-109.5 -60.5t-101.5 -85t-91.5 -97.5q0 27 -1 50.5t-5 33.5q-6 29 -22.5 41.5t-38.5 12.5q-33 0 -58.5 -21.5t-25.5 -56.5 q0 -20 2 -29q4 -20 4 -41q0 -51 -14.5 -136t-42.5 -196q-41 -166 -95.5 -310t-85.5 -263q-6 -25 -9 -48.5t-3 -66.5z" />
<glyph unicode="Q" horiz-adv-x="1208" d="M-25 68q0 -55 37 -99.5t115 -44.5q109 0 233 47q178 -117 348.5 -188.5t344.5 -71.5q90 0 180 23q35 10 49 30.5t14 42.5q0 37 -18 57.5t-47 20.5q-25 0 -51 -8q-18 -4 -49 -8t-64 -4q-53 0 -118.5 11t-136.5 33.5t-144.5 56.5t-141.5 81q160 86 321 214t308 276 q45 45 86 105t71.5 128t49 139.5t18.5 139.5q0 70 -27.5 125t-74.5 92t-109.5 56t-132.5 19q-154 0 -271.5 -63.5t-198.5 -153.5t-122 -189t-41 -173q0 -37 20.5 -54.5t47.5 -17.5q70 0 80 64q8 66 45 141.5t99.5 141t149.5 109.5t195 44q92 0 136.5 -45t44.5 -117 q0 -47 -14.5 -99t-40 -107.5t-62.5 -109t-82 -98.5q-72 -74 -155 -143.5t-167 -130.5t-165.5 -112.5t-153.5 -86.5q-57 35 -118.5 57.5t-127.5 22.5q-78 0 -119 -48t-41 -105z" />
<glyph unicode="R" horiz-adv-x="901" d="M-16 16q0 -29 20.5 -44t48.5 -15q20 0 41 10t33 33q18 35 40.5 93.5t45.5 130t46.5 149.5t47 153.5t46 141t42.5 112.5q39 92 84 167t97.5 128t113 82t133.5 29q63 0 92 -49.5t29 -120.5q0 -139 -55 -239.5t-135 -165t-172.5 -96.5t-165.5 -32q-37 0 -71 -29.5t-34 -78.5 q0 -27 12.5 -56.5t43.5 -62.5q41 -43 96 -92t113.5 -104.5t116 -119t102.5 -137.5q12 -23 30.5 -32t36.5 -9q29 0 53.5 17.5t24.5 46.5q0 16 -4 28.5t-14 34.5q-35 68 -91.5 133.5t-119 125t-124 111.5t-106.5 89q178 33 297 112t189.5 177t100.5 201.5t30 185.5 q0 139 -71 226t-204 87q-61 0 -117.5 -18.5t-106.5 -50t-93 -72.5t-80 -86v66q0 37 -23.5 56t-52.5 19t-52.5 -19.5t-23.5 -55.5q0 -139 -28.5 -292t-68.5 -297.5t-86 -267t-79 -200.5q-28 -70 -28 -103z" />
<glyph unicode="S" horiz-adv-x="1433" d="M0 123q0 -45 28.5 -88t95 -77t176.5 -54.5t269 -20.5q111 0 242 21.5t242.5 76t186.5 143.5t75 224t-93.5 217t-246.5 117q-76 18 -129 32.5t-88 34t-51.5 45t-16.5 66.5q0 53 34 110.5t97.5 105.5t151.5 80t198 32q92 0 142.5 -18.5t50.5 -53.5t-34 -72.5t-87 -69.5 t-118.5 -53.5t-129.5 -21.5q-41 -2 -60.5 -24.5t-19.5 -51.5q0 -25 15.5 -50t52.5 -25q74 0 166 24.5t173 71.5t136 115.5t55 156.5q0 47 -15 88t-51 72t-96.5 49t-150.5 18q-164 0 -286.5 -46t-205.5 -116.5t-125 -155.5t-42 -161t27.5 -128t73.5 -89t105.5 -58.5 t120.5 -35.5q84 -20 140.5 -37.5t91.5 -39t49 -51.5t14 -73q0 -78 -47 -137t-127 -99t-188.5 -60.5t-231.5 -20.5q-117 0 -195.5 9t-124.5 22.5t-65.5 32t-19.5 36.5t12 35.5t44 31t84 22.5t132 9q63 0 114.5 -6t80.5 -14q16 -4 33.5 -7t21.5 -3q41 0 57.5 24.5t16.5 53.5 q0 23 -14.5 43t-43.5 28q-59 16 -123.5 24.5t-136.5 8.5q-215 0 -328.5 -75.5t-113.5 -186.5z" />
<glyph unicode="T" horiz-adv-x="909" d="M-55 946q0 -55 51 -94q47 -35 107.5 -71t113.5 -36q47 0 64.5 24t17.5 52q0 39 -45 64q-33 18 -74 39.5t-51 31.5q180 47 359.5 83t324.5 67q-47 -96 -73.5 -190.5t-65.5 -194.5q-25 -61 -65 -149.5t-90 -181.5t-106.5 -180t-113.5 -149q-18 -23 -23.5 -37t-5.5 -24 q0 -33 24.5 -56.5t55.5 -23.5q14 0 28.5 6t33.5 29q66 74 127 169t113.5 192.5t93 188.5t67.5 159q31 80 52.5 146.5t42 124.5t46 112.5t66.5 107.5q66 10 101.5 45t35.5 72q0 35 -26.5 62.5t-75.5 27.5q-39 0 -71 -15.5t-54 -58.5q-61 -16 -157.5 -35.5t-207 -42 t-228.5 -49t-224 -57.5q-88 -25 -128 -69t-40 -89z" />
<glyph unicode="U" horiz-adv-x="1351" d="M31 707q0 -29 23.5 -46.5t51.5 -17.5q23 0 45.5 16.5t26.5 51.5q8 72 35 153.5t73 150t111.5 115t151.5 46.5q49 0 74.5 -37t25.5 -97q0 -47 -18.5 -107.5t-59.5 -137.5q-27 -47 -62.5 -110.5t-74.5 -132.5t-78 -141.5t-69 -138.5q-20 -41 -29.5 -81.5t-9.5 -77.5 q0 -104 60.5 -155.5t146.5 -51.5q145 0 266 80t215 200q2 -100 35 -181t98 -130q27 -20 40 -25.5t30 -5.5q23 0 42 25t19 55q0 41 -33 66q-35 27 -55 78t-20 112q0 78 23.5 174.5t64.5 203t95 216t114 215.5q23 43 54.5 85t31.5 79q0 31 -24 48.5t-52 17.5q-20 0 -40 -9.5 t-32 -29.5q-41 -61 -75.5 -127t-67.5 -129.5t-60.5 -122t-52.5 -103.5q-66 -121 -131.5 -236.5t-137 -206.5t-150.5 -147.5t-169 -56.5q-49 0 -69.5 16.5t-20.5 57.5q0 14 4 42t23 69q18 45 50 103t67.5 121.5t73.5 129t71 123.5q121 207 121 362q0 45 -14.5 90t-44 81 t-74.5 57.5t-109 21.5q-137 0 -233.5 -61.5t-159 -149.5t-94 -183t-39.5 -163q-2 -16 -3 -29.5t-1 -33.5z" />
<glyph unicode="V" horiz-adv-x="1159" d="M-92 702q0 -35 24.5 -54t53.5 -19q27 0 48 16.5t25 50.5q6 72 34 158t74 159.5t111.5 123t147.5 49.5q47 0 66.5 -28t19.5 -89q0 -72 -17.5 -139.5t-39.5 -130.5q-18 -57 -56.5 -126t-81.5 -142.5t-86 -148.5t-69 -142q-35 -82 -35 -162q0 -70 49 -120t143 -50h5 q68 2 153.5 48t179 126t189.5 186.5t182 227.5q70 98 135.5 202.5t114.5 205t78.5 192.5t29.5 166q0 35 -20 51t-47 16q-29 0 -56.5 -21.5t-27.5 -62.5q0 -35 -23.5 -108.5t-66.5 -166.5t-101.5 -195.5t-128.5 -190.5q-84 -109 -168.5 -204t-163.5 -166t-144.5 -113 t-110.5 -42q-31 0 -41.5 14.5t-10.5 37.5v8q4 27 14.5 58.5t24.5 60.5q27 55 67 120.5t80 133t75.5 136t56.5 132.5q33 98 51.5 176t18.5 158q0 111 -56.5 177t-161.5 66q-94 0 -167.5 -30.5t-132 -81.5t-100.5 -117t-70.5 -135.5t-45 -137t-22.5 -122.5v-11z" />
<glyph unicode="W" horiz-adv-x="1581" d="M-72 700q0 -66 18.5 -93t59.5 -27q35 0 56.5 17t21.5 46q0 18 -2 33.5t-2 30.5q0 66 28.5 147.5t75.5 153t106.5 122t121.5 50.5q35 0 54 -28t19 -87q0 -72 -26.5 -165t-66.5 -192.5t-90 -198.5t-96 -182t-83 -144.5t-53 -84.5q-16 -27 -21.5 -44t-5.5 -27 q0 -31 23.5 -55.5t62.5 -24.5q23 0 45.5 10t44.5 33q66 68 151 162t179 200.5t193.5 219t191.5 216.5q-37 -86 -66.5 -168.5t-52 -168.5t-35 -177.5t-12.5 -191.5q0 -72 46 -112t112 -40q41 0 86 17.5t86 52.5q76 66 156.5 153t156.5 190t142.5 217t116.5 231.5t80 234.5 t30 227q0 37 -23.5 56.5t-52.5 19.5t-52.5 -19.5t-23.5 -56.5q0 -133 -59.5 -294.5t-151.5 -321.5t-202.5 -298t-215.5 -224q-16 -8 -29.5 -13.5t-23.5 -5.5q-27 0 -26 35q0 111 21.5 212t60 206.5t89 224.5t109.5 262q12 31 12 58q0 41 -24.5 63.5t-59.5 22.5 q-53 0 -96 -50q-68 -78 -147.5 -169t-163.5 -186l-168 -190q-84 -95 -160 -182q45 86 89 175.5t80 177.5t57.5 170t21.5 151q0 109 -51 179.5t-168 70.5q-119 0 -211 -66.5t-154.5 -163t-95.5 -205t-33 -192.5z" />
<glyph unicode="X" horiz-adv-x="1187" d="M-35 3q0 -26 15 -46q16 -23 44.5 -32t59.5 14q111 78 192.5 144.5t148.5 129.5t128 130t133 144q53 -246 150.5 -423t222.5 -291q22 -20 47 -21q5 0 10 1q31 5 49.5 26.5t20.5 52.5t-25 55q-78 68 -138 162t-103 196.5t-71 202t-38 177.5q88 96 153.5 185t129 164 t131 130t159.5 86q35 12 46 40q5 15 5 29q0 13 -4 26q-9 28 -35 44.5t-61 3.5q-98 -35 -171.5 -87t-134 -115.5t-113 -135t-109.5 -141.5q6 78 10 165q1 20 1 40q0 64 -10 120q-13 73 -53 120t-124 47t-142.5 -28t-103.5 -67t-79 -83t-66 -76q-25 -25 -25 -53v-5 q2 -31 19.5 -53.5t45 -27.5t54.5 20q39 37 74.5 77t69.5 71.5t65.5 52t62.5 20.5t42 -41t14 -111q1 -35 1 -75t-1 -86q-1 -31 -1 -63q0 -64 3 -132q-96 -106 -175 -191t-156 -159t-157 -140.5t-178 -134.5q-33 -23 -33 -58z" />
<glyph unicode="Y" d="M-276 -604q0 -29 17 -50.5t54 -21.5q205 0 367 61.5t287.5 162t218 228.5t159.5 261q61 121 126 239.5t124.5 232.5t110.5 220.5t84 204.5q14 41 14 74q0 41 -17.5 59t-41.5 18q-23 0 -47.5 -15t-40.5 -50q-35 -66 -75 -150t-81 -182q-41 -61 -102.5 -128.5t-131 -133.5 t-142 -126t-135 -106.5t-110 -73t-67.5 -26.5q-33 0 -41 15.5t-8 31.5q0 39 15 84t41 97.5t60.5 112t73.5 128.5q63 111 111.5 192t80 144.5t47 117.5t15.5 109q0 84 -53 143.5t-174 59.5q-88 0 -170 -59.5t-144.5 -149.5t-99.5 -195.5t-37 -195.5q0 -47 14.5 -73.5 t53.5 -26.5q41 0 59.5 27.5t18.5 76.5q0 55 28.5 131t72.5 145.5t97.5 119t104.5 49.5q41 0 58.5 -20.5t17.5 -55.5q0 -41 -13.5 -82t-41 -95.5t-69.5 -126t-100 -171.5q-68 -117 -110.5 -200t-68 -143.5t-35 -105.5t-9.5 -88q0 -68 44 -107.5t108 -39.5q37 0 94 22.5 t128 65.5t152.5 104.5t165.5 140.5q-25 -43 -46 -86t-44 -84q-66 -129 -148.5 -243.5t-190 -200.5t-243 -136t-307.5 -50q-39 0 -59 -25.5t-20 -54.5z" />
<glyph unicode="Z" horiz-adv-x="1054" d="M-106 -250q0 -70 21.5 -120t57 -81.5t79.5 -47t87 -15.5q76 0 158 35t162 96t151.5 143t126 175.5t86 193.5t31.5 197q0 74 -20.5 131t-55.5 98t-79 65.5t-91 36.5q86 37 159 80t127 95.5t85 116t31 141.5q0 109 -69 180t-210 71q-86 0 -168 -27.5t-154.5 -74.5 t-129 -108.5t-89.5 -129.5q-8 -16 -8 -36q0 -31 21.5 -51.5t50.5 -20.5q16 0 33.5 10t27.5 33q31 61 78 108.5t102.5 79t116 49t119.5 17.5q129 0 129 -100q0 -55 -31.5 -103.5t-82 -87.5t-115 -69.5t-127.5 -53.5q-57 -20 -97 -54t-40 -77q0 -49 30.5 -68.5t63.5 -25.5 q49 -10 92 -24.5t77 -40t53 -65.5t19 -97q0 -80 -26.5 -162t-71.5 -159t-103.5 -144.5t-120 -117.5t-122.5 -79t-113 -29q-53 0 -76.5 32t-23.5 81q0 55 23.5 116.5t62.5 117t91 99.5t108 62q33 10 47 33t14 45q0 31 -18.5 49.5t-46.5 18.5q-27 0 -58 -8 q-61 -16 -126.5 -72.5t-121 -132.5t-91 -162t-35.5 -162z" />
<glyph unicode="[" horiz-adv-x="471" d="M-117 -80q0 -53 39 -76.5t111 -23.5q39 0 76.5 7t74.5 17q29 8 43.5 27.5t14.5 42.5q0 29 -21.5 54.5t-56.5 25.5q-12 0 -21 -2q-16 -4 -41.5 -10.5t-46.5 -6.5q-10 0 -18 5q8 158 30.5 328.5t52.5 334.5t63.5 312.5t62.5 263.5q8 4 41 4q27 0 56.5 -2t45.5 -7q4 0 7 -1 t7 -1q35 0 51.5 22.5t16.5 51.5q0 27 -14.5 49.5t-46.5 30.5q-35 8 -70 10t-74 4q-80 0 -113.5 -23.5t-41.5 -58.5q-31 -119 -70 -282.5t-75 -348t-59.5 -377t-23.5 -370.5z" />
<glyph unicode="\" horiz-adv-x="737" d="M33 1262q0 -16 16 -48q72 -143 137.5 -289.5t132 -304t136 -332.5t149.5 -376q10 -25 27.5 -36t38.5 -11q29 0 54.5 19.5t25.5 52.5q0 6 -3.5 17t-15.5 42q-76 188 -141.5 359t-131 330t-133 309.5t-147.5 299.5q-10 23 -27.5 32t-35.5 9q-31 0 -56.5 -21t-25.5 -52z" />
<glyph unicode="]" horiz-adv-x="614" d="M111 -86q0 -27 14 -49.5t47 -30.5q35 -8 69.5 -10t73.5 -4q80 0 114 23.5t42 58.5q31 119 70 282.5t74.5 348t59 377t23.5 370.5q0 53 -38.5 76.5t-110.5 23.5q-39 0 -77 -7t-75 -17q-29 -8 -43 -27.5t-14 -42.5q0 -29 21.5 -54.5t56.5 -25.5q12 0 20 2l42 10.5t46 6.5 q10 0 19 -4q-8 -158 -30.5 -329t-52.5 -335t-63.5 -313.5t-62.5 -261.5q-8 -4 -41 -5q-27 0 -56.5 2.5t-45.5 6.5q-4 0 -7.5 1t-7.5 1q-35 0 -51 -22.5t-16 -51.5z" />
<glyph unicode="^" horiz-adv-x="706" d="M66 698q0 -23 15 -39t36 -16q20 0 33 19q23 33 57.5 90t69 115.5t64.5 103.5t44 53q12 -10 35.5 -51t50.5 -92.5t54.5 -101.5t45.5 -81q14 -25 41 -24q20 0 37 15.5t17 37.5q0 14 -9 29q-18 31 -43.5 81t-52 102t-53.5 99t-49 72q-27 29 -66 29q-57 0 -90 -45 q-31 -41 -64.5 -94.5t-64.5 -105.5t-56.5 -96t-41.5 -67q-10 -17 -10 -33z" />
<glyph unicode="_" horiz-adv-x="634" d="M-76 -125q0 -29 19.5 -52.5t56.5 -23.5h657q37 0 56.5 23.5t19.5 52.5t-19.5 52.5t-56.5 23.5h-657q-37 0 -56.5 -23.5t-19.5 -52.5z" />
<glyph unicode="`" horiz-adv-x="430" d="M63 1055q0 -31 29 -47q47 -27 106.5 -69t120.5 -91q14 -12 37 -12q20 0 30.5 16t10.5 39q0 25 -20 43q-61 49 -116.5 91t-127.5 77q-12 6 -27 6q-23 0 -33 -16.5t-10 -36.5z" />
<glyph unicode="a" horiz-adv-x="839" d="M-66 127q0 -39 9.5 -76t31 -66.5t56.5 -47t88 -17.5q66 0 124 28.5t109 69.5q23 -88 101 -88q49 0 106 20.5t116.5 57.5t116 87t101.5 110q14 16 14 37q0 29 -21.5 48t-49.5 19q-29 0 -50 -26q-27 -35 -68.5 -74t-84.5 -72t-80 -53.5t-55 -20.5q-27 0 -27 31q0 20 10 51 q8 29 28.5 62t45.5 67.5t48.5 69.5t37.5 65.5t14 61.5q0 66 -80 66q-33 0 -60.5 -29t-49 -70t-37.5 -86t-29 -76q-29 -45 -60.5 -85.5t-66 -71.5t-69.5 -49.5t-70 -18.5q-37 0 -52 24.5t-15 65.5q0 23 7 67t28.5 97t62.5 109.5t108.5 101.5t167 75t236.5 30q31 0 46 18 t15 41q0 25 -16 45t-51 20q-150 0 -262.5 -31.5t-194.5 -85t-135 -119t-85 -135t-45.5 -134t-13.5 -113.5z" />
<glyph unicode="b" horiz-adv-x="768" d="M-59 240q0 -27 15 -45.5t40 -18.5q14 0 35 10q0 -8 -1 -15t-1 -13q0 -96 51 -164t166 -68q53 0 99 18.5t85 49.5t70.5 69.5t58.5 79.5q49 -23 96 -22q47 0 89 19.5t75 60.5q12 16 16.5 25.5t4.5 19.5q0 25 -21.5 42t-50.5 17q-33 0 -53 -26q-16 -23 -53 -23q-20 0 -39 6 q33 76 52 158t19 149q0 90 -42 131t-107 41q-41 0 -76 -20.5t-59.5 -55t-39 -81.5t-14.5 -99q0 -78 27 -145.5t70 -116.5q-39 -72 -87.5 -119t-107.5 -47q-53 0 -76.5 30t-23.5 81q0 59 25.5 141t62.5 176q47 92 103.5 201t103.5 214.5t79.5 194.5t32.5 142v10 q0 41 -16.5 65.5t-56.5 24.5q-43 0 -81 -59t-74 -153.5t-70 -209t-66 -225.5q-59 -129 -124 -231.5t-114 -161.5q-22 -28 -22 -57zM485 475q0 68 16.5 102.5t39.5 34.5q27 0 26 -41q0 -35 -10 -91t-35 -128q-14 23 -25.5 54.5t-11.5 68.5z" />
<glyph unicode="c" horiz-adv-x="665" d="M-57 207q0 -59 17 -110.5t53 -90.5t88.5 -60.5t123.5 -21.5q88 0 168 32t144.5 77t110.5 92t67 78q12 16 15 25.5t3 19.5q0 27 -21.5 44t-47.5 17q-35 0 -56 -30q-18 -29 -55 -67t-88 -73t-112.5 -59.5t-127.5 -24.5q-68 0 -109.5 46t-41.5 120q0 68 32.5 135.5t81 121.5 t101.5 88t96 34q35 0 53.5 -15.5t18.5 -29.5q0 -8 -2 -10q-4 -6 -6.5 -14.5t-2.5 -24.5q0 -27 26 -42t54 -15q29 0 47.5 34.5t18.5 81.5q0 70 -55.5 114t-141.5 44q-98 0 -182 -51t-143.5 -129t-93 -168t-33.5 -168z" />
<glyph unicode="d" horiz-adv-x="870" d="M-74 174q0 -47 10.5 -92t35 -80t64.5 -56.5t99 -21.5q78 0 149.5 39t133.5 92q0 -59 26.5 -91t75.5 -32q43 0 99.5 28t112.5 70t105.5 90t80.5 91q12 18 12 37q0 25 -19.5 42t-44.5 17q-33 0 -51 -26q-18 -23 -48 -55.5t-62.5 -62.5t-64.5 -50.5t-52 -20.5 q-18 0 -24.5 15.5t-6.5 29.5q0 35 17.5 90.5t47 120t66.5 135t74 135.5q27 51 66.5 118t78.5 137.5t73 136t50 112.5q14 41 14 76q0 47 -22.5 74.5t-54.5 27.5q-35 0 -64 -18t-51 -47q-31 -43 -64.5 -118t-65.5 -159t-59.5 -166.5t-46.5 -140.5q-72 55 -182 56 q-147 0 -245.5 -57.5t-157 -139.5t-82 -174t-23.5 -162zM55 182q0 55 20.5 123t65.5 128.5t117 101t176 40.5q31 0 60.5 -10t64.5 -45q-29 -61 -54.5 -113.5t-41.5 -101.5q-16 -33 -54 -76t-84 -81.5t-96.5 -65.5t-93.5 -27q-37 0 -58.5 36t-21.5 91z" />
<glyph unicode="e" horiz-adv-x="624" d="M-61 215q0 -55 14 -108.5t44 -95.5t76 -66.5t111 -24.5q90 0 170 34t144.5 80t110.5 94t69 77q14 16 14 39q0 27 -21.5 46t-47.5 19q-31 0 -52 -26q-31 -41 -73.5 -82t-93 -74t-106.5 -54.5t-114 -21.5q-53 0 -82.5 43t-29.5 123q199 104 297 189.5t98 177.5q0 59 -47 97 t-113 38q-74 0 -140.5 -49t-117.5 -125t-80.5 -164t-29.5 -166zM109 391q47 106 103 151.5t87 45.5q25 0 25 -23q0 -31 -58.5 -77t-156.5 -97z" />
<glyph unicode="f" horiz-adv-x="419" d="M-229 -539q0 -63 17 -101t44 -58.5t57.5 -26.5t59.5 -6q37 0 83 21.5t86 62.5t67.5 100.5t27.5 136.5q0 37 -3 62.5t-8 46t-11.5 39t-14.5 41.5q-10 31 -19.5 57.5t-9.5 48.5q0 31 15.5 52.5t38.5 37.5q31 20 69.5 46t76.5 57t73 64.5t57 70.5q10 20 10 33q0 29 -18 47 t-53 18t-54 -32q-14 -25 -42.5 -51.5t-63.5 -54.5t-72 -53.5t-67 -47.5q12 33 33.5 84t46 106t50 108.5t44.5 92.5q43 61 90 134t91 147.5t83 148.5t68.5 138.5t47 116.5t17.5 83q0 41 -19.5 60.5t-52.5 19.5q-68 0 -126 -73t-111 -185.5t-102.5 -250.5t-98.5 -270 q-31 -41 -55.5 -72.5t-50 -59t-53 -54.5t-62.5 -57q-20 -20 -20 -45q0 -29 19 -46.5t48 -17.5q10 0 14 2q-37 -90 -79.5 -189t-80.5 -195.5t-62.5 -185t-24.5 -151.5zM-96 -528q0 41 13 92t33.5 104t41 102.5t37.5 86.5q6 -31 15 -64t19.5 -66.5t17.5 -67.5t7 -67 q0 -49 -16.5 -83.5t-39 -57t-49 -33t-44.5 -10.5q-25 0 -30 20.5t-5 43.5z" />
<glyph unicode="g" horiz-adv-x="770" d="M-94 -586q0 -137 104 -137q41 0 74 20.5t59.5 54.5t48 77t37.5 90q47 125 81 209t65 155q37 18 96 50t123.5 74t126 93.5t102.5 108.5q12 18 13 37q0 29 -21.5 47t-46.5 18q-31 0 -51 -28q-33 -47 -103.5 -104.5t-156.5 -104.5q55 127 99 228t58 149q6 20 8.5 28t2.5 15 q0 29 -20.5 43t-47.5 14q-35 0 -55 -21q-12 -12 -28.5 -43.5t-34 -69.5t-33 -77t-23.5 -68q-53 -102 -123 -158.5t-121 -56.5q-39 0 -57.5 33t-18.5 82q0 100 41 176t112 126t167 74.5t207 24.5q33 0 49 21.5t16 48.5q0 23 -15 42.5t-46 19.5q-133 0 -253 -35t-210 -103.5 t-144.5 -172t-54.5 -238.5q0 -59 16.5 -102.5t43 -71t61.5 -41t72 -13.5q47 0 86 26t74 54q-4 -14 -10.5 -25.5t-10.5 -23.5q-82 -72 -148.5 -146.5t-112.5 -146.5t-71.5 -136.5t-25.5 -115.5z" />
<glyph unicode="h" horiz-adv-x="1024" d="M-63 250q0 -27 20 -47.5t47 -20.5t43 17q35 33 77 73.5t89 87.5q-35 -72 -64.5 -136t-50.5 -118q-8 -23 -12 -41t-4 -36q0 -27 18.5 -43.5t44.5 -16.5q27 0 54.5 19.5t46.5 66.5q23 57 51.5 115.5t58.5 112.5q18 18 50 47.5t70 62.5t79 66t78 57q20 14 49 29.5t55 17.5 q-4 -23 -14 -45t-23 -43q-37 -55 -70.5 -134t-58.5 -165q-6 -23 -10 -46.5t-4 -45.5q0 -61 32 -107.5t103 -48.5q27 0 78 27t108.5 69t111.5 91t89 94q12 18 13 37q0 27 -20.5 45t-47.5 18q-31 0 -51 -26q-31 -37 -68 -74t-73.5 -65.5t-66.5 -47t-44 -18.5q-16 0 -21.5 6 t-5.5 16q0 53 40 145.5t104 217.5q20 41 29.5 83t9.5 77q0 43 -23 69.5t-63 26.5q-35 0 -83.5 -20.5t-98.5 -51.5t-98 -68.5t-85 -70.5q37 82 66 160q31 39 71.5 99t80.5 125.5t73 130t49 112.5q10 29 13 53t3 53q0 27 -23.5 44.5t-58.5 17.5q-35 -2 -63.5 -20.5 t-50.5 -49.5q-31 -43 -64 -114.5t-60.5 -146.5t-48 -139.5t-30.5 -91.5q-47 -57 -103.5 -119.5t-115 -123t-112.5 -113.5t-95 -92q-20 -20 -20 -43z" />
<glyph unicode="i" horiz-adv-x="458" d="M-63 248q0 -25 18 -41.5t47 -18.5q-20 -45 -22.5 -69.5t-2.5 -38.5q2 -78 40 -113t96 -35q43 0 98 28t112.5 70t107.5 89t81 88q14 16 14 37q0 27 -22.5 46t-48.5 19q-31 0 -49 -24q-29 -37 -69 -77t-79 -73t-72.5 -54.5t-52.5 -21.5q-20 0 -20 31q0 16 6 39t14 45 q31 80 72 158t88 168q14 25 26.5 49t12.5 53q0 39 -22.5 53.5t-45.5 14.5q-47 0 -78 -45q-25 -37 -51 -83t-54 -91t-55.5 -83t-54.5 -61q-34 -28 -34 -59zM281 940q0 -33 19 -57.5t65 -24.5q72 0 105.5 26.5t33.5 65.5q0 20 -13.5 41t-32 37t-39 25.5t-36.5 9.5 q-45 0 -73.5 -40t-28.5 -83z" />
<glyph unicode="j" horiz-adv-x="458" d="M-268 -586q0 -57 20.5 -86.5t50.5 -29.5q70 0 117 65.5t98 206.5q8 25 21.5 61.5t29 81.5t33 95.5t35.5 99.5q23 20 47.5 35.5t51.5 31.5q35 20 74.5 47t76.5 58t71 62.5t56 64.5q12 18 12 35q0 29 -19.5 48t-41.5 19q-23 0 -39 -11t-27 -28q-23 -33 -76 -75.5 t-110 -79.5q10 27 30.5 78t44 110t48 118.5t47.5 104.5q8 16 17.5 38t9.5 50q-2 31 -22.5 47.5t-51.5 16.5q-25 0 -50.5 -21.5t-58.5 -56.5q-31 -35 -65.5 -78t-69.5 -85t-68.5 -78.5t-64.5 -61.5q-23 -20 -22 -47q0 -29 19 -46.5t46 -17.5q10 0 24.5 6.5t28.5 20.5 q16 18 43 47t56 53q-12 -29 -28.5 -69.5t-34 -85.5t-35 -91.5t-29.5 -82.5q-59 -55 -112.5 -130t-94.5 -153t-64.5 -154t-23.5 -133zM342 940q0 -33 19.5 -57.5t64.5 -24.5q72 0 105.5 26.5t33.5 65.5q0 20 -13 41t-31.5 37t-39 25.5t-37.5 9.5q-45 0 -73.5 -40t-28.5 -83z " />
<glyph unicode="k" horiz-adv-x="942" d="M-63 248q0 -29 20 -49.5t47 -20.5q23 0 41 19q8 8 22.5 24.5t30 33.5t29.5 33.5t25 26.5q-43 -102 -73 -179t-30 -113q0 -29 22.5 -44.5t51.5 -15.5q47 0 68.5 33t36 71.5t30.5 87t33.5 96.5t33 94t27.5 81q27 31 66 70t82 72.5t87 57t83 23.5q27 0 34 -13t7 -40 q0 -76 -85 -136.5t-245 -127.5q-37 -16 -58.5 -48t-21.5 -67q0 -33 14.5 -82t45 -94t82 -77t124.5 -32q63 0 129 30t122 71t101.5 87t67.5 77q12 16 15.5 29.5t3.5 23.5q0 27 -19.5 42t-44.5 15q-16 0 -30.5 -8t-32.5 -31q-27 -33 -66 -68.5t-82 -66.5t-86 -50.5t-78 -19.5 q-51 0 -87 42t-48 112q37 8 107.5 39t140.5 83t122 122.5t52 161.5q0 66 -43 111.5t-131 45.5q-59 0 -103.5 -22.5t-84.5 -50.5q33 45 70.5 102t73.5 115.5t65.5 113t41.5 92.5q14 43 15.5 66t1.5 35q0 84 -78 84q-39 0 -76 -32t-71.5 -84t-66.5 -118.5t-59.5 -136.5 t-51 -137.5t-42.5 -118.5q-41 -53 -88 -107.5t-95 -106.5t-93 -99t-84 -84q-18 -16 -18 -43z" />
<glyph unicode="l" horiz-adv-x="466" d="M-63 242q0 -27 18 -45.5t47 -18.5q10 0 16 2q-4 -16 -5 -35.5t-1 -50.5q0 -72 27 -116t94 -44q31 0 83 27t107.5 66t106.5 83t82 80q20 27 20 50q0 27 -20 46t-49 19q-12 0 -25.5 -5t-23.5 -19q-20 -25 -55 -59t-73 -64.5t-73 -52t-55 -21.5q-16 0 -17 22q0 29 16.5 95.5 t45.5 154.5q139 154 237.5 281t161 231.5t91 185.5t28.5 142q0 43 -19.5 85t-70.5 42q-66 0 -118 -37t-93 -93t-74 -126t-59 -135q-49 -119 -100.5 -253t-96.5 -251q-39 -43 -71.5 -77t-51.5 -50q-20 -16 -25 -31.5t-5 -27.5zM356 754q25 63 54.5 130.5t58.5 123t52.5 91.5 t35.5 36q10 0 10 -15q0 -27 -16 -68.5t-45 -92t-67 -103.5t-83 -102z" />
<glyph unicode="m" horiz-adv-x="1429" d="M-61 244q0 -27 19 -47.5t44 -20.5q23 0 47.5 21.5t63.5 66.5q-16 -37 -38 -86t-34 -90q-10 -31 -11 -42t-1 -17q0 -31 18.5 -44.5t42.5 -13.5q37 0 61.5 24.5t59.5 86.5q80 137 191.5 244.5t269.5 199.5q-16 -43 -37 -97t-43.5 -111.5t-47 -112.5t-44.5 -101 q-20 -43 -21 -73q0 -35 22.5 -46.5t55.5 -11.5q39 0 64.5 30t42.5 52q39 53 78.5 103.5t91 102.5t116 107.5t152.5 116.5q-29 -76 -62.5 -146.5t-62.5 -143.5q-18 -45 -22.5 -78t-4.5 -70q0 -53 43 -83t111 -30q29 0 78 26t103 64.5t107.5 86t88.5 92.5q14 16 14 41 q0 27 -20.5 47t-47.5 20q-12 0 -25 -5t-24 -21q-23 -29 -56.5 -62t-72.5 -62.5t-77.5 -51t-71.5 -27.5q20 80 50 147.5t48 110.5q49 104 56.5 153.5t7.5 57.5q0 55 -26 90t-67 35q-35 0 -65 -23q-94 -61 -182 -135t-166 -151q18 41 31.5 88t13.5 96q0 47 -23.5 88t-72.5 41 q-20 0 -45 -8t-54 -29q-72 -49 -144.5 -103.5t-135.5 -113.5q10 47 24.5 86t14.5 68q0 35 -19.5 50t-46.5 15t-42 -17.5t-36 -52.5q-55 -84 -124.5 -152.5t-137.5 -133.5q-20 -20 -20 -45z" />
<glyph unicode="n" horiz-adv-x="942" d="M-61 244q0 -27 19 -47.5t44 -20.5q23 0 47.5 21.5t63.5 66.5q-16 -37 -39 -90t-41 -115q-4 -10 -4 -18v-12q0 -31 18.5 -44.5t42.5 -13.5q37 0 60.5 24.5t60.5 86.5q33 55 67.5 102t79.5 93.5t106.5 96.5t149.5 111q-29 -76 -62.5 -146.5t-62.5 -143.5q-18 -45 -22 -78 t-4 -70q0 -53 43 -83t110 -30q29 0 78 26t103.5 64.5t107.5 86t88 92.5q14 16 15 41q0 27 -20.5 47t-47.5 20q-12 0 -25.5 -5t-23.5 -21q-23 -29 -56.5 -62t-72.5 -62.5t-78 -51t-72 -27.5q18 72 40 123t50 112q31 68 51.5 126.5t20.5 107.5q0 55 -25.5 90t-66.5 35 q-35 0 -66 -23q-94 -61 -164.5 -114.5t-125.5 -112.5q10 47 24.5 86t14.5 68q0 35 -21.5 50t-44.5 15q-27 0 -42 -17.5t-36 -52.5q-55 -84 -124.5 -152.5t-137.5 -133.5q-20 -20 -20 -45z" />
<glyph unicode="o" horiz-adv-x="753" d="M-61 217q0 -70 21.5 -124t58 -92t86 -57.5t104.5 -19.5q66 0 120 18.5t100 49.5t83 70.5t68 82.5q27 -6 57 -6q84 0 135 36t51 71q0 25 -20.5 42t-40.5 17q-23 0 -37 -6t-27 -16q-10 -8 -19 -9.5t-20 0.5q20 41 28.5 77t8.5 79q0 53 -26.5 97t-91.5 69q-12 4 -21 4 q6 12 6 29q0 25 -17.5 40t-45 24t-59 12.5t-60.5 3.5q-117 0 -201 -51.5t-138 -126t-78.5 -160.5t-24.5 -154zM70 219q0 72 24.5 136.5t66.5 113.5t98 79t120 30q10 0 21.5 -1.5t21.5 -3.5q-41 -27 -64.5 -69.5t-23.5 -91.5q0 -41 11 -74t29.5 -59.5t41 -46t43.5 -31.5 q-68 -86 -131.5 -116t-124.5 -30q-66 0 -99.5 46t-33.5 118zM465 412q0 57 51 57q23 0 36 -12.5t13 -34.5q0 -33 -10 -61.5t-25 -53.5q-37 25 -51 53.5t-14 51.5z" />
<glyph unicode="p" horiz-adv-x="978" d="M-152 -549q0 -23 19.5 -33t38.5 -10q20 0 38.5 11.5t30.5 43.5q20 59 52 148.5t67 194t72 217t70 217.5q35 84 79.5 145t95 101t100.5 59.5t97 19.5q43 0 71 -17.5t43 -42t20.5 -52t5.5 -45.5q0 -29 -17.5 -80.5t-54.5 -105.5t-95.5 -101t-142.5 -68q-31 31 -59.5 50.5 t-63.5 19.5q-41 0 -71.5 -30t-30.5 -83q0 -55 46 -72.5t116 -17.5h39q14 0 24 2q49 -12 97 -12q78 0 152.5 27.5t139 68.5t115.5 91t82 98q8 12 14 27.5t6 29.5q0 23 -16 40t-45 17q-23 0 -37 -8t-28 -33q-23 -37 -69 -79t-101 -76q43 53 69.5 99t39.5 84t17.5 68.5 t4.5 53.5q0 119 -70 198.5t-199 79.5q-76 0 -145.5 -31.5t-128.5 -80.5q6 23 10 39t4 32q0 23 -11 33t-28 10q-16 0 -34.5 -12t-28.5 -39q-35 -78 -69 -125t-67.5 -83t-69.5 -66.5t-77 -75.5q-25 -29 -24 -55q0 -27 19.5 -45.5t41.5 -18.5q25 0 47 25q29 35 64 55 q-43 -121 -77 -218t-63.5 -183t-55.5 -168t-54 -170q-4 -16 -9.5 -34t-5.5 -34z" />
<glyph unicode="q" horiz-adv-x="819" d="M-98 137q0 -100 48 -154.5t148 -54.5q43 0 86 17.5t84 40.5q-49 -86 -101 -181.5t-81 -181.5q-10 -33 -15 -61.5t-5 -55.5q0 -70 33.5 -100.5t80.5 -30.5q53 0 105.5 31t94.5 88t67.5 141t25.5 189q0 51 -6 92q43 10 101.5 40t115.5 70t106.5 83t73.5 79q10 16 15.5 32 t5.5 24q0 27 -18.5 44t-45.5 17q-33 0 -53 -26q-37 -51 -83 -91.5t-93 -72t-91 -53t-77 -35.5q18 39 41.5 84t47.5 91t46.5 91t38.5 84q14 29 14 47q0 27 -15 46t-52 19q-23 0 -43.5 -23.5t-42.5 -62.5q-35 -63 -69 -124.5t-74 -110.5t-90 -79t-120 -30q-41 0 -57 21.5 t-16 66.5q0 20 10 60.5t35.5 86.5t68.5 95t110 88t160 64.5t216 25.5q33 0 48 20.5t15 45.5t-15 45t-48 20q-150 0 -261.5 -30.5t-193.5 -80.5t-135 -112.5t-85 -125t-44 -119t-12 -93.5zM199 -461q0 23 20 66q27 53 59.5 115.5t61.5 123.5q0 -66 -13.5 -123t-33 -101 t-41 -69.5t-37.5 -25.5t-16 14z" />
<glyph unicode="r" horiz-adv-x="696" d="M-61 246q0 -25 17 -43.5t44 -18.5q33 0 59 27q33 31 70 71t74 86t71.5 96t61.5 99q37 -12 67.5 -20t51.5 -13q-16 -23 -39 -55.5t-49.5 -72.5t-52 -86t-44.5 -95q-16 -41 -29.5 -84t-13.5 -82q0 -57 37 -89t78 -32q33 0 59.5 10.5t55.5 24.5q35 16 78 47t83.5 65 t74.5 66.5t50 55.5q10 12 14.5 25.5t4.5 21.5q0 25 -16.5 41t-43.5 16q-14 0 -21 -4t-22 -18q-41 -41 -90 -85t-112 -87q-59 -39 -82 -39q-12 0 -13 18q0 20 17 53q16 35 37.5 75t46 81t50.5 82t48 78q18 29 25.5 57.5t7.5 54.5q0 37 -28.5 60.5t-69.5 28.5q-25 4 -54.5 8 t-64.5 16q-8 43 -33 61.5t-57 18.5q-47 0 -72 -24.5t-25 -59.5t37 -70q-25 -37 -58.5 -82t-70.5 -89t-73.5 -84t-65.5 -66q-20 -20 -20 -45z" />
<glyph unicode="s" horiz-adv-x="663" d="M-57 244q0 -27 16 -44.5t39 -17.5q10 0 26.5 5.5t32.5 17.5q61 51 130 116.5t128 133.5q12 -53 19.5 -106.5t7.5 -94.5q0 -61 -9 -106.5t-20 -67.5q-41 -8 -90 -8q-51 0 -96 6t-82 6q-43 0 -63.5 -24.5t-20.5 -53.5q0 -23 11.5 -41t33.5 -22q80 -18 154 -19 q98 0 184 26.5t158.5 68.5t127 92.5t87.5 97.5q12 18 12 37q0 29 -20.5 47t-38.5 18q-20 0 -32.5 -10t-23.5 -20l-63 -64q-37 -37 -88 -70q4 25 7 52.5t3 56.5q0 78 -16.5 162t-50.5 164q4 16 6 30.5t2 30.5q0 41 -23.5 67.5t-56.5 26.5q-47 0 -77 -23.5t-30 -70.5 q0 -18 12.5 -33.5t24.5 -29.5q-20 -25 -53 -59t-73 -72.5t-84 -78.5t-87 -77q-24 -22 -24 -49z" />
<glyph unicode="t" horiz-adv-x="604" d="M-61 240q0 -25 18 -42.5t43 -17.5q18 0 37 13q-6 -37 -6 -70q0 -92 43 -141.5t129 -49.5q61 0 104 14.5t66 26.5q51 27 98 58.5t85 65.5t66.5 66t41.5 56q8 16 8 33q0 27 -19.5 41t-46.5 14q-31 0 -51 -22q-47 -53 -112.5 -110.5t-137.5 -92.5q-27 -12 -39 -14t-37 -2 q-27 0 -39 26.5t-12 63.5q0 27 5 54.5t16 51.5q41 115 104.5 254t134.5 272q61 0 119.5 3.5t106.5 13.5q25 4 38 23.5t13 41.5q0 25 -16.5 45.5t-51.5 20.5q-29 0 -62.5 -6t-70.5 -6q35 66 60.5 121t25.5 92q0 33 -18.5 46t-46.5 13q-29 0 -43.5 -15.5t-24.5 -33.5 q-25 -47 -51.5 -104.5t-61.5 -124.5q-59 0 -111.5 4t-92.5 4q-35 0 -53.5 -21.5t-18.5 -48.5q0 -23 14 -40t45 -21q63 -6 148 -7l-58 -110q-29 -55 -55 -111q-57 -92 -101 -152.5t-102 -113.5q-30 -28 -30 -61z" />
<glyph unicode="u" horiz-adv-x="1013" d="M-66 246q0 -27 19.5 -46.5t48.5 -21.5q16 0 36.5 16.5t33.5 32.5q-16 -29 -25.5 -62.5t-9.5 -90.5q0 -63 37 -97t82 -34q68 0 126 20.5t104 49t81 59t55 51.5q0 -92 31 -140.5t127 -48.5q37 0 93 30t113.5 73t107.5 90t75 82q12 18 12 35q0 27 -21.5 45t-47.5 18 q-33 0 -54 -28q-23 -31 -63.5 -68t-83.5 -68.5t-80 -54t-51 -22.5q-33 0 -33 57q0 43 20.5 98t49 111.5t61.5 111t58 97.5q16 27 16 55q0 29 -22.5 43t-45.5 14q-35 0 -52 -26.5t-48 -79.5q-78 -129 -149.5 -217t-132 -142.5t-107.5 -79t-74 -24.5q-43 0 -43 51 q0 104 191 430q8 12 10 24.5t2 18.5q0 23 -16.5 36t-51.5 13q-43 0 -63 -43q-20 -41 -54 -84t-74 -85t-83 -80.5t-82 -73.5q-23 -20 -23 -45z" />
<glyph unicode="v" horiz-adv-x="880" d="M-70 246q0 -23 20.5 -39.5t49.5 -16.5t51 15q-6 -41 -6 -80q0 -33 5 -69t18.5 -64.5t35 -48t56.5 -19.5q74 0 175 75t228 247q12 -84 65.5 -113t114.5 -29q45 0 84 16.5t66 39t42 47t15 43.5q0 25 -18.5 41t-44.5 16q-39 0 -66 -33q-16 -20 -35.5 -28t-37.5 -8 q-45 0 -60.5 22.5t-15.5 50.5q0 29 10 56q4 10 12 28.5t18.5 41t20.5 47t19 48.5q14 37 14 72q0 68 -59 68q-55 0 -87 -51.5t-42 -120.5q-53 -84 -111.5 -162t-112 -138.5t-97.5 -97t-67 -36.5q-14 0 -17 14t-3 33q0 51 22.5 146t63.5 214q12 35 30.5 77t18.5 73 q0 33 -16.5 47t-36.5 14q-51 0 -98 -76q-25 -39 -47.5 -82t-46 -85t-50 -82t-59.5 -72q-21 -21 -21 -41z" />
<glyph unicode="w" horiz-adv-x="1318" d="M-66 246q0 -27 19.5 -46.5t48.5 -21.5q16 0 36.5 16.5t33.5 32.5q-16 -29 -25.5 -62.5t-9.5 -90.5q0 -63 37 -97t82 -34q39 0 79.5 14t77.5 34.5t69 45t52 45.5q4 -80 45 -119t88 -39t101.5 24.5t111 68.5t112.5 102.5t105 126.5q12 -84 65.5 -113t115.5 -29 q45 0 83.5 16.5t65.5 39t42 47t15 43.5q0 25 -18 41t-45 16q-39 0 -66 -33q-16 -20 -35.5 -28t-37.5 -8q-45 0 -60.5 22.5t-15.5 50.5q0 12 7 38t15 42q10 25 25.5 59.5t32.5 81.5q14 37 14 72q0 68 -59 68q-55 0 -87 -51.5t-42 -120.5q-53 -84 -111.5 -160t-113 -132 t-99.5 -90t-67 -34q-14 0 -26.5 14.5t-12.5 38.5q0 51 31.5 137t82.5 203q14 33 28.5 74t14.5 72q0 33 -16 47t-37 14q-51 0 -98 -76q-25 -39 -57.5 -108.5t-69.5 -142t-77 -136t-81 -88.5q-53 -33 -84 -33q-23 0 -32 12.5t-9 43.5q0 39 47 142t144 267q8 12 10 24.5t2 18.5 q0 23 -16.5 36t-51.5 13q-43 0 -63 -43q-20 -41 -54 -84t-74 -85t-83 -80.5t-82 -73.5q-23 -20 -23 -45z" />
<glyph unicode="x" horiz-adv-x="983" d="M-66 248q0 -29 20.5 -48.5t47.5 -19.5t47 23q59 68 103.5 117t81 86.5t71.5 65.5t78 50q23 0 39 -50t41 -177q-82 -72 -157 -132.5t-152 -121.5q-25 -18 -25 -49q0 -27 19.5 -47.5t48.5 -20.5q23 0 39 15q66 51 130 103t134 112q6 -37 18 -77t29.5 -72t38 -52.5 t45.5 -20.5q55 0 116.5 31t118 75t103.5 92t71 83q12 18 13 35q0 27 -21.5 43t-48.5 16q-37 0 -57 -28q-10 -14 -42 -45t-71 -63t-76 -55.5t-53 -23.5q-23 0 -39 45t-27 125q66 66 138.5 144.5t154.5 177.5q14 16 15 39q0 29 -20.5 48t-49.5 19q-27 0 -47 -24 q-59 -74 -118.5 -140.5t-112.5 -119.5q-10 53 -23.5 102t-31 88t-42 61.5t-57.5 22.5q-27 0 -51.5 -11.5t-44.5 -23.5q-57 -35 -104.5 -75t-91.5 -84t-88 -93t-93 -104q-17 -18 -17 -41z" />
<glyph unicode="y" horiz-adv-x="942" d="M-66 246q0 -29 19.5 -48.5t48.5 -19.5q20 0 43 19q4 4 15.5 13t15.5 11q-14 -29 -18.5 -64.5t-6.5 -64.5q0 -133 115 -133q66 0 148.5 41t170.5 100q-16 -35 -29.5 -67.5t-29.5 -67.5q-82 -57 -142.5 -119.5t-99.5 -124t-57 -119t-18 -104.5q0 -76 26.5 -104.5 t65.5 -28.5q53 2 83.5 49t59.5 107q41 86 88 175t94 181q68 31 137.5 64.5t133 73.5t115 86t81.5 102q12 20 13 43q0 29 -20.5 46t-45.5 17q-37 0 -57 -35q-12 -20 -45 -50.5t-72 -61.5t-78 -55.5t-63 -32.5q25 53 52.5 112.5t54 116.5t51 109.5t42.5 93.5q18 39 19 67 q0 35 -23.5 48.5t-54.5 13.5q-29 0 -55.5 -34t-59.5 -124q-33 -55 -64.5 -102t-71.5 -89t-89 -80t-115 -71q-53 -27 -82 -26q-39 0 -39 45q0 20 6.5 45.5t16.5 54.5q10 31 28.5 71t38 80.5t40 77.5t34.5 66q14 27 15 59q0 45 -58 45q-25 0 -41 -23.5t-26 -39.5 q-27 -41 -58.5 -77t-68.5 -71.5t-78 -71.5t-84 -79q-21 -20 -21 -45z" />
<glyph unicode="z" horiz-adv-x="827" d="M-61 250q0 -29 19 -50.5t46 -21.5q25 0 43 21q70 70 134.5 137t127 119.5t123 84t119.5 31.5q55 0 55 -59q0 -41 -21.5 -93t-57 -105.5t-85 -102.5t-104.5 -84q-29 33 -71 45t-68 12q-47 0 -81 -34.5t-34 -77.5t31.5 -81t97.5 -38q27 0 47.5 6t26.5 8q8 -33 12 -71 q-123 -117 -186.5 -237t-63.5 -206q0 -53 23.5 -79.5t60.5 -26.5q49 0 99.5 41t91.5 108.5t69.5 155.5t34.5 182q61 51 125.5 96t126 90.5t114 91.5t89.5 97q12 18 12 37q0 29 -19.5 47t-37.5 18q-27 0 -60 -35q-23 -25 -62.5 -57.5t-87.5 -69t-102.5 -76.5t-107.5 -77 q-2 6 -3 11t-3 13q59 37 118.5 96.5t106.5 129t76.5 143.5t29.5 139q0 80 -48 126t-136 46q-84 0 -157.5 -30.5t-145.5 -84t-144.5 -126t-152.5 -158.5q-20 -22 -20 -51z" />
<glyph unicode="{" horiz-adv-x="583" d="M16 662q0 -27 9.5 -52.5t19.5 -40.5q23 -35 36 -64.5t13 -74.5q0 -47 -14 -106q-10 -45 -20.5 -100.5t-10.5 -114.5q0 -74 26.5 -127.5t62.5 -87t73 -49t57 -15.5q35 0 53.5 25.5t18.5 54.5q0 23 -12.5 42t-40.5 30q-47 14 -66.5 47.5t-19.5 85.5q0 37 7 80t19 96 q10 39 13.5 73.5t3.5 63.5q0 84 -21.5 135t-48.5 80q25 10 53.5 33.5t53 60.5t44 90.5t27.5 124.5q31 233 238 285q31 8 44 28.5t13 43.5q0 29 -18.5 53t-53.5 24q-66 0 -128 -33.5t-113 -91t-87 -132t-46 -156.5q-6 -57 -19.5 -90t-29 -54.5t-35 -37t-37.5 -33.5 q-16 -16 -40 -41.5t-24 -54.5z" />
<glyph unicode="|" horiz-adv-x="430" d="M16 -59q0 -31 25 -49.5t53 -18.5q25 0 47.5 15.5t26.5 50.5l205 1396q4 29 7 46.5t3 33.5q0 35 -24.5 54.5t-53.5 19.5q-25 0 -47 -15.5t-27 -50.5l-208 -1431q-7 -28 -7 -51z" />
<glyph unicode="}" horiz-adv-x="583" d="M-37 -100q0 -29 18.5 -53.5t53.5 -24.5q63 0 126.5 33.5t115 91t87 132.5t46.5 157q6 57 20 96t32.5 67.5t39.5 49.5l39 38q8 8 21 19.5t26.5 25t24 28.5t10.5 30q0 27 -11.5 43t-25.5 26q-35 25 -52.5 49.5t-17.5 69.5q0 47 14 107q10 45 20.5 100t10.5 115 q0 74 -26.5 127t-62.5 87t-73 49t-57 15q-35 0 -53.5 -25.5t-18.5 -54.5q0 -23 12.5 -42t41.5 -29q47 -14 66.5 -48t19.5 -85q0 -37 -7.5 -80t-19.5 -96q-10 -39 -13 -74t-3 -64q0 -84 26.5 -125t57.5 -69q-27 -14 -56.5 -41t-57.5 -67t-49.5 -95t-29.5 -127 q-31 -233 -238 -285q-31 -8 -44 -28t-13 -43z" />
<glyph unicode="~" horiz-adv-x="808" d="M49 551q0 -33 21.5 -55.5t50.5 -22.5t53 25q41 41 70.5 66.5t52.5 25.5q25 0 49.5 -16.5t52.5 -36.5q29 -23 65 -41.5t79 -18.5q78 0 144.5 31t109.5 90q16 23 16 45q0 33 -24.5 55.5t-55.5 22.5q-33 0 -55 -29q-51 -63 -117 -63q-37 0 -64.5 18.5t-58.5 40.5 q-29 20 -61.5 36.5t-79.5 16.5q-41 0 -77 -16t-65.5 -37.5t-51 -44t-31.5 -35.5q-23 -24 -23 -57z" />
<glyph unicode="&#xa1;" horiz-adv-x="593" d="M-43 -78q0 -33 24.5 -54.5t55.5 -21.5q16 0 33.5 9.5t27.5 29.5q25 45 63 131t81 190.5t85 215t75.5 204t55 160t21.5 80.5q0 35 -25.5 54.5t-54.5 19.5q-23 0 -41 -11t-28 -38q-49 -135 -96.5 -269.5t-91.5 -256t-88 -226t-87 -180.5q-10 -17 -10 -37zM342 1126 q0 -16 13.5 -38.5t35 -44t49 -37t54.5 -15.5q25 0 46 12.5t36.5 33t24.5 44t9 47.5q0 35 -21.5 63t-70.5 28q-78 0 -127 -31t-49 -62z" />
<glyph unicode="&#xa2;" horiz-adv-x="720" d="M51 416q0 -86 34 -158t103 -113q-23 -41 -36 -76.5t-13 -48.5q0 -29 21.5 -47t48.5 -18q39 0 55 37q12 29 25.5 57.5t25.5 59.5h13q104 0 188 35.5t146.5 81.5t101.5 92.5t53 66.5q12 18 15.5 27.5t3.5 19.5q0 27 -21.5 44.5t-48.5 17.5q-35 0 -55 -31q-18 -29 -49 -62.5 t-73 -65.5t-95.5 -56.5t-118.5 -34.5q57 131 114.5 269t110.5 265q16 -10 37 -43q10 -16 24.5 -24.5t24.5 -8.5q33 0 39 31t6 55q0 35 -24.5 66t-53.5 51q16 35 31.5 68t15.5 53q0 29 -21.5 46.5t-45.5 17.5q-39 0 -58 -39q-10 -25 -22 -51.5t-25 -55.5q-96 0 -182 -48 t-151.5 -124t-104.5 -170t-39 -186zM180 426q0 70 24.5 130t64.5 108.5t92.5 84t107.5 56.5q-53 -131 -111.5 -270.5t-115.5 -268.5q-29 23 -45.5 65t-16.5 95z" />
<glyph unicode="&#xa3;" horiz-adv-x="1157" d="M-158 12q0 -72 47.5 -108.5t130.5 -36.5q76 0 126.5 16.5t105.5 48.5q70 -35 150.5 -61.5t166.5 -26.5q160 0 282 36t214 102q33 25 33 57q0 31 -22.5 55.5t-55.5 24.5q-25 0 -45 -15q-72 -51 -166 -79.5t-240 -28.5q-47 0 -96 13.5t-96 35.5q63 72 124.5 178.5 t123.5 253.5q39 0 96 7.5t96 13.5t55.5 26.5t16.5 44.5q0 29 -23.5 54.5t-64.5 25.5q-25 0 -56.5 -5t-58.5 -9q16 41 30.5 82t26.5 86q27 96 46.5 171t39 127t43 78.5t60.5 26.5q39 0 60.5 -41t21.5 -94q0 -47 -19.5 -90t-60.5 -66q-37 -16 -37 -55q0 -29 24.5 -56.5 t59.5 -27.5q10 0 21.5 4t27.5 15q66 41 98.5 114.5t32.5 155.5q0 55 -14 107.5t-45 94.5t-79 66.5t-116 24.5q-78 0 -127 -49t-80.5 -125t-53 -164t-46.5 -168q-18 -63 -39.5 -119.5t-42.5 -107.5q-41 -4 -85 -5.5t-85 -1.5q-37 0 -56.5 -23.5t-19.5 -51.5q0 -29 19.5 -52.5 t56.5 -23.5q27 0 52.5 1t52.5 1q-61 -137 -115.5 -221t-104.5 -133q-51 25 -100 45t-104 20q-41 0 -75 -14t-58.5 -37t-39 -53.5t-14.5 -63.5z" />
<glyph unicode="&#xa5;" d="M223 -248q0 -33 24.5 -55.5t55.5 -22.5q35 0 57 31q53 74 93.5 138.5t72 123t57 110.5t50.5 101q57 0 115.5 -1t130.5 -1q39 0 57 23.5t18 52.5t-18 52.5t-57 23.5h-164q12 23 25.5 42t27.5 40q47 2 105.5 5t105.5 5q39 2 59.5 27.5t20.5 54.5q0 27 -17.5 48t-54.5 21 q-8 0 -22.5 -1t-30.5 -1q-14 0 -27.5 -1t-19.5 -1q86 100 167 206t143.5 195t100 151.5t37.5 74.5q0 37 -26.5 60.5t-61.5 23.5q-18 0 -36.5 -9t-30.5 -30q-86 -137 -183.5 -284.5t-222.5 -297.5q-29 68 -58.5 155t-59 179t-55.5 182.5t-44 161.5q-8 29 -28.5 43.5 t-43.5 14.5q-29 0 -53 -19.5t-24 -54.5q0 -12 2 -21q14 -61 43.5 -162.5t64.5 -212t69 -213t56 -165.5q-41 0 -105.5 -6.5t-115.5 -8.5q-37 -2 -56.5 -24.5t-19.5 -50.5q0 -29 19.5 -52.5t56.5 -23.5q43 0 80 3t71 3l-30 -55q-33 0 -70 1t-78 1q-39 0 -57.5 -23.5 t-18.5 -52.5t18.5 -52.5t57.5 -23.5h72q-43 -84 -94 -176t-135 -209q-15 -20 -15 -43z" />
<glyph unicode="&#xa6;" horiz-adv-x="272" d="M111 0h71v670h-71v-670zM111 893h71v653h-71v-653z" />
<glyph unicode="&#xa7;" horiz-adv-x="937" d="M94 -221.5q-6 -28.5 19 -57.5q57 -70 125.5 -102.5t137 -35.5t133 21.5t112 70.5t72 112t16.5 143q-6 55 -23.5 97.5t-46.5 74.5q68 14 121 54.5t87 95.5t48 118.5t5 127t-44 119t-98 92.5q-86 49 -151.5 87t-111.5 71.5t-70 68.5t-24 78q0 41 21.5 82t65.5 62.5t110 13 t154 -63.5q31 -20 59.5 -12t44.5 30.5t14 52t-32 52.5q-117 86 -226.5 93t-193.5 -38t-132 -129t-40 -176q6 -68 34.5 -117t69.5 -86q-117 -31 -177 -109.5t-68.5 -170.5t36.5 -182.5t138 -145.5q59 -37 110 -65.5t88 -56.5t58.5 -58.5t21.5 -71.5q0 -61 -29.5 -108.5 t-78 -65.5t-106.5 -3t-116 79q-25 27 -55.5 25.5t-51 -20t-26.5 -47zM268.5 519q14.5 54 66.5 98.5t144 66.5q23 -10 52.5 -24.5t58 -30t52.5 -28.5t34 -19q57 -35 67.5 -95.5t-15.5 -119t-81 -102.5t-129 -44q-39 10 -81 27.5t-77 48.5q-59 49 -82.5 108.5t-9 113.5z" />
<glyph unicode="&#xa8;" horiz-adv-x="593" d="M53 942q0 -29 16.5 -49.5t55.5 -20.5q57 0 92 24t35 50q0 14 -10.5 32.5t-26.5 34t-35.5 26t-38.5 10.5q-41 0 -64.5 -35t-23.5 -72zM367 942q0 -29 16 -49.5t55 -20.5q43 0 87 18.5t44 51.5q0 20 -13 39.5t-31.5 34t-38 24t-31.5 9.5q-41 0 -64.5 -35t-23.5 -72z" />
<glyph unicode="&#xa9;" horiz-adv-x="1136" d="M76 594q0 -84 26.5 -161t80 -137t132 -96t185.5 -36q147 0 256.5 44t182.5 115.5t107.5 161.5t34.5 183q0 86 -29.5 166.5t-87 143t-143.5 100.5t-196 38q-137 0 -240.5 -46t-172.5 -121t-102.5 -168t-33.5 -187zM176 596q0 76 27.5 150.5t84 134t140.5 96.5t197 37 q82 0 147.5 -31t109.5 -80t67.5 -113.5t23.5 -132.5q0 -72 -27.5 -142.5t-85 -125.5t-145.5 -89t-211 -34q-82 0 -143.5 28t-102.5 73t-61.5 104t-20.5 125zM287 618q0 -43 13 -86t41 -76.5t70 -55t97 -21.5q76 0 129 16.5t92 41t65.5 52t49.5 48.5q16 16 16 36t-15.5 37 t-35.5 17q-18 0 -35 -17q-33 -33 -59.5 -56.5t-55 -39.5t-63.5 -24.5t-80 -8.5q-59 0 -93 45t-34 99q0 39 15.5 74.5t40 62t53 43t55.5 16.5q59 0 88 -55q14 -29 43 -29q20 0 36.5 14.5t16.5 36.5q0 10 -6 23q-29 59 -74 86t-94 27t-98 -25t-89 -66.5t-64.5 -97.5 t-24.5 -117z" />
<glyph unicode="&#xaa;" horiz-adv-x="737" d="M70 557q0 -23 18 -42t57 -19h430q39 0 57.5 19.5t18.5 41.5q0 23 -18.5 42t-57.5 19h-430q-39 0 -57 -19t-18 -42zM152 807q0 -23 5 -45.5t17 -39.5t33.5 -27.5t54.5 -10.5q39 0 74 17.5t65 39.5q12 -51 62 -51q57 0 133 46t131 118q8 10 8 23q0 16 -13 28.5t-30 12.5 q-14 0 -30 -17q-16 -23 -41 -45t-50.5 -41.5t-48 -32t-33.5 -12.5q-16 0 -16 18q0 12 6 31q6 16 18.5 35.5t27 40t28.5 42t22.5 40t8.5 37.5q0 39 -47 39q-20 0 -37 -17.5t-30 -42t-23.5 -51.5t-16.5 -45q-35 -53 -77 -94t-83 -41q-23 0 -32 15.5t-9 37.5q0 20 11.5 68.5 t49.5 97.5t110.5 86t195.5 37q18 0 27.5 10t9.5 25q0 16 -10.5 28.5t-30.5 12.5q-135 0 -220 -42t-134.5 -100.5t-67.5 -122t-18 -108.5z" />
<glyph unicode="&#xab;" horiz-adv-x="1146" d="M29 514q0 -59 54 -118.5t131 -116t159 -108.5t137 -95q12 -10 31 -10q23 0 38 16t15 37q0 25 -23 39q-57 37 -131.5 84t-142.5 95t-114 91t-46 70q0 18 32 42.5t83 54.5t115.5 60.5t131 60t127 57.5t105.5 48q27 12 27 39q0 18 -16.5 35.5t-39.5 17.5q-12 0 -24 -6 q-41 -18 -105.5 -45.5t-136 -60.5t-144.5 -70t-131.5 -75t-95 -74.5t-36.5 -67.5zM426 461q0 -49 57.5 -100.5t138 -102.5t165.5 -99t141 -91q12 -10 30 -11q23 0 38.5 16.5t15.5 37.5q0 25 -23 39q-39 25 -86 52t-96 57t-96 59.5t-84 55t-59.5 47t-22.5 34.5 q0 18 30.5 42.5t81 52.5t114 57.5t129 58t125.5 55.5t103 47q27 12 27 39q0 18 -16.5 35.5t-38.5 17.5q-12 0 -25 -6q-41 -18 -105.5 -46t-136 -60.5t-144.5 -69.5t-131 -75t-95 -74.5t-37 -67.5z" />
<glyph unicode="&#xac;" horiz-adv-x="583" d="M8 600q0 -23 19.5 -28t54.5 -5h430q37 0 55.5 7.5t18.5 29.5q0 39 -74 39h-430q-41 0 -57.5 -9t-16.5 -34zM72 53q0 -41 25.5 -66.5t66.5 -25.5q76 0 112.5 46t36.5 97q0 39 -14 68t-27 47q70 53 110 93t60 102q2 8 3 10t1 6q0 12 -10 20.5t-22 8.5q-20 0 -27 -21 q-12 -35 -27.5 -57.5t-35 -40.5t-42 -34.5t-46.5 -37.5q-29 37 -51.5 69t-22.5 60q0 25 27.5 53.5t101.5 28.5q27 0 43 -2t31 -6q10 -4 12 -4h6q14 0 23.5 10t9.5 23q0 18 -21 24q-10 4 -40.5 9.5t-67.5 5.5q-55 0 -91 -14.5t-57.5 -37t-31 -49t-9.5 -49.5q0 -47 29 -86 t59 -74q-63 -53 -88.5 -92t-25.5 -84zM127 55q0 23 21.5 52.5t76.5 76.5q14 -16 20.5 -31.5t6.5 -37.5q0 -35 -20.5 -63.5t-61.5 -28.5q-43 -1 -43 32zM301 698q0 -12 10.5 -20t22.5 -8q20 0 26 18q18 49 39 109.5t42.5 127t48 135t57.5 130.5q0 14 -14.5 21.5t-26.5 7.5 q-16 0 -29.5 -16.5t-30 -36t-39 -36t-55.5 -16.5q-18 0 -24 -8t-6 -19q0 -12 9 -22t25 -10q10 0 35 9t43 19q-41 -104 -71.5 -202.5t-57.5 -163.5q-4 -11 -4 -19z" />
<glyph unicode="&#xad;" horiz-adv-x="716" d="M68 522q0 -29 19 -52.5t56 -23.5h430q37 0 56.5 24t19.5 52q0 29 -19.5 52.5t-56.5 23.5h-430q-37 0 -56 -23.5t-19 -52.5z" />
<glyph unicode="&#xae;" horiz-adv-x="987" d="M236 1071q0 -59 18 -113.5t55 -95.5t93.5 -66.5t129.5 -25.5q104 0 180 30.5t127.5 81t76 113t24.5 127.5q0 59 -20.5 115.5t-61.5 100.5t-101.5 71t-138.5 27q-96 0 -167.5 -32t-119.5 -84t-71.5 -117.5t-23.5 -131.5zM305 1071q0 53 19.5 105.5t58.5 94.5t98.5 67.5 t136.5 25.5q57 0 103.5 -21.5t77 -56.5t47 -80t16.5 -92q0 -51 -19.5 -100t-59.5 -87t-101 -61.5t-147 -23.5q-57 0 -100.5 18.5t-72 50t-43 73.5t-14.5 87zM397 946q0 -16 11.5 -24.5t25.5 -8.5q27 0 33 27q10 43 16 83t12.5 75t13.5 61.5t21 42.5q27 33 78 33 q31 0 44.5 -13.5t13.5 -33.5q0 -23 -25 -35t-63 -16q-12 -2 -26.5 -12.5t-19.5 -26.5v-17q0 -47 30 -100t77 -96q10 -10 17.5 -12.5t11.5 -2.5q16 0 26.5 11.5t10.5 25.5t-13 25q-82 70 -92 143q23 0 47.5 6t45 19.5t33.5 34t13 51.5q0 66 -41 92.5t-92 26.5 q-37 0 -72.5 -13.5t-54.5 -38.5q-18 -23 -30.5 -56.5t-19.5 -72.5t-13 -77.5t-15 -71.5q-4 -21 -4 -29z" />
<glyph unicode="&#xaf;" horiz-adv-x="583" d="M18 1038q0 -33 25 -44t68 -11h368q90 0 90 55q0 57 -88 58h-375q-88 -1 -88 -58z" />
<glyph unicode="&#xb0;" horiz-adv-x="532" d="M180 1118q0 -49 31 -81.5t108 -32.5q12 0 25 4q4 -16 18.5 -28.5t32.5 -12.5q16 0 29 10q51 29 73.5 68.5t22.5 80.5q0 33 -14 65t-37 55.5t-54.5 37.5t-64.5 14q-41 0 -72.5 -16t-53 -43t-33 -58.5t-11.5 -62.5zM281 1126q0 39 25.5 56.5t41.5 17.5q29 0 52.5 -22.5 t23.5 -51.5q0 -35 -23.5 -47t-38.5 -20q-4 16 -18 27.5t-37 11.5q-26 -1 -26 28z" />
<glyph unicode="&#xb2;" horiz-adv-x="614" d="M98 719q0 -23 16.5 -41.5t49.5 -18.5t57.5 14.5t46.5 28.5q29 -12 63 -25t75 -13q53 0 86.5 10t87.5 47q12 12 12 24t-9.5 22.5t-21.5 10.5q-8 0 -22 -10q-39 -25 -63.5 -35t-67.5 -10q-23 0 -42.5 5t-41.5 13q39 29 74.5 57.5t62.5 51.5q25 23 53.5 48.5t54 55t42 67.5 t16.5 85q0 66 -41 100.5t-101 34.5q-39 0 -68.5 -11t-50 -28.5t-32.5 -35t-17 -29.5q-4 -8 -4 -23q0 -29 29 -29q18 0 27 21q10 23 35.5 48.5t80.5 25.5q39 0 60.5 -16.5t21.5 -57.5q0 -68 -46 -115t-101 -94q-29 -27 -76 -63.5t-88 -65.5q-43 16 -86 16q-35 0 -53.5 -20 t-18.5 -45z" />
<glyph unicode="&#xb3;" horiz-adv-x="614" d="M168 805q0 -53 46 -90t103 -37q104 0 166 57.5t62 155.5q0 45 -7.5 62.5t-13.5 27.5q37 27 53.5 64.5t16.5 72.5q0 51 -34 90t-91 39q-61 0 -101 -29.5t-55 -54.5q-4 -10 -5 -13t-1 -7q0 -12 10.5 -21.5t22.5 -9.5q18 0 24.5 16.5t34 37t66.5 20.5q33 0 50 -19.5 t17 -48.5q0 -61 -51 -94q-31 16 -67 16q-41 0 -59.5 -16t-18.5 -35q0 -16 15.5 -30.5t43.5 -14.5q16 0 35 2t39 8q4 -8 9 -27.5t5 -35.5q0 -63 -47 -107.5t-119 -44.5q-39 0 -64.5 23.5t-25.5 46.5q6 6 6 16q0 23 -30 23q-20 0 -27.5 -13.5t-7.5 -29.5z" />
<glyph unicode="&#xb4;" horiz-adv-x="430" d="M59 901q0 -23 14.5 -37t37.5 -14q8 0 15 2t17 10q37 25 65 46.5t53.5 42t51 38t54.5 29.5q31 14 30 45q0 20 -13 36.5t-34 16.5q-12 0 -31 -8q-72 -31 -123 -76t-114 -88q-23 -14 -23 -43z" />
<glyph unicode="&#xb5;" horiz-adv-x="681" d="M25 23q0 -23 16 -41.5t49 -18.5t57.5 14.5t47.5 28.5q29 -12 62.5 -25.5t74.5 -13.5q53 0 87 10.5t87 47.5q12 12 12 24t-9 22.5t-22 10.5q-8 0 -22 -10q-39 -25 -63.5 -35t-67.5 -10q-23 0 -42.5 5t-41.5 13q39 29 74.5 57.5t62.5 51.5q25 23 53.5 48t54 55t42 67.5 t16.5 85.5q0 66 -41 100.5t-100 34.5q-39 0 -69 -11.5t-50.5 -29t-32.5 -34.5t-16 -30q-4 -8 -4 -22q0 -29 28 -29q18 0 27 21q10 23 35.5 48t81.5 25q39 0 60.5 -16t21.5 -57q0 -68 -46.5 -115t-101.5 -94q-29 -27 -76 -64t-88 -65q-43 16 -86 16q-35 0 -53 -20t-18 -45z M141 600q0 -23 19.5 -28t54.5 -5h430q37 0 55.5 7.5t18.5 29.5q0 39 -74 39h-430q-41 0 -57.5 -9t-16.5 -34zM403 698q0 -12 10.5 -20t22.5 -8q20 0 27 18q18 49 38.5 109.5t42 127t48 135t57.5 130.5q0 14 -14 21.5t-27 7.5q-16 0 -29.5 -16.5t-30 -36t-39 -36t-54.5 -16.5 q-18 0 -24.5 -8t-6.5 -19q0 -12 9 -22t26 -10q10 0 34.5 9t43.5 19q-41 -104 -72 -202.5t-57 -163.5q-5 -11 -5 -19z" />
<glyph unicode="&#xb6;" horiz-adv-x="757" d="M-193 918q0 -90 35 -166t100.5 -131.5t158 -88t206.5 -38.5q-39 -84 -76.5 -166t-71.5 -158t-62.5 -142.5t-49.5 -117.5q-14 -35 -19 -56.5t-5 -39.5q0 -23 14 -39.5t43 -16.5q63 4 98 67.5t88 172t115.5 239t127 270.5t119 264t95.5 222.5t55 143.5q10 29 12.5 38 t2.5 15q0 35 -26 55.5t-54 20.5q-20 0 -39 -11.5t-29 -37.5l-12 -31q-8 -20 -21 -49q-27 51 -67.5 88t-88.5 59.5t-101.5 32.5t-106.5 10q-98 0 -180 -30.5t-139.5 -85t-89.5 -130t-32 -163.5zM-39 928q0 111 76 181.5t209 70.5q47 0 93 -11.5t83 -37t59.5 -69.5t22.5 -108 v-26q0 -14 -4 -31q-29 -59 -59.5 -122.5t-61.5 -129.5h-45q-98 0 -169 22.5t-116 61.5t-66.5 90.5t-21.5 108.5zM285 -223q0 -35 25.5 -54.5t54.5 -19.5q47 0 67 51q20 55 66.5 160.5t103.5 235t121.5 269.5t123 267t104.5 226.5t69 146.5q14 29 17 40t3 19q0 33 -26.5 54.5 t-57.5 21.5q-18 0 -35.5 -10t-27.5 -33q-25 -55 -74 -158.5t-108.5 -231.5t-125 -268.5t-121.5 -266.5t-100.5 -227t-60.5 -153q-8 -23 -13 -43t-5 -26z" />
<glyph unicode="&#xb7;" horiz-adv-x="296" d="M78 514q0 -35 21.5 -62.5t70.5 -27.5q78 0 127 30.5t49 61.5q0 16 -13.5 39t-35 44.5t-49 36.5t-53.5 15q-25 0 -46.5 -12t-37 -32.5t-24.5 -44t-9 -48.5z" />
<glyph unicode="&#x2219;" horiz-adv-x="296" d="M78 514q0 -35 21.5 -62.5t70.5 -27.5q78 0 127 30.5t49 61.5q0 16 -13.5 39t-35 44.5t-49 36.5t-53.5 15q-25 0 -46.5 -12t-37 -32.5t-24.5 -44t-9 -48.5z" />
<glyph unicode="&#xb8;" horiz-adv-x="471" d="M41 -289q0 -29 27 -43q68 -39 141 -39q111 0 167 66.5t56 161.5q0 47 -18.5 89t-53.5 72q-16 12 -32 13q-23 0 -37.5 -15.5t-14.5 -38.5q0 -18 19 -36q16 -12 25.5 -37t9.5 -54q0 -53 -34 -84.5t-85 -31.5q-43 0 -88 20q-18 10 -37 10q-16 0 -30.5 -16.5t-14.5 -36.5z " />
<glyph unicode="&#xb9;" horiz-adv-x="595" d="M313 698q0 -12 10.5 -20t22.5 -8q20 0 27 18q18 49 38.5 109.5t42 127t48 135t57.5 130.5q0 14 -14.5 21.5t-26.5 7.5q-16 0 -29.5 -16.5t-30 -36t-39 -36t-54.5 -16.5q-18 0 -24.5 -8t-6.5 -19q0 -12 9 -22t26 -10q10 0 34.5 9t42.5 19q-41 -104 -71.5 -202.5 t-57.5 -163.5q-4 -11 -4 -19z" />
<glyph unicode="&#xba;" horiz-adv-x="737" d="M37 557q0 -23 18.5 -42t57.5 -19h430q39 0 57 19.5t18 41.5q0 23 -18 42t-57 19h-430q-39 0 -57.5 -19t-18.5 -42zM156 874q0 -86 48 -131t113 -45q78 0 132.5 40t91.5 93q8 -4 16 -4h16q51 0 82 20.5t31 43.5q0 16 -12 25.5t-25 9.5q-12 0 -21.5 -4t-17.5 -9 q-8 -6 -22 -6q23 47 22 94q0 33 -15 58.5t-56 42.5q-4 0 -6.5 1t-6.5 1q4 8 4 16q0 29 -36.5 39t-71.5 10q-72 0 -122 -30.5t-82 -75.5t-47 -96.5t-15 -92.5zM233 874q0 43 14.5 82t40 69t59.5 47.5t73 17.5q16 0 26 -3q-53 -33 -53 -96q0 -49 24.5 -80.5t49.5 -46.5 q-41 -53 -79 -70.5t-75 -17.5q-39 0 -59.5 27.5t-20.5 70.5zM471 991q0 35 31 35q29 0 28 -29q0 -35 -20 -69q-23 16 -31 32.5t-8 30.5z" />
<glyph unicode="&#xbb;" horiz-adv-x="1146" d="M94 217q0 -18 16.5 -35.5t39.5 -17.5q12 0 24 6q41 18 105.5 46t136 60.5t144.5 69.5t131.5 75t95 73.5t36.5 68.5q0 49 -57 100.5t-138 102.5t-166 99t-140 91q-12 10 -31 11q-23 0 -38 -16.5t-15 -37.5q0 -25 22 -39q57 -37 133 -81.5t145.5 -87.5t118 -80t48.5 -56 q0 -18 -31 -42.5t-81 -52.5t-113.5 -57.5t-129 -58t-125 -55.5t-104.5 -47q-27 -12 -27 -39zM492 164q0 -18 16 -35.5t39 -17.5q12 0 24 6q41 18 105.5 45.5t136.5 60.5t144.5 70t131 75t95.5 73.5t37 68.5q0 59 -54.5 118.5t-131.5 116t-158.5 108.5t-137.5 95 q-12 10 -30 10q-23 0 -38.5 -16t-15.5 -37q0 -25 23 -39q57 -37 132 -84t142.5 -95t113.5 -91t46 -70q0 -18 -31.5 -42.5t-83 -54.5t-116 -60.5t-131 -60t-127 -57.5t-105.5 -48q-26 -12 -26 -39z" />
<glyph unicode="&#xbc;" horiz-adv-x="681" d="M63 156q0 -16 14.5 -29.5t45.5 -13.5q27 0 61 20q33 -8 74 -20.5t88 -22.5q-4 -23 -10 -45t-10 -49v-6q0 -14 9 -21.5t21 -7.5q23 0 29 25q6 27 11 49t10 45q12 -2 22 -2h23q33 0 63 6q23 6 23 29q0 10 -7.5 20t-21.5 10h-8q-23 -6 -45 -6q-20 0 -31 2q18 61 38.5 113.5 t39 92.5t31 65.5t14.5 29.5q4 12 4 15q0 12 -10.5 20t-22.5 8q-18 0 -26 -18q-14 -27 -28.5 -54.5t-30 -64.5t-32 -85t-36.5 -111q-33 8 -64 17t-59 17q31 35 59.5 79t53 88t43 85t28.5 70v10q0 14 -9 21.5t-22 7.5q-20 0 -26 -21q-10 -27 -32 -70.5t-50.5 -92t-59 -92.5 t-55.5 -70q-10 2 -23.5 5t-29.5 3q-25 0 -40.5 -16.5t-15.5 -34.5zM119 600q0 -23 19.5 -28t54.5 -5h430q37 0 55 7.5t18 29.5q0 39 -73 39h-430q-41 0 -57.5 -9t-16.5 -34zM412 698q0 -12 10 -20t22 -8q20 0 27 18q18 49 38.5 109.5t42 127t48.5 135t57 130.5 q0 14 -14 21.5t-27 7.5q-16 0 -29.5 -16.5t-29.5 -36t-38.5 -36t-55.5 -16.5q-18 0 -24.5 -8t-6.5 -19q0 -12 9.5 -22t25.5 -10q10 0 34.5 9t43.5 19q-41 -104 -72 -202.5t-57 -163.5q-4 -11 -4 -19z" />
<glyph unicode="&#xbd;" horiz-adv-x="681" d="M25 23q0 -23 16 -41.5t49 -18.5t57.5 14.5t47.5 28.5q29 -12 62.5 -25.5t74.5 -13.5q53 0 87 10.5t87 47.5q12 12 12 24t-9 22.5t-22 10.5q-8 0 -22 -10q-39 -25 -63.5 -35t-67.5 -10q-23 0 -42.5 5t-41.5 13q39 29 74.5 57.5t62.5 51.5q25 23 53.5 48t54 55t42 67.5 t16.5 85.5q0 66 -41 100.5t-100 34.5q-39 0 -69 -11.5t-50.5 -29t-32.5 -34.5t-16 -30q-4 -8 -4 -22q0 -29 28 -29q18 0 27 21q10 23 35.5 48t81.5 25q39 0 60.5 -16t21.5 -57q0 -68 -46.5 -115t-101.5 -94q-29 -27 -76 -64t-88 -65q-43 16 -86 16q-35 0 -53 -20t-18 -45z M141 600q0 -23 19.5 -28t54.5 -5h430q37 0 55.5 7.5t18.5 29.5q0 39 -74 39h-430q-41 0 -57.5 -9t-16.5 -34zM403 698q0 -12 10.5 -20t22.5 -8q20 0 27 18q18 49 38.5 109.5t42 127t48 135t57.5 130.5q0 14 -14 21.5t-27 7.5q-16 0 -29.5 -16.5t-30 -36t-39 -36t-54.5 -16.5 q-18 0 -24.5 -8t-6.5 -19q0 -12 9 -22t26 -10q10 0 34.5 9t43.5 19q-41 -104 -72 -202.5t-57 -163.5q-5 -11 -5 -19z" />
<glyph unicode="&#xbe;" horiz-adv-x="681" d="M55 162q0 -16 14.5 -29.5t45.5 -13.5q27 0 61 20q33 -8 74 -20.5t88 -22.5q-4 -23 -10 -45t-11 -49v-6q0 -14 9.5 -21.5t21.5 -7.5q23 0 29 25q6 27 11 49t9 45q12 -2 23 -2h22q33 0 64 6q23 6 22 29q0 10 -7 20.5t-21 10.5h-8q-23 -6 -46 -7q-20 0 -30 2 q18 61 38.5 113.5t39 92.5t31 65.5t14.5 29.5q4 12 4 15q0 12 -10.5 20t-22.5 8q-18 0 -27 -18q-14 -27 -28.5 -54.5t-29.5 -64.5t-31.5 -85t-37.5 -111q-33 8 -63.5 17t-59.5 17q31 35 60 79t53.5 88t43 85t28.5 70v10q0 14 -9.5 21.5t-21.5 7.5q-20 0 -27 -21 q-10 -27 -31.5 -70.5t-50 -92t-59.5 -92.5t-55 -70q-10 2 -23.5 5t-29.5 3q-25 0 -40.5 -16.5t-15.5 -34.5zM119 618q0 -23 19.5 -27.5t54.5 -4.5h430q37 0 55 7t18 30q0 39 -73 39h-430q-41 0 -57.5 -9.5t-16.5 -34.5zM266 805q0 -53 46 -90t104 -37q104 0 165.5 57.5 t61.5 155.5q0 45 -7 62.5t-13 27.5q37 27 53 64.5t16 72.5q0 51 -33.5 90t-91.5 39q-61 0 -101 -29.5t-54 -54.5q-4 -10 -5 -13t-1 -7q0 -12 10 -21.5t22 -9.5q18 0 24.5 16.5t34 37t66.5 20.5q33 0 50.5 -19.5t17.5 -48.5q0 -61 -51 -94q-31 16 -68 16q-41 0 -59.5 -16 t-18.5 -35q0 -16 15.5 -30.5t44.5 -14.5q16 0 34.5 2t38.5 8q4 -8 9.5 -27.5t5.5 -35.5q0 -63 -47.5 -107.5t-118.5 -44.5q-39 0 -64.5 23.5t-25.5 46.5q6 6 6 16q0 23 -31 23q-20 0 -27.5 -13.5t-7.5 -29.5z" />
<glyph unicode="&#xbf;" horiz-adv-x="962" d="M39 143q0 -63 21.5 -120.5t66.5 -101.5t113.5 -69.5t162.5 -25.5q82 0 150 22.5t120 59.5t90 83t64 95q10 18 11 39q0 33 -25 54.5t-53 21.5q-41 0 -64 -37q-27 -43 -52.5 -77t-58 -57.5t-76.5 -35.5t-108 -12q-98 0 -146 49t-48 119q0 152 139 204q96 39 165 78 t120 92.5t91 125t79 173.5q6 14 6 31q0 33 -24.5 52.5t-53.5 19.5q-20 0 -38.5 -10.5t-28.5 -34.5q-49 -104 -85 -166t-79 -102t-100.5 -68.5t-147.5 -69.5q-211 -94 -211 -332zM662 1135q0 -16 13 -39t34.5 -44.5t49 -37t54.5 -15.5q25 0 46.5 12.5t36.5 33t24.5 44 t9.5 48.5q0 35 -21.5 62.5t-70.5 27.5q-78 0 -127 -30.5t-49 -61.5z" />
<glyph unicode="&#xc0;" horiz-adv-x="993" d="M-66 623q0 -29 18.5 -51.5t55.5 -22.5q55 0 104.5 -5t96.5 -16q-59 -117 -110.5 -241.5t-90.5 -266.5q-2 -6 -3 -12t-1 -16q0 -37 25.5 -52.5t54.5 -15.5q23 0 43 13.5t29 42.5q39 141 90 266t110 235q145 -66 230.5 -163t113.5 -189q-8 -29 -12 -55.5t-4 -61.5 q0 -55 30.5 -73.5t65.5 -18.5t60.5 19.5t25.5 62.5q0 35 -3 66.5t-9 66.5q31 178 79 343t94 302.5t80 238.5t34 148q0 86 -48.5 124t-113.5 38q-51 0 -104.5 -20.5t-96.5 -55.5q-141 -117 -261 -264t-230 -327q-63 16 -132 27t-143 11q-39 0 -58.5 -24t-19.5 -53zM430 608 q104 164 211 300t207 227q43 39 69.5 48t43.5 9q31 0 30 -41q0 -37 -24.5 -109.5t-61.5 -174t-80 -229.5t-77 -276q-55 74 -135.5 137.5t-182.5 108.5zM774 1583q0 -31 29 -47q47 -27 106.5 -69t120.5 -91q14 -12 37 -12q20 0 30.5 16.5t10.5 38.5q0 25 -21 43 q-61 49 -116.5 91t-126.5 77q-12 6 -27 6q-23 0 -33 -16.5t-10 -36.5z" />
<glyph unicode="&#xc1;" horiz-adv-x="993" d="M-66 623q0 -29 18.5 -51.5t55.5 -22.5q55 0 104.5 -5t96.5 -16q-59 -117 -110.5 -241.5t-90.5 -266.5q-2 -6 -3 -12t-1 -16q0 -37 25.5 -52.5t54.5 -15.5q23 0 43 13.5t29 42.5q39 141 90 266t110 235q145 -66 230.5 -163t113.5 -189q-8 -29 -12 -55.5t-4 -61.5 q0 -55 30.5 -73.5t65.5 -18.5t60.5 19.5t25.5 62.5q0 35 -3 66.5t-9 66.5q31 178 79 343t94 302.5t80 238.5t34 148q0 86 -48.5 124t-113.5 38q-51 0 -104.5 -20.5t-96.5 -55.5q-141 -117 -261 -264t-230 -327q-63 16 -132 27t-143 11q-39 0 -58.5 -24t-19.5 -53zM430 608 q104 164 211 300t207 227q43 39 69.5 48t43.5 9q31 0 30 -41q0 -37 -24.5 -109.5t-61.5 -174t-80 -229.5t-77 -276q-55 74 -135.5 137.5t-182.5 108.5zM858 1425q0 -23 14.5 -40t36.5 -17q12 0 29 10q37 27 65.5 50.5t55 43t52.5 37t54 29.5q31 14 31 45q0 20 -13.5 36.5 t-35.5 16.5q-23 0 -60.5 -22.5t-77.5 -51t-75 -57t-53 -41.5q-23 -14 -23 -39z" />
<glyph unicode="&#xc2;" horiz-adv-x="993" d="M-66 623q0 -29 18.5 -51.5t55.5 -22.5q55 0 104.5 -5t96.5 -16q-59 -117 -110.5 -241.5t-90.5 -266.5q-2 -6 -3 -12t-1 -16q0 -37 25.5 -52.5t54.5 -15.5q23 0 43 13.5t29 42.5q39 141 90 266t110 235q145 -66 230.5 -163t113.5 -189q-8 -29 -12 -55.5t-4 -61.5 q0 -55 30.5 -73.5t65.5 -18.5t60.5 19.5t25.5 62.5q0 35 -3 66.5t-9 66.5q31 178 79 343t94 302.5t80 238.5t34 148q0 86 -48.5 124t-113.5 38q-51 0 -104.5 -20.5t-96.5 -55.5q-141 -117 -261 -264t-230 -327q-63 16 -132 27t-143 11q-39 0 -58.5 -24t-19.5 -53zM430 608 q104 164 211 300t207 227q43 39 69.5 48t43.5 9q31 0 30 -41q0 -37 -24.5 -109.5t-61.5 -174t-80 -229.5t-77 -276q-55 74 -135.5 137.5t-182.5 108.5zM731 1372q0 -23 15.5 -38t33.5 -15q23 0 39 22q18 25 41 50.5t44.5 48t37.5 39t25 20.5q20 -10 56 -47t71 -90 q14 -23 39 -23q23 0 39 15.5t16 38.5q0 12 -8 26q-47 70 -83 102.5t-63 55.5q-16 14 -32.5 18t-38.5 4q-25 0 -47.5 -12t-43.5 -31q-31 -29 -60.5 -68.5t-63.5 -76.5q-17 -16 -17 -39z" />
<glyph unicode="&#xc3;" horiz-adv-x="993" d="M-66 623q0 -29 18.5 -51.5t55.5 -22.5q55 0 104.5 -5t96.5 -16q-59 -117 -110.5 -241.5t-90.5 -266.5q-2 -6 -3 -12t-1 -16q0 -37 25.5 -52.5t54.5 -15.5q23 0 43 13.5t29 42.5q39 141 90 266t110 235q145 -66 230.5 -163t113.5 -189q-8 -29 -12 -55.5t-4 -61.5 q0 -55 30.5 -73.5t65.5 -18.5t60.5 19.5t25.5 62.5q0 35 -3 66.5t-9 66.5q31 178 79 343t94 302.5t80 238.5t34 148q0 86 -48.5 124t-113.5 38q-51 0 -104.5 -20.5t-96.5 -55.5q-141 -117 -261 -264t-230 -327q-63 16 -132 27t-143 11q-39 0 -58.5 -24t-19.5 -53zM430 608 q104 164 211 300t207 227q43 39 69.5 48t43.5 9q31 0 30 -41q0 -37 -24.5 -109.5t-61.5 -174t-80 -229.5t-77 -276q-55 74 -135.5 137.5t-182.5 108.5zM645 1419q0 -20 14.5 -33.5t34.5 -13.5q23 0 39 17q39 37 72 67.5t67 30.5q27 0 50.5 -19.5t46.5 -35.5 q27 -23 62.5 -40.5t80.5 -17.5q158 0 242 113q12 18 12 33q0 23 -15.5 36t-35.5 13q-25 0 -43 -21q-31 -35 -63.5 -53t-73.5 -18q-35 0 -63 18t-50 35q-29 20 -59.5 39.5t-90.5 19.5q-43 0 -76.5 -14t-58 -34.5t-43.5 -42.5l-30 -36q-19 -23 -19 -43z" />
<glyph unicode="&#xc4;" horiz-adv-x="993" d="M-66 623q0 -29 18.5 -51.5t55.5 -22.5q55 0 104.5 -5t96.5 -16q-59 -117 -110.5 -241.5t-90.5 -266.5q-2 -6 -3 -12t-1 -16q0 -37 25.5 -52.5t54.5 -15.5q23 0 43 13.5t29 42.5q39 141 90 266t110 235q145 -66 230.5 -163t113.5 -189q-8 -29 -12 -55.5t-4 -61.5 q0 -55 30.5 -73.5t65.5 -18.5t60.5 19.5t25.5 62.5q0 35 -3 66.5t-9 66.5q31 178 79 343t94 302.5t80 238.5t34 148q0 86 -48.5 124t-113.5 38q-51 0 -104.5 -20.5t-96.5 -55.5q-141 -117 -261 -264t-230 -327q-63 16 -132 27t-143 11q-39 0 -58.5 -24t-19.5 -53zM430 608 q104 164 211 300t207 227q43 39 69.5 48t43.5 9q31 0 30 -41q0 -37 -24.5 -109.5t-61.5 -174t-80 -229.5t-77 -276q-55 74 -135.5 137.5t-182.5 108.5zM711 1419q0 -29 16 -49t55 -20q55 0 89 21.5t34 47.5q0 27 -13 47.5t-30.5 33.5t-35 19.5t-27.5 6.5q-41 0 -64.5 -35 t-23.5 -72zM1024 1419q0 -29 16.5 -49t55.5 -20q12 0 33.5 4t41 11t35 19.5t15.5 28.5q0 29 -13.5 50.5t-31 34.5t-36 20.5t-28.5 7.5q-41 0 -64.5 -35t-23.5 -72z" />
<glyph unicode="&#xc5;" horiz-adv-x="993" d="M-66 623q0 -29 18.5 -51.5t55.5 -22.5q55 0 104.5 -5t96.5 -16q-59 -117 -110.5 -241.5t-90.5 -266.5q-2 -6 -3 -12t-1 -16q0 -37 25.5 -52.5t54.5 -15.5q23 0 43 13.5t29 42.5q39 141 90 266t110 235q145 -66 230.5 -163t113.5 -189q-8 -29 -12 -55.5t-4 -61.5 q0 -55 30.5 -73.5t65.5 -18.5t60.5 19.5t25.5 62.5q0 35 -3 66.5t-9 66.5q31 178 79 343t94 302.5t80 238.5t34 148q0 86 -48.5 124t-113.5 38q-51 0 -104.5 -20.5t-96.5 -55.5q-141 -117 -261 -264t-230 -327q-63 16 -132 27t-143 11q-39 0 -58.5 -24t-19.5 -53zM430 608 q104 164 211 300t207 227q43 39 69.5 48t43.5 9q31 0 30 -41q0 -37 -24.5 -109.5t-61.5 -174t-80 -229.5t-77 -276q-55 74 -135.5 137.5t-182.5 108.5zM872 1462q0 -49 31 -81.5t109 -32.5q12 0 24 4q4 -16 18.5 -28.5t32.5 -12.5q16 0 29 10q51 29 73.5 69t22.5 80 q0 33 -14 65t-36.5 55.5t-54.5 37.5t-65 14q-41 0 -72.5 -16t-53 -43t-33 -58.5t-11.5 -62.5zM973 1470q0 39 25.5 56.5t41.5 17.5q29 0 52.5 -22.5t23.5 -51.5q0 -35 -23.5 -47t-37.5 -20q-4 16 -18.5 27.5t-37.5 11.5q-26 -1 -26 28z" />
<glyph unicode="&#xc6;" horiz-adv-x="1525" d="M-66 623q0 -29 18.5 -51.5t55.5 -22.5q55 0 104.5 -5t96.5 -16q-59 -117 -110.5 -241.5t-90.5 -266.5q-2 -6 -3 -12t-1 -16q0 -37 25.5 -52.5t54.5 -15.5q23 0 43 13.5t29 42.5q39 141 90 266t110 235q145 -66 230.5 -163t113.5 -189q-8 -29 -12 -55.5t-4 -61.5 q0 -55 30.5 -73.5t65.5 -18.5q47 0 72 31q35 -12 77 -19.5t91 -7.5q164 0 306 68.5t237 187.5q18 25 23 39t5 25q0 33 -24.5 55.5t-55.5 22.5q-14 0 -30.5 -9.5t-40.5 -40.5q-72 -92 -181.5 -144t-238.5 -52q-104 0 -150.5 46t-46.5 105q0 113 60.5 175.5t173.5 111.5 q39 16 60.5 40t21.5 52q0 35 -39 80q-35 35 -49.5 66.5t-14.5 62.5q0 70 47 137.5t112 120.5t133.5 85t111.5 32q16 0 24.5 -3t8.5 -18q0 -33 -55.5 -74.5t-153.5 -103.5q-27 -16 -36 -36.5t-9 -39.5q0 -27 20.5 -45t50.5 -18q31 0 62 18q123 78 203.5 161t80.5 177 q0 76 -52 101.5t-132 25.5q-66 0 -150.5 -31.5t-166.5 -91.5q-16 66 -59.5 91.5t-96.5 25.5q-66 0 -147.5 -44t-172 -128t-185.5 -209t-187 -286q-63 16 -132 27t-143 11q-39 0 -58.5 -24t-19.5 -53zM428 612q55 104 129 205t147.5 178.5t141 124.5t112.5 47q33 0 33 -34 q0 -16 -4 -33t-14 -39q-43 -55 -68.5 -117.5t-25.5 -132.5q0 -43 15 -92t56 -101q-96 -43 -154.5 -108.5t-78.5 -108.5q-55 61 -128 116.5t-161 94.5z" />
<glyph unicode="&#xc7;" horiz-adv-x="972" d="M-51 311q0 -84 22.5 -154.5t67.5 -123.5t113.5 -87t162.5 -42v-37q-4 -35 -27.5 -60.5t-92.5 -25.5q-25 0 -50.5 2t-46.5 2q-53 0 -53 -74q-2 -47 31 -67.5t84 -20.5q90 0 150.5 14.5t97 48t52 89t19.5 137.5q88 18 166 61t141.5 96.5t107.5 112t67 105.5q12 27 15 38 t3 19q0 29 -21.5 48.5t-48.5 19.5q-20 0 -38.5 -11.5t-30.5 -35.5q-29 -55 -77 -110.5t-110.5 -99.5t-135.5 -73t-148 -29q-55 0 -104.5 15.5t-86.5 49.5t-57.5 85t-20.5 123q0 98 35 199.5t94.5 195.5t138 178t163.5 146.5t172.5 98.5t164.5 36q72 0 72 -52 q0 -49 -26.5 -101t-71.5 -99t-101.5 -85t-115.5 -61q-37 -14 -50.5 -32.5t-13.5 -40.5q0 -29 19.5 -53.5t50.5 -24.5q8 0 19.5 3t41.5 15q80 33 153 85t128 118t87 139.5t32 147.5q0 86 -65.5 138t-166.5 52q-68 0 -162 -31.5t-194.5 -92t-200.5 -148.5t-178 -201t-127 -250 t-49 -295z" />
<glyph unicode="&#xc8;" horiz-adv-x="864" d="M18 217q0 -59 21.5 -112.5t64.5 -93.5t109 -63.5t156 -23.5q164 0 306 68.5t236 187.5q18 25 23.5 39t5.5 25q0 33 -24.5 55.5t-55.5 22.5q-14 0 -30.5 -9.5t-41.5 -40.5q-72 -92 -181 -144t-238 -52q-104 0 -150.5 46t-46.5 105q0 113 60.5 175.5t173.5 111.5 q39 16 60 40t21 52q0 35 -38 80q-35 35 -49.5 66.5t-14.5 62.5q0 70 47 137.5t111.5 120.5t133 85t111.5 32q16 0 24.5 -3t8.5 -18q0 -23 -55 -69.5t-154 -108.5q-27 -16 -36 -36.5t-9 -39.5q0 -27 20.5 -45t51.5 -18t61 18q123 78 204 161t81 177q0 76 -52 101.5t-132 25.5 q-74 0 -173.5 -41t-188.5 -112.5t-150.5 -166.5t-61.5 -204q0 -57 20.5 -105.5t51.5 -87.5q-51 -23 -101.5 -60.5t-90 -88.5t-64.5 -114.5t-25 -137.5zM596 1577q0 -33 31 -45q57 -27 105 -68t122 -92q16 -10 29 -10q23 0 37 17.5t14 37.5q0 27 -23 41q-10 6 -43.5 34 t-74.5 59.5t-82 56t-66 24.5q-23 0 -36 -17.5t-13 -37.5z" />
<glyph unicode="&#xc9;" horiz-adv-x="864" d="M18 217q0 -59 21.5 -112.5t64.5 -93.5t109 -63.5t156 -23.5q164 0 306 68.5t236 187.5q18 25 23.5 39t5.5 25q0 33 -24.5 55.5t-55.5 22.5q-14 0 -30.5 -9.5t-41.5 -40.5q-72 -92 -181 -144t-238 -52q-104 0 -150.5 46t-46.5 105q0 113 60.5 175.5t173.5 111.5 q39 16 60 40t21 52q0 35 -38 80q-35 35 -49.5 66.5t-14.5 62.5q0 70 47 137.5t111.5 120.5t133 85t111.5 32q16 0 24.5 -3t8.5 -18q0 -23 -55 -69.5t-154 -108.5q-27 -16 -36 -36.5t-9 -39.5q0 -27 20.5 -45t51.5 -18t61 18q123 78 204 161t81 177q0 76 -52 101.5t-132 25.5 q-74 0 -173.5 -41t-188.5 -112.5t-150.5 -166.5t-61.5 -204q0 -57 20.5 -105.5t51.5 -87.5q-51 -23 -101.5 -60.5t-90 -88.5t-64.5 -114.5t-25 -137.5zM694 1425q0 -23 14.5 -40t36.5 -17q12 0 29 10q37 27 65.5 50.5t55.5 43t52.5 37t53.5 29.5q31 14 31 45q0 20 -13 36.5 t-36 16.5t-60.5 -22.5t-77.5 -51t-75 -57t-53 -41.5q-23 -14 -23 -39z" />
<glyph unicode="&#xca;" horiz-adv-x="864" d="M18 217q0 -59 21.5 -112.5t64.5 -93.5t109 -63.5t156 -23.5q164 0 306 68.5t236 187.5q18 25 23.5 39t5.5 25q0 33 -24.5 55.5t-55.5 22.5q-14 0 -30.5 -9.5t-41.5 -40.5q-72 -92 -181 -144t-238 -52q-104 0 -150.5 46t-46.5 105q0 113 60.5 175.5t173.5 111.5 q39 16 60 40t21 52q0 35 -38 80q-35 35 -49.5 66.5t-14.5 62.5q0 70 47 137.5t111.5 120.5t133 85t111.5 32q16 0 24.5 -3t8.5 -18q0 -23 -55 -69.5t-154 -108.5q-27 -16 -36 -36.5t-9 -39.5q0 -27 20.5 -45t51.5 -18t61 18q123 78 204 161t81 177q0 76 -52 101.5t-132 25.5 q-74 0 -173.5 -41t-188.5 -112.5t-150.5 -166.5t-61.5 -204q0 -57 20.5 -105.5t51.5 -87.5q-51 -23 -101.5 -60.5t-90 -88.5t-64.5 -114.5t-25 -137.5zM567 1409q0 -23 15.5 -38t33.5 -15q23 0 39 22q18 25 41 50.5t44.5 48t38 39t24.5 20.5q20 -10 56 -47t71 -90 q14 -23 39 -23q23 0 39 15.5t16 38.5q0 12 -8 26q-47 70 -83 102.5t-63 55.5q-16 14 -32.5 18t-38.5 4q-25 0 -47.5 -12t-42.5 -31q-31 -29 -61 -68.5t-64 -76.5q-17 -16 -17 -39z" />
<glyph unicode="&#xcb;" horiz-adv-x="864" d="M18 217q0 -59 21.5 -112.5t64.5 -93.5t109 -63.5t156 -23.5q164 0 306 68.5t236 187.5q18 25 23.5 39t5.5 25q0 33 -24.5 55.5t-55.5 22.5q-14 0 -30.5 -9.5t-41.5 -40.5q-72 -92 -181 -144t-238 -52q-104 0 -150.5 46t-46.5 105q0 113 60.5 175.5t173.5 111.5 q39 16 60 40t21 52q0 35 -38 80q-35 35 -49.5 66.5t-14.5 62.5q0 70 47 137.5t111.5 120.5t133 85t111.5 32q16 0 24.5 -3t8.5 -18q0 -23 -55 -69.5t-154 -108.5q-27 -16 -36 -36.5t-9 -39.5q0 -27 20.5 -45t51.5 -18t61 18q123 78 204 161t81 177q0 76 -52 101.5t-132 25.5 q-74 0 -173.5 -41t-188.5 -112.5t-150.5 -166.5t-61.5 -204q0 -57 20.5 -105.5t51.5 -87.5q-51 -23 -101.5 -60.5t-90 -88.5t-64.5 -114.5t-25 -137.5zM567 1460q0 -29 16.5 -49t55.5 -20q55 0 89 21.5t34 47.5q0 27 -13.5 47.5t-31 33.5t-34.5 19.5t-28 6.5 q-41 0 -64.5 -35t-23.5 -72zM881 1460q0 -29 16 -49t55 -20q12 0 34 4t41.5 11t34.5 19.5t15 28.5q0 29 -13 50.5t-30.5 34.5t-36 20.5t-28.5 7.5q-41 0 -64.5 -35t-23.5 -72z" />
<glyph unicode="&#xcc;" horiz-adv-x="901" d="M-14 123q0 -68 28.5 -105.5t68.5 -56t83 -23t70 -4.5q84 0 170 59.5t163.5 149.5t142 198t105.5 204q33 78 64.5 153.5t57.5 146t41 135t15 122.5q0 45 -7 88t-28.5 78t-60.5 56.5t-102 21.5q-111 0 -196 -57.5t-142.5 -140.5t-86 -176t-28.5 -167q0 -37 21.5 -54.5 t50.5 -17.5t54.5 20.5t25.5 59.5q0 61 26.5 128t68.5 123t92 93t97 37q33 0 46.5 -21.5t13.5 -58.5q0 -43 -14.5 -102.5t-38 -128t-52 -141t-57.5 -142.5q-37 -88 -92.5 -179t-117.5 -166t-123.5 -122t-108.5 -47q-57 0 -76 11.5t-23 33.5q-8 35 -31.5 51.5t-50.5 16.5 t-48 -18.5t-21 -57.5zM618 1583q0 -31 29 -47q47 -27 106.5 -69t120.5 -91q14 -12 37 -12q20 0 30.5 16.5t10.5 38.5q0 25 -20 43q-61 49 -116.5 91t-127.5 77q-12 6 -26 6q-23 0 -33.5 -16.5t-10.5 -36.5z" />
<glyph unicode="&#xcd;" horiz-adv-x="901" d="M-14 123q0 -68 28.5 -105.5t68.5 -56t83 -23t70 -4.5q84 0 170 59.5t163.5 149.5t142 198t105.5 204q33 78 64.5 153.5t57.5 146t41 135t15 122.5q0 45 -7 88t-28.5 78t-60.5 56.5t-102 21.5q-111 0 -196 -57.5t-142.5 -140.5t-86 -176t-28.5 -167q0 -37 21.5 -54.5 t50.5 -17.5t54.5 20.5t25.5 59.5q0 61 26.5 128t68.5 123t92 93t97 37q33 0 46.5 -21.5t13.5 -58.5q0 -43 -14.5 -102.5t-38 -128t-52 -141t-57.5 -142.5q-37 -88 -92.5 -179t-117.5 -166t-123.5 -122t-108.5 -47q-57 0 -76 11.5t-23 33.5q-8 35 -31.5 51.5t-50.5 16.5 t-48 -18.5t-21 -57.5zM694 1425q0 -23 14.5 -40t36.5 -17q12 0 29 10q37 27 65.5 50.5t55.5 43t52.5 37t53.5 29.5q31 14 31 45q0 20 -13 36.5t-36 16.5t-60.5 -22.5t-77.5 -51t-75 -57t-53 -41.5q-23 -14 -23 -39z" />
<glyph unicode="&#xce;" horiz-adv-x="901" d="M-14 123q0 -68 28.5 -105.5t68.5 -56t83 -23t70 -4.5q84 0 170 59.5t163.5 149.5t142 198t105.5 204q33 78 64.5 153.5t57.5 146t41 135t15 122.5q0 45 -7 88t-28.5 78t-60.5 56.5t-102 21.5q-111 0 -196 -57.5t-142.5 -140.5t-86 -176t-28.5 -167q0 -37 21.5 -54.5 t50.5 -17.5t54.5 20.5t25.5 59.5q0 61 26.5 128t68.5 123t92 93t97 37q33 0 46.5 -21.5t13.5 -58.5q0 -43 -14.5 -102.5t-38 -128t-52 -141t-57.5 -142.5q-37 -88 -92.5 -179t-117.5 -166t-123.5 -122t-108.5 -47q-57 0 -76 11.5t-23 33.5q-8 35 -31.5 51.5t-50.5 16.5 t-48 -18.5t-21 -57.5zM567 1409q0 -23 15.5 -38t33.5 -15q23 0 39 22q18 25 41 50.5t44.5 48t38 39t24.5 20.5q20 -10 56 -47t71 -90q14 -23 39 -23q23 0 39 15.5t16 38.5q0 12 -8 26q-47 70 -83 102.5t-63 55.5q-16 14 -32.5 18t-38.5 4q-25 0 -47.5 -12t-42.5 -31 q-31 -29 -61 -68.5t-64 -76.5q-17 -16 -17 -39z" />
<glyph unicode="&#xcf;" horiz-adv-x="901" d="M-14 123q0 -68 28.5 -105.5t68.5 -56t83 -23t70 -4.5q84 0 170 59.5t163.5 149.5t142 198t105.5 204q33 78 64.5 153.5t57.5 146t41 135t15 122.5q0 45 -7 88t-28.5 78t-60.5 56.5t-102 21.5q-111 0 -196 -57.5t-142.5 -140.5t-86 -176t-28.5 -167q0 -37 21.5 -54.5 t50.5 -17.5t54.5 20.5t25.5 59.5q0 61 26.5 128t68.5 123t92 93t97 37q33 0 46.5 -21.5t13.5 -58.5q0 -43 -14.5 -102.5t-38 -128t-52 -141t-57.5 -142.5q-37 -88 -92.5 -179t-117.5 -166t-123.5 -122t-108.5 -47q-57 0 -76 11.5t-23 33.5q-8 35 -31.5 51.5t-50.5 16.5 t-48 -18.5t-21 -57.5zM553 1450q0 -29 16.5 -49.5t55.5 -20.5q55 0 89 21.5t34 48.5t-13.5 47.5t-31 33.5t-35 19t-27.5 6q-41 0 -64.5 -34.5t-23.5 -71.5zM866 1450q0 -29 16.5 -49.5t55.5 -20.5q12 0 33.5 4.5t41 11.5t35 19t15.5 29q0 29 -13.5 50.5t-31 34.5t-35.5 20 t-29 7q-41 0 -64.5 -34.5t-23.5 -71.5z" />
<glyph unicode="&#xd0;" horiz-adv-x="1474" d="M-41 47q0 -53 57.5 -97t165.5 -44q84 0 162 21.5t150 60.5q113 -27 226.5 -58.5t233.5 -31.5q145 0 252 34.5t176.5 97t103.5 151.5t34 198q0 129 -76 301t-232 358q16 41 24.5 64.5t8.5 46.5q0 35 -25.5 53.5t-54.5 18.5q-57 0 -73 -58q-109 88 -237 137.5t-234 49.5 q-68 0 -113 -18.5t-70.5 -47.5t-36 -62.5t-10.5 -64.5q0 -49 25.5 -96t66.5 -89t92.5 -76t104.5 -58q23 -10 40 -14.5t32 -4.5q35 0 53 23.5t18 54.5q0 18 -10 35.5t-33 28.5q-137 59 -187 107t-50 77t20.5 43t71.5 14q35 0 81 -9t99 -31.5t110.5 -60.5t114.5 -95 q-35 -92 -92 -201t-125 -219h-196q-37 0 -56.5 -23.5t-19.5 -52.5t19.5 -52.5t56.5 -23.5h94q-66 -92 -130.5 -166.5t-121.5 -120.5q-63 12 -132 20.5t-144 8.5q-123 0 -178.5 -40t-55.5 -89zM645 106q59 63 126 146.5t132 181.5h178q37 0 56.5 23.5t19.5 52.5t-19.5 52.5 t-56.5 23.5h-80q43 72 82 144.5t68 141.5q49 -68 90 -136t68.5 -131.5t43 -119t15.5 -96.5q0 -72 -24.5 -133t-73.5 -107.5t-125 -73t-180 -26.5q-78 0 -156 17t-164 40z" />
<glyph unicode="&#xd1;" horiz-adv-x="1253" d="M-59 -14q0 -31 24.5 -54.5t52.5 -23.5q16 0 30.5 7t33.5 30q111 129 210 283.5t180 301t136.5 268.5t77.5 183q12 -115 25.5 -248t25 -266t19.5 -254t12 -209q2 -49 31.5 -77.5t68.5 -28.5q31 0 60.5 20.5t48.5 61.5q23 53 52.5 151t64 218t75.5 252t86 252t92.5 217 t96.5 149q20 23 20 49q0 31 -24.5 54.5t-53.5 23.5q-14 0 -28.5 -7.5t-36.5 -31.5q-63 -72 -121.5 -200t-112 -276.5t-99.5 -302.5l-83 -276q-8 125 -20.5 264t-27.5 274.5t-30.5 254t-29.5 204.5q-8 41 -36 61.5t-61 20.5q-35 0 -65.5 -23.5t-34.5 -70.5v-2 q-31 -123 -94.5 -279.5t-149.5 -318.5t-186 -316.5t-201 -275.5q-16 -23 -22 -36t-6 -23zM698 1425q0 -20 14.5 -33.5t35.5 -13.5q23 0 38 17q39 37 72 67.5t68 30.5q27 0 50 -19.5t46 -35.5q27 -23 62.5 -40.5t80.5 -17.5q158 0 242 113q12 18 12 33q0 23 -15 36t-36 13 q-25 0 -43 -21q-31 -35 -63.5 -53t-73.5 -18q-35 0 -62.5 18.5t-50.5 34.5q-29 20 -59.5 39.5t-89.5 19.5q-43 0 -77 -14t-58.5 -34.5t-42.5 -42.5l-31 -36q-19 -23 -19 -43z" />
<glyph unicode="&#xd2;" d="M4 324q0 -211 91 -317.5t261 -106.5q121 0 231.5 43t206 115.5t172 168t131 199.5t84 211.5t29.5 204.5q0 90 -21.5 150.5t-61.5 97t-94 52t-118 15.5q-102 0 -191 -37t-159.5 -94t-118 -127t-67.5 -133q-4 -16 -6 -31.5t-2 -27.5q0 -27 23.5 -44.5t54.5 -17.5 q23 0 42 12.5t27 40.5q12 51 50 107.5t92.5 102.5t120 77t134.5 31q31 0 57.5 -8.5t45 -30t30 -58t11.5 -96.5q0 -78 -26.5 -166t-74 -174t-112 -163.5t-141 -137t-161.5 -95.5t-171 -36q-104 0 -159.5 65.5t-55.5 211.5q0 78 23.5 173t69.5 191t116.5 188.5t164 163 t211 113.5t258.5 43q39 0 57.5 23.5t18.5 52.5t-18.5 52.5t-57.5 23.5q-164 0 -302 -50.5t-248.5 -132.5t-194.5 -188.5t-139.5 -221t-84 -227t-28.5 -208.5zM774 1583q0 -31 29 -47q47 -27 106.5 -69t120.5 -91q14 -12 37 -12q20 0 30.5 16.5t10.5 38.5q0 25 -21 43 q-61 49 -116.5 91t-126.5 77q-12 6 -27 6q-23 0 -33 -16.5t-10 -36.5z" />
<glyph unicode="&#xd3;" d="M4 324q0 -211 91 -317.5t261 -106.5q121 0 231.5 43t206 115.5t172 168t131 199.5t84 211.5t29.5 204.5q0 90 -21.5 150.5t-61.5 97t-94 52t-118 15.5q-102 0 -191 -37t-159.5 -94t-118 -127t-67.5 -133q-4 -16 -6 -31.5t-2 -27.5q0 -27 23.5 -44.5t54.5 -17.5 q23 0 42 12.5t27 40.5q12 51 50 107.5t92.5 102.5t120 77t134.5 31q31 0 57.5 -8.5t45 -30t30 -58t11.5 -96.5q0 -78 -26.5 -166t-74 -174t-112 -163.5t-141 -137t-161.5 -95.5t-171 -36q-104 0 -159.5 65.5t-55.5 211.5q0 78 23.5 173t69.5 191t116.5 188.5t164 163 t211 113.5t258.5 43q39 0 57.5 23.5t18.5 52.5t-18.5 52.5t-57.5 23.5q-164 0 -302 -50.5t-248.5 -132.5t-194.5 -188.5t-139.5 -221t-84 -227t-28.5 -208.5zM764 1425q0 -23 14.5 -40t36.5 -17q12 0 29 10q37 27 65.5 50.5t55 43t52 37t54.5 29.5q31 14 31 45 q0 20 -13.5 36.5t-35.5 16.5q-23 0 -61 -22.5t-78 -51t-74.5 -57t-53.5 -41.5q-22 -14 -22 -39z" />
<glyph unicode="&#xd4;" d="M4 324q0 -211 91 -317.5t261 -106.5q121 0 231.5 43t206 115.5t172 168t131 199.5t84 211.5t29.5 204.5q0 90 -21.5 150.5t-61.5 97t-94 52t-118 15.5q-102 0 -191 -37t-159.5 -94t-118 -127t-67.5 -133q-4 -16 -6 -31.5t-2 -27.5q0 -27 23.5 -44.5t54.5 -17.5 q23 0 42 12.5t27 40.5q12 51 50 107.5t92.5 102.5t120 77t134.5 31q31 0 57.5 -8.5t45 -30t30 -58t11.5 -96.5q0 -78 -26.5 -166t-74 -174t-112 -163.5t-141 -137t-161.5 -95.5t-171 -36q-104 0 -159.5 65.5t-55.5 211.5q0 78 23.5 173t69.5 191t116.5 188.5t164 163 t211 113.5t258.5 43q39 0 57.5 23.5t18.5 52.5t-18.5 52.5t-57.5 23.5q-164 0 -302 -50.5t-248.5 -132.5t-194.5 -188.5t-139.5 -221t-84 -227t-28.5 -208.5zM711 1409q0 -23 15 -38t34 -15q23 0 39 22q18 25 40.5 50.5t44 48t38 39t24.5 20.5q20 -10 56 -47t71 -90 q14 -23 39 -23q23 0 39 15.5t16 38.5q0 12 -8 26q-47 70 -83 102.5t-62 55.5q-16 14 -32.5 18t-39.5 4q-25 0 -47.5 -12t-42.5 -31q-31 -29 -60.5 -68.5t-64.5 -76.5q-16 -16 -16 -39z" />
<glyph unicode="&#xd5;" d="M4 324q0 -211 91 -317.5t261 -106.5q121 0 231.5 43t206 115.5t172 168t131 199.5t84 211.5t29.5 204.5q0 90 -21.5 150.5t-61.5 97t-94 52t-118 15.5q-102 0 -191 -37t-159.5 -94t-118 -127t-67.5 -133q-4 -16 -6 -31.5t-2 -27.5q0 -27 23.5 -44.5t54.5 -17.5 q23 0 42 12.5t27 40.5q12 51 50 107.5t92.5 102.5t120 77t134.5 31q31 0 57.5 -8.5t45 -30t30 -58t11.5 -96.5q0 -78 -26.5 -166t-74 -174t-112 -163.5t-141 -137t-161.5 -95.5t-171 -36q-104 0 -159.5 65.5t-55.5 211.5q0 78 23.5 173t69.5 191t116.5 188.5t164 163 t211 113.5t258.5 43q39 0 57.5 23.5t18.5 52.5t-18.5 52.5t-57.5 23.5q-164 0 -302 -50.5t-248.5 -132.5t-194.5 -188.5t-139.5 -221t-84 -227t-28.5 -208.5zM571 1450q0 -20 14.5 -33.5t35.5 -13.5q23 0 38 16q39 37 72 68t68 31q27 0 50 -19.5t46 -36.5q27 -23 62.5 -40 t80.5 -17q158 0 242 113q12 18 12 32q0 23 -15 36t-36 13q-25 0 -43 -20q-31 -35 -63.5 -53.5t-73.5 -18.5q-35 0 -62.5 18.5t-50.5 35.5q-29 20 -59.5 39.5t-89.5 19.5q-43 0 -77 -14.5t-58.5 -35t-42.5 -41.5l-31 -36q-19 -23 -19 -43z" />
<glyph unicode="&#xd6;" d="M4 324q0 -211 91 -317.5t261 -106.5q121 0 231.5 43t206 115.5t172 168t131 199.5t84 211.5t29.5 204.5q0 90 -21.5 150.5t-61.5 97t-94 52t-118 15.5q-102 0 -191 -37t-159.5 -94t-118 -127t-67.5 -133q-4 -16 -6 -31.5t-2 -27.5q0 -27 23.5 -44.5t54.5 -17.5 q23 0 42 12.5t27 40.5q12 51 50 107.5t92.5 102.5t120 77t134.5 31q31 0 57.5 -8.5t45 -30t30 -58t11.5 -96.5q0 -78 -26.5 -166t-74 -174t-112 -163.5t-141 -137t-161.5 -95.5t-171 -36q-104 0 -159.5 65.5t-55.5 211.5q0 78 23.5 173t69.5 191t116.5 188.5t164 163 t211 113.5t258.5 43q39 0 57.5 23.5t18.5 52.5t-18.5 52.5t-57.5 23.5q-164 0 -302 -50.5t-248.5 -132.5t-194.5 -188.5t-139.5 -221t-84 -227t-28.5 -208.5zM711 1481q0 -29 16 -49.5t55 -20.5q55 0 89 21.5t34 48.5t-13 47t-30.5 33.5t-35 19.5t-27.5 6q-41 0 -64.5 -34.5 t-23.5 -71.5zM1024 1481q0 -29 16.5 -49.5t55.5 -20.5q12 0 33.5 4t41 11.5t35 19.5t15.5 29q0 29 -13.5 50t-31 34.5t-36 20.5t-28.5 7q-41 0 -64.5 -34.5t-23.5 -71.5z" />
<glyph unicode="&#xd7;" horiz-adv-x="739" d="M66 47l67 -47l240 354l239 -354l70 43l-258 385l252 375l-70 43l-233 -350l-236 350l-67 -45l252 -375z" />
<glyph unicode="&#xd8;" d="M-158 -111q0 -29 22.5 -53t53.5 -24q23 0 45 16q82 63 158 133q41 -25 92 -43t111 -18q137 0 262 48t230.5 127t190.5 180t144 206.5t91 208t32 184.5q0 72 -26.5 128t-84.5 87q86 63 183 113q23 10 31.5 27.5t8.5 35.5q0 29 -21.5 54.5t-53.5 25.5q-8 0 -18.5 -3 t-32.5 -13q-127 -66 -254 -170q0 49 -38 64.5t-89 15.5q-129 0 -247 -43t-219.5 -116t-184.5 -168t-141 -201.5t-90 -217.5t-32 -213q0 -55 11.5 -105.5t37.5 -93.5q-33 -29 -68.5 -57.5t-72.5 -56.5q-31 -23 -31 -58zM117 268q0 123 49 252t134 238.5t199.5 189.5 t243.5 109q-104 -53 -187 -119t-130 -170q-6 -16 -6 -31q0 -33 25.5 -53t56.5 -20q45 0 63 47q16 47 63.5 92t110.5 80q-76 -84 -147.5 -172t-144 -179.5t-150.5 -181.5t-166 -178q-14 41 -14 96zM236 68q119 117 219 234.5t192 231t182.5 219t188.5 195.5q94 -14 94 -110 q0 -76 -30.5 -164t-84 -176t-125 -171t-155.5 -145.5t-175 -100.5t-184 -38q-47 0 -74.5 8.5t-47.5 16.5z" />
<glyph unicode="&#xd9;" horiz-adv-x="1331" d="M31 707q0 -29 23.5 -46.5t51.5 -17.5q23 0 45.5 16.5t26.5 51.5q8 72 35 153.5t73 150t111.5 115t151.5 46.5q49 0 74.5 -37t25.5 -97q0 -47 -18.5 -107.5t-59.5 -137.5q-27 -47 -62.5 -110.5t-74.5 -132.5t-78 -141.5t-69 -138.5q-20 -41 -29.5 -81.5t-9.5 -77.5 q0 -104 60.5 -155.5t146.5 -51.5q145 0 266 80t215 200q2 -100 35 -181t98 -130q27 -20 40 -25.5t30 -5.5q23 0 42 25t19 55q0 41 -33 66q-35 27 -55 78t-20 112q0 78 23.5 174.5t64.5 203t95 216t114 215.5q23 43 54.5 85t31.5 79q0 31 -24 48.5t-52 17.5q-20 0 -40 -9.5 t-32 -29.5q-41 -61 -75.5 -127t-67.5 -129.5t-60.5 -122t-52.5 -103.5q-66 -121 -131.5 -236.5t-137 -206.5t-150.5 -147.5t-169 -56.5q-49 0 -69.5 16.5t-20.5 57.5q0 14 4 42t23 69q18 45 50 103t67.5 121.5t73.5 129t71 123.5q121 207 121 362q0 45 -14.5 90t-44 81 t-74.5 57.5t-109 21.5q-137 0 -233.5 -61.5t-159 -149.5t-94 -183t-39.5 -163q-2 -16 -3 -29.5t-1 -33.5zM811 1485q0 -31 29 -47q47 -27 106.5 -69t120.5 -91q14 -12 37 -12q20 0 30.5 16t10.5 39q0 25 -21 43q-61 49 -116.5 91t-126.5 77q-12 6 -27 6q-23 0 -33 -16.5 t-10 -36.5z" />
<glyph unicode="&#xda;" horiz-adv-x="1331" d="M31 707q0 -29 23.5 -46.5t51.5 -17.5q23 0 45.5 16.5t26.5 51.5q8 72 35 153.5t73 150t111.5 115t151.5 46.5q49 0 74.5 -37t25.5 -97q0 -47 -18.5 -107.5t-59.5 -137.5q-27 -47 -62.5 -110.5t-74.5 -132.5t-78 -141.5t-69 -138.5q-20 -41 -29.5 -81.5t-9.5 -77.5 q0 -104 60.5 -155.5t146.5 -51.5q145 0 266 80t215 200q2 -100 35 -181t98 -130q27 -20 40 -25.5t30 -5.5q23 0 42 25t19 55q0 41 -33 66q-35 27 -55 78t-20 112q0 78 23.5 174.5t64.5 203t95 216t114 215.5q23 43 54.5 85t31.5 79q0 31 -24 48.5t-52 17.5q-20 0 -40 -9.5 t-32 -29.5q-41 -61 -75.5 -127t-67.5 -129.5t-60.5 -122t-52.5 -103.5q-66 -121 -131.5 -236.5t-137 -206.5t-150.5 -147.5t-169 -56.5q-49 0 -69.5 16.5t-20.5 57.5q0 14 4 42t23 69q18 45 50 103t67.5 121.5t73.5 129t71 123.5q121 207 121 362q0 45 -14.5 90t-44 81 t-74.5 57.5t-109 21.5q-137 0 -233.5 -61.5t-159 -149.5t-94 -183t-39.5 -163q-2 -16 -3 -29.5t-1 -33.5zM1026 1380q0 -23 14.5 -40t36.5 -17q12 0 29 10q37 27 65.5 50.5t55 43t52.5 37t54 29.5q31 14 31 45q0 20 -13.5 36.5t-35.5 16.5q-23 0 -60.5 -22.5t-77.5 -51 t-75 -57t-53 -41.5q-23 -14 -23 -39z" />
<glyph unicode="&#xdb;" horiz-adv-x="1331" d="M31 707q0 -29 23.5 -46.5t51.5 -17.5q23 0 45.5 16.5t26.5 51.5q8 72 35 153.5t73 150t111.5 115t151.5 46.5q49 0 74.5 -37t25.5 -97q0 -47 -18.5 -107.5t-59.5 -137.5q-27 -47 -62.5 -110.5t-74.5 -132.5t-78 -141.5t-69 -138.5q-20 -41 -29.5 -81.5t-9.5 -77.5 q0 -104 60.5 -155.5t146.5 -51.5q145 0 266 80t215 200q2 -100 35 -181t98 -130q27 -20 40 -25.5t30 -5.5q23 0 42 25t19 55q0 41 -33 66q-35 27 -55 78t-20 112q0 78 23.5 174.5t64.5 203t95 216t114 215.5q23 43 54.5 85t31.5 79q0 31 -24 48.5t-52 17.5q-20 0 -40 -9.5 t-32 -29.5q-41 -61 -75.5 -127t-67.5 -129.5t-60.5 -122t-52.5 -103.5q-66 -121 -131.5 -236.5t-137 -206.5t-150.5 -147.5t-169 -56.5q-49 0 -69.5 16.5t-20.5 57.5q0 14 4 42t23 69q18 45 50 103t67.5 121.5t73.5 129t71 123.5q121 207 121 362q0 45 -14.5 90t-44 81 t-74.5 57.5t-109 21.5q-137 0 -233.5 -61.5t-159 -149.5t-94 -183t-39.5 -163q-2 -16 -3 -29.5t-1 -33.5zM887 1409q0 -23 15.5 -38t33.5 -15q23 0 39 22q18 25 40.5 50.5t44 48t38 39t24.5 20.5q20 -10 56 -47t71 -90q14 -23 39 -23q23 0 39 15.5t16 38.5q0 12 -8 26 q-47 70 -82.5 102.5t-62.5 55.5q-16 14 -32.5 18t-39.5 4q-25 0 -47 -12t-43 -31q-31 -29 -60.5 -68.5t-64.5 -76.5q-16 -16 -16 -39z" />
<glyph unicode="&#xdc;" horiz-adv-x="1331" d="M31 707q0 -29 23.5 -46.5t51.5 -17.5q23 0 45.5 16.5t26.5 51.5q8 72 35 153.5t73 150t111.5 115t151.5 46.5q49 0 74.5 -37t25.5 -97q0 -47 -18.5 -107.5t-59.5 -137.5q-27 -47 -62.5 -110.5t-74.5 -132.5t-78 -141.5t-69 -138.5q-20 -41 -29.5 -81.5t-9.5 -77.5 q0 -104 60.5 -155.5t146.5 -51.5q145 0 266 80t215 200q2 -100 35 -181t98 -130q27 -20 40 -25.5t30 -5.5q23 0 42 25t19 55q0 41 -33 66q-35 27 -55 78t-20 112q0 78 23.5 174.5t64.5 203t95 216t114 215.5q23 43 54.5 85t31.5 79q0 31 -24 48.5t-52 17.5q-20 0 -40 -9.5 t-32 -29.5q-41 -61 -75.5 -127t-67.5 -129.5t-60.5 -122t-52.5 -103.5q-66 -121 -131.5 -236.5t-137 -206.5t-150.5 -147.5t-169 -56.5q-49 0 -69.5 16.5t-20.5 57.5q0 14 4 42t23 69q18 45 50 103t67.5 121.5t73.5 129t71 123.5q121 207 121 362q0 45 -14.5 90t-44 81 t-74.5 57.5t-109 21.5q-137 0 -233.5 -61.5t-159 -149.5t-94 -183t-39.5 -163q-2 -16 -3 -29.5t-1 -33.5zM788 1419q0 -29 16.5 -49t55.5 -20q55 0 89 21.5t34 47.5q0 27 -13.5 47.5t-30.5 33.5t-34.5 19.5t-27.5 6.5q-41 0 -65 -35t-24 -72zM1102 1419q0 -29 16.5 -49 t55.5 -20q12 0 33.5 4t41 11t34.5 19.5t15 28.5q0 29 -13 50.5t-30.5 34.5t-36 20.5t-28.5 7.5q-41 0 -64.5 -35t-23.5 -72z" />
<glyph unicode="&#xdd;" d="M-276 -604q0 -29 17 -50.5t54 -21.5q205 0 367 61.5t287.5 162t218 228.5t159.5 261q61 121 126 239.5t124.5 232.5t110.5 220.5t84 204.5q14 41 14 74q0 41 -17.5 59t-41.5 18q-23 0 -47.5 -15t-40.5 -50q-35 -66 -75 -150t-81 -182q-41 -61 -102.5 -128.5t-131 -133.5 t-142 -126t-135 -106.5t-110 -73t-67.5 -26.5q-33 0 -41 15.5t-8 31.5q0 39 15 84t41 97.5t60.5 112t73.5 128.5q63 111 111.5 192t80 144.5t47 117.5t15.5 109q0 84 -53 143.5t-174 59.5q-88 0 -170 -59.5t-144.5 -149.5t-99.5 -195.5t-37 -195.5q0 -47 14.5 -73.5 t53.5 -26.5q41 0 59.5 27.5t18.5 76.5q0 55 28.5 131t72.5 145.5t97.5 119t104.5 49.5q41 0 58.5 -20.5t17.5 -55.5q0 -41 -13.5 -82t-41 -95.5t-69.5 -126t-100 -171.5q-68 -117 -110.5 -200t-68 -143.5t-35 -105.5t-9.5 -88q0 -68 44 -107.5t108 -39.5q37 0 94 22.5 t128 65.5t152.5 104.5t165.5 140.5q-25 -43 -46 -86t-44 -84q-66 -129 -148.5 -243.5t-190 -200.5t-243 -136t-307.5 -50q-39 0 -59 -25.5t-20 -54.5zM909 1354q0 -23 14.5 -40.5t37.5 -17.5q12 0 28 11q37 27 65.5 50t55.5 42.5t52.5 37t54.5 29.5q31 14 30 45q0 20 -13 37 t-36 17t-60.5 -22.5t-77.5 -51.5t-75 -57.5t-53 -40.5q-23 -14 -23 -39z" />
<glyph unicode="&#xde;" horiz-adv-x="757" d="M-37 51q0 -49 27.5 -68.5t58.5 -19.5q16 0 31.5 10.5t25.5 40.5q8 27 17.5 58.5t23.5 81.5l36 122q22 74 53 185q31 109 91 208t130.5 176t142.5 122t125 45t86 -52.5t33 -130.5q0 -76 -36 -158.5t-122 -146.5q-88 -66 -172 -99.5t-170 -33.5q-37 0 -56.5 -23.5 t-19.5 -52.5t19.5 -52t56.5 -23q98 0 212 42t220 119q55 39 96 93.5t70 114t43 123t14 124.5t-17 117.5t-51 98.5t-83 66.5t-113 24.5q-119 0 -211 -67.5t-170 -169.5v78q0 49 -1 99t-4 95t-9 73.5t-22.5 41t-38.5 12.5q-33 0 -58.5 -21.5t-25.5 -56.5q0 -20 2 -28 q4 -20 4 -41q0 -76 -5.5 -186.5t-39.5 -252.5q-41 -166 -95.5 -310t-85.5 -263q-6 -25 -9 -48.5t-3 -66.5z" />
<glyph unicode="&#xdf;" horiz-adv-x="1021" d="M-395 -539q0 -94 45 -137t125 -43q55 0 94 30t75 101.5t72.5 189t87.5 294.5q162 127 307.5 256t254.5 290q18 -70 24 -139.5t6 -122.5q0 -35 -1 -59.5t-5 -34.5q-53 -20 -110 -20q-35 0 -69 4t-67 4t-53 -14.5t-22 -57.5q0 -49 37.5 -63.5t115.5 -14.5q98 0 183.5 28 t156 68.5t123.5 87t88 82.5q16 16 17 41q0 29 -21.5 49.5t-48.5 20.5t-45 -20q-25 -29 -64 -62t-88 -65q2 14 2 28v31q0 92 -20.5 191.5t-61.5 191.5q6 14 9.5 34.5t3.5 35.5q0 41 -25.5 61.5t-60.5 20.5q-37 0 -69 -21.5t-32 -56.5q0 -25 12.5 -45.5t22.5 -34.5 q-41 -74 -94 -141.5t-111.5 -127t-116 -109.5t-106.5 -89q41 111 74 200t63 179q201 258 282 436t81 260q0 55 -15.5 90t-50.5 35q-47 -2 -82.5 -34t-72.5 -85q-35 -49 -66 -111.5t-61.5 -141.5t-62.5 -174t-68 -212q-72 -92 -135.5 -163.5t-108.5 -118.5q-18 -23 -19 -43 q0 -27 20.5 -47.5t47.5 -20.5q25 0 45 21q6 8 13.5 14t13.5 14q-12 -41 -35 -106.5t-45 -137.5q-197 -160 -293 -280.5t-96 -235.5zM-256 -551q0 47 16.5 87t42 76t56 66.5t59.5 57.5q-37 -115 -60.5 -179.5t-39 -97t-25.5 -40t-22 -7.5q-10 0 -18.5 7t-8.5 30z" />
<glyph unicode="&#xe0;" horiz-adv-x="839" d="M-66 127q0 -39 9.5 -76t31 -66.5t56.5 -47t88 -17.5q66 0 124 28.5t109 69.5q23 -88 101 -88q49 0 106 20.5t116.5 57.5t116 87t101.5 110q14 16 14 37q0 29 -21.5 48t-49.5 19q-29 0 -50 -26q-27 -35 -68.5 -74t-84.5 -72t-80 -53.5t-55 -20.5q-27 0 -27 31q0 20 10 51 q8 29 28.5 62t45.5 67.5t48.5 69.5t37.5 65.5t14 61.5q0 66 -80 66q-33 0 -60.5 -29t-49 -70t-37.5 -86t-29 -76q-29 -45 -60.5 -85.5t-66 -71.5t-69.5 -49.5t-70 -18.5q-37 0 -52 24.5t-15 65.5q0 23 7 67t28.5 97t62.5 109.5t108.5 101.5t167 75t236.5 30q31 0 46 18 t15 41q0 25 -16 45t-51 20q-150 0 -262.5 -31.5t-194.5 -85t-135 -119t-85 -135t-45.5 -134t-13.5 -113.5zM274 1055q0 -31 29 -47q47 -27 106.5 -69t120.5 -91q14 -12 37 -12q20 0 30.5 16t10.5 39q0 25 -20 43q-61 49 -116.5 91t-127.5 77q-12 6 -27 6q-23 0 -33 -16.5 t-10 -36.5z" />
<glyph unicode="&#xe1;" horiz-adv-x="839" d="M-66 127q0 -39 9.5 -76t31 -66.5t56.5 -47t88 -17.5q66 0 124 28.5t109 69.5q23 -88 101 -88q49 0 106 20.5t116.5 57.5t116 87t101.5 110q14 16 14 37q0 29 -21.5 48t-49.5 19q-29 0 -50 -26q-27 -35 -68.5 -74t-84.5 -72t-80 -53.5t-55 -20.5q-27 0 -27 31q0 20 10 51 q8 29 28.5 62t45.5 67.5t48.5 69.5t37.5 65.5t14 61.5q0 66 -80 66q-33 0 -60.5 -29t-49 -70t-37.5 -86t-29 -76q-29 -45 -60.5 -85.5t-66 -71.5t-69.5 -49.5t-70 -18.5q-37 0 -52 24.5t-15 65.5q0 23 7 67t28.5 97t62.5 109.5t108.5 101.5t167 75t236.5 30q31 0 46 18 t15 41q0 25 -16 45t-51 20q-150 0 -262.5 -31.5t-194.5 -85t-135 -119t-85 -135t-45.5 -134t-13.5 -113.5zM498 901q0 -23 14 -37t37 -14q8 0 15 2t18 10q37 25 64.5 46.5t53 42t51 38t54.5 29.5q31 14 31 45q0 20 -13.5 36.5t-34.5 16.5q-12 0 -30 -8q-72 -31 -123 -76 t-115 -88q-22 -14 -22 -43z" />
<glyph unicode="&#xe2;" horiz-adv-x="839" d="M-66 127q0 -39 9.5 -76t31 -66.5t56.5 -47t88 -17.5q66 0 124 28.5t109 69.5q23 -88 101 -88q49 0 106 20.5t116.5 57.5t116 87t101.5 110q14 16 14 37q0 29 -21.5 48t-49.5 19q-29 0 -50 -26q-27 -35 -68.5 -74t-84.5 -72t-80 -53.5t-55 -20.5q-27 0 -27 31q0 20 10 51 q8 29 28.5 62t45.5 67.5t48.5 69.5t37.5 65.5t14 61.5q0 66 -80 66q-33 0 -60.5 -29t-49 -70t-37.5 -86t-29 -76q-29 -45 -60.5 -85.5t-66 -71.5t-69.5 -49.5t-70 -18.5q-37 0 -52 24.5t-15 65.5q0 23 7 67t28.5 97t62.5 109.5t108.5 101.5t167 75t236.5 30q31 0 46 18 t15 41q0 25 -16 45t-51 20q-150 0 -262.5 -31.5t-194.5 -85t-135 -119t-85 -135t-45.5 -134t-13.5 -113.5zM317 930q0 -23 15.5 -38t34.5 -15q23 0 39 22q18 25 40.5 50.5t44 48t38 39t24.5 20.5q20 -10 56 -47t71 -90q14 -23 39 -23q23 0 39 15.5t16 37.5q0 12 -8 27 q-47 70 -83 102.5t-62 55.5q-16 14 -33 18t-39 4q-25 0 -47.5 -12t-42.5 -31q-31 -29 -60.5 -68.5t-64.5 -76.5q-17 -16 -17 -39z" />
<glyph unicode="&#xe3;" horiz-adv-x="839" d="M-66 127q0 -39 9.5 -76t31 -66.5t56.5 -47t88 -17.5q66 0 124 28.5t109 69.5q23 -88 101 -88q49 0 106 20.5t116.5 57.5t116 87t101.5 110q14 16 14 37q0 29 -21.5 48t-49.5 19q-29 0 -50 -26q-27 -35 -68.5 -74t-84.5 -72t-80 -53.5t-55 -20.5q-27 0 -27 31q0 20 10 51 q8 29 28.5 62t45.5 67.5t48.5 69.5t37.5 65.5t14 61.5q0 66 -80 66q-33 0 -60.5 -29t-49 -70t-37.5 -86t-29 -76q-29 -45 -60.5 -85.5t-66 -71.5t-69.5 -49.5t-70 -18.5q-37 0 -52 24.5t-15 65.5q0 23 7 67t28.5 97t62.5 109.5t108.5 101.5t167 75t236.5 30q31 0 46 18 t15 41q0 25 -16 45t-51 20q-150 0 -262.5 -31.5t-194.5 -85t-135 -119t-85 -135t-45.5 -134t-13.5 -113.5zM225 987q0 -20 14.5 -33.5t34.5 -13.5q23 0 39 16q39 37 72 68t68 31q27 0 50 -19.5t46 -36.5q27 -23 62.5 -40t80.5 -17q158 0 242 113q12 18 12 32 q0 23 -15.5 36.5t-35.5 13.5q-25 0 -43 -21q-31 -35 -63.5 -53.5t-73.5 -18.5q-35 0 -62.5 18.5t-50.5 35.5q-29 20 -59.5 39.5t-89.5 19.5q-43 0 -77 -14.5t-58.5 -35t-43.5 -41.5l-30 -36q-19 -23 -19 -43z" />
<glyph unicode="&#xe4;" horiz-adv-x="839" d="M-66 127q0 -39 9.5 -76t31 -66.5t56.5 -47t88 -17.5q66 0 124 28.5t109 69.5q23 -88 101 -88q49 0 106 20.5t116.5 57.5t116 87t101.5 110q14 16 14 37q0 29 -21.5 48t-49.5 19q-29 0 -50 -26q-27 -35 -68.5 -74t-84.5 -72t-80 -53.5t-55 -20.5q-27 0 -27 31q0 20 10 51 q8 29 28.5 62t45.5 67.5t48.5 69.5t37.5 65.5t14 61.5q0 66 -80 66q-33 0 -60.5 -29t-49 -70t-37.5 -86t-29 -76q-29 -45 -60.5 -85.5t-66 -71.5t-69.5 -49.5t-70 -18.5q-37 0 -52 24.5t-15 65.5q0 23 7 67t28.5 97t62.5 109.5t108.5 101.5t167 75t236.5 30q31 0 46 18 t15 41q0 25 -16 45t-51 20q-150 0 -262.5 -31.5t-194.5 -85t-135 -119t-85 -135t-45.5 -134t-13.5 -113.5zM307 942q0 -29 16.5 -49.5t55.5 -20.5q57 0 92 24t35 50q0 14 -10.5 32.5t-26.5 34t-35.5 26t-38.5 10.5q-41 0 -64.5 -35t-23.5 -72zM621 942q0 -29 16 -49.5 t55 -20.5q43 0 87 18.5t44 51.5q0 20 -13 39.5t-31.5 34t-38 24t-31.5 9.5q-41 0 -64.5 -35t-23.5 -72z" />
<glyph unicode="&#xe5;" horiz-adv-x="839" d="M-66 127q0 -39 9.5 -76t31 -66.5t56.5 -47t88 -17.5q66 0 124 28.5t109 69.5q23 -88 101 -88q49 0 106 20.5t116.5 57.5t116 87t101.5 110q14 16 14 37q0 29 -21.5 48t-49.5 19q-29 0 -50 -26q-27 -35 -68.5 -74t-84.5 -72t-80 -53.5t-55 -20.5q-27 0 -27 31q0 20 10 51 q8 29 28.5 62t45.5 67.5t48.5 69.5t37.5 65.5t14 61.5q0 66 -80 66q-33 0 -60.5 -29t-49 -70t-37.5 -86t-29 -76q-29 -45 -60.5 -85.5t-66 -71.5t-69.5 -49.5t-70 -18.5q-37 0 -52 24.5t-15 65.5q0 23 7 67t28.5 97t62.5 109.5t108.5 101.5t167 75t236.5 30q31 0 46 18 t15 41q0 25 -16 45t-51 20q-150 0 -262.5 -31.5t-194.5 -85t-135 -119t-85 -135t-45.5 -134t-13.5 -113.5zM410 983q0 -49 30.5 -82t108.5 -33q12 0 24 4q4 -16 18.5 -28.5t33.5 -12.5q16 0 28 11q51 29 74 68.5t23 80.5q0 33 -14.5 64.5t-37 55.5t-54.5 38t-64 14 q-41 0 -73 -16.5t-53.5 -43t-32.5 -58t-11 -62.5zM510 991q0 39 25.5 56.5t42.5 17.5q29 0 52 -22.5t23 -51.5q0 -35 -23.5 -47t-37.5 -20q-4 16 -18.5 27.5t-36.5 11.5q-27 -1 -27 28z" />
<glyph unicode="&#xe6;" horiz-adv-x="1105" d="M-63 145q0 -109 54 -167t138 -58q115 0 189.5 48t130.5 130q29 -92 91 -135t136 -43q90 0 170 34t144.5 80t110.5 94t68 77q14 16 15 39q0 27 -17.5 47t-46.5 20q-25 0 -49 -26q-33 -37 -77 -79t-95 -76t-108.5 -56.5t-114.5 -22.5q-49 0 -79 44t-34 110q94 41 167 90 t120 99t71.5 97.5t24.5 83.5q0 68 -45 107t-110 39q-41 0 -75 -15.5t-59 -37.5q-27 33 -85 41t-107 8q-119 0 -216 -55.5t-167 -140.5t-107.5 -185.5t-37.5 -190.5zM68 147q0 66 28.5 143t79.5 143.5t121 110.5t154 44q27 0 54 -4t56 -9q-23 -27 -46 -74.5t-49 -101 t-52.5 -106.5t-53.5 -92q-47 -74 -97 -112t-109 -38q-86 0 -86 96zM578 344q20 57 47.5 101t57.5 75t57.5 46.5t45.5 15.5q20 0 21 -23q0 -16 -16.5 -40.5t-46 -54.5t-71.5 -61.5t-95 -58.5z" />
<glyph unicode="&#xe7;" horiz-adv-x="665" d="M-57 207q0 -109 58 -186.5t175 -94.5q-6 -49 -37 -65q-16 -10 -38.5 -14.5t-69.5 -4.5q-12 0 -21.5 -8t-14.5 -19.5t-7 -23.5t-2 -20q0 -70 77 -70h54q29 0 57.5 7t55 21.5t44.5 41.5q20 29 25.5 73.5t3.5 85.5q76 14 142.5 48t119.5 75t92 82t58 68q12 16 15 25.5 t3 19.5q0 27 -21.5 44t-47.5 17q-35 0 -56 -30q-18 -29 -55 -67t-88 -73t-112.5 -59.5t-127.5 -24.5q-68 0 -109.5 46t-41.5 120q0 68 32.5 135.5t81 121.5t101.5 88t96 34q35 0 53.5 -15.5t18.5 -29.5q0 -8 -2 -10q-4 -6 -6.5 -14.5t-2.5 -24.5q0 -27 26 -42t54 -15 q29 0 47.5 34.5t18.5 81.5q0 70 -55.5 114t-141.5 44q-98 0 -182 -51t-143.5 -129t-93 -168t-33.5 -168z" />
<glyph unicode="&#xe8;" horiz-adv-x="624" d="M-61 215q0 -55 14 -108.5t44 -95.5t76 -66.5t111 -24.5q90 0 170 34t144.5 80t110.5 94t69 77q14 16 14 39q0 27 -21.5 46t-47.5 19q-31 0 -52 -26q-31 -41 -73.5 -82t-93 -74t-106.5 -54.5t-114 -21.5q-53 0 -82.5 43t-29.5 123q199 104 297 189.5t98 177.5q0 59 -47 97 t-113 38q-74 0 -140.5 -49t-117.5 -125t-80.5 -164t-29.5 -166zM88 1055q0 -31 29 -47q47 -27 106.5 -69t120.5 -91q14 -12 37 -12q20 0 30.5 16t10.5 39q0 25 -21 43q-61 49 -116.5 91t-126.5 77q-12 6 -27 6q-23 0 -33 -16.5t-10 -36.5zM109 391q47 106 103 151.5t87 45.5 q25 0 25 -23q0 -31 -58.5 -77t-156.5 -97z" />
<glyph unicode="&#xe9;" horiz-adv-x="624" d="M-61 215q0 -55 14 -108.5t44 -95.5t76 -66.5t111 -24.5q90 0 170 34t144.5 80t110.5 94t69 77q14 16 14 39q0 27 -21.5 46t-47.5 19q-31 0 -52 -26q-31 -41 -73.5 -82t-93 -74t-106.5 -54.5t-114 -21.5q-53 0 -82.5 43t-29.5 123q199 104 297 189.5t98 177.5q0 59 -47 97 t-113 38q-74 0 -140.5 -49t-117.5 -125t-80.5 -164t-29.5 -166zM109 391q47 106 103 151.5t87 45.5q25 0 25 -23q0 -31 -58.5 -77t-156.5 -97zM299 901q0 -23 14.5 -37t36.5 -14q8 0 15.5 2t17.5 10q37 25 64.5 46.5t53 42t51.5 38t54 29.5q31 14 31 45q0 20 -13.5 36.5 t-33.5 16.5q-12 0 -31 -8q-72 -31 -123 -76t-114 -88q-23 -14 -23 -43z" />
<glyph unicode="&#xea;" horiz-adv-x="624" d="M-61 215q0 -55 14 -108.5t44 -95.5t76 -66.5t111 -24.5q90 0 170 34t144.5 80t110.5 94t69 77q14 16 14 39q0 27 -21.5 46t-47.5 19q-31 0 -52 -26q-31 -41 -73.5 -82t-93 -74t-106.5 -54.5t-114 -21.5q-53 0 -82.5 43t-29.5 123q199 104 297 189.5t98 177.5q0 59 -47 97 t-113 38q-74 0 -140.5 -49t-117.5 -125t-80.5 -164t-29.5 -166zM109 391q47 106 103 151.5t87 45.5q25 0 25 -23q0 -31 -58.5 -77t-156.5 -97zM154 930q0 -23 15 -38t34 -15q23 0 39 22q18 25 40.5 50.5t44 48t38 39t24.5 20.5q20 -10 56 -47t71 -90q14 -23 39 -23 q23 0 39 15.5t16 37.5q0 12 -8 27q-47 70 -83 102.5t-62 55.5q-16 14 -32.5 18t-39.5 4q-25 0 -47.5 -12t-42.5 -31q-31 -29 -60.5 -68.5t-64.5 -76.5q-16 -16 -16 -39z" />
<glyph unicode="&#xeb;" horiz-adv-x="624" d="M-61 215q0 -55 14 -108.5t44 -95.5t76 -66.5t111 -24.5q90 0 170 34t144.5 80t110.5 94t69 77q14 16 14 39q0 27 -21.5 46t-47.5 19q-31 0 -52 -26q-31 -41 -73.5 -82t-93 -74t-106.5 -54.5t-114 -21.5q-53 0 -82.5 43t-29.5 123q199 104 297 189.5t98 177.5q0 59 -47 97 t-113 38q-74 0 -140.5 -49t-117.5 -125t-80.5 -164t-29.5 -166zM109 391q47 106 103 151.5t87 45.5q25 0 25 -23q0 -31 -58.5 -77t-156.5 -97zM115 942q0 -29 16 -49.5t55 -20.5q57 0 92 24t35 50q0 14 -10 32.5t-26.5 34t-36 26t-37.5 10.5q-41 0 -64.5 -35t-23.5 -72z M428 942q0 -29 16.5 -49.5t55.5 -20.5q43 0 87 18.5t44 51.5q0 20 -13.5 39.5t-32 34t-38 24t-31.5 9.5q-41 0 -64.5 -35t-23.5 -72z" />
<glyph unicode="&#xec;" horiz-adv-x="458" d="M-63 248q0 -25 18 -41.5t47 -18.5q-20 -45 -22.5 -69.5t-2.5 -38.5q2 -78 40 -113t96 -35q43 0 98 28t112.5 70t107.5 89t81 88q14 16 14 37q0 27 -22.5 46t-48.5 19q-31 0 -49 -24q-29 -37 -69 -77t-79 -73t-72.5 -54.5t-52.5 -21.5q-20 0 -20 31q0 16 6 39t14 45 q31 80 72 158t88 168q14 25 26.5 49t12.5 53q0 39 -22.5 53.5t-45.5 14.5q-47 0 -78 -45q-25 -37 -51 -83t-54 -91t-55.5 -83t-54.5 -61q-34 -28 -34 -59zM63 1055q0 -31 29 -47q47 -27 106.5 -69t120.5 -91q14 -12 37 -12q20 0 30.5 16t10.5 39q0 25 -20 43 q-61 49 -116.5 91t-127.5 77q-12 6 -27 6q-23 0 -33 -16.5t-10 -36.5z" />
<glyph unicode="&#xed;" horiz-adv-x="458" d="M-63 248q0 -25 18 -41.5t47 -18.5q-20 -45 -22.5 -69.5t-2.5 -38.5q2 -78 40 -113t96 -35q43 0 98 28t112.5 70t107.5 89t81 88q14 16 14 37q0 27 -22.5 46t-48.5 19q-31 0 -49 -24q-29 -37 -69 -77t-79 -73t-72.5 -54.5t-52.5 -21.5q-20 0 -20 31q0 16 6 39t14 45 q31 80 72 158t88 168q14 25 26.5 49t12.5 53q0 39 -22.5 53.5t-45.5 14.5q-47 0 -78 -45q-25 -37 -51 -83t-54 -91t-55.5 -83t-54.5 -61q-34 -28 -34 -59zM283 901q0 -23 14 -37t37 -14q8 0 15 2t18 10q37 25 64.5 46.5t53 42t51 38t54.5 29.5q31 14 31 45q0 20 -13.5 36.5 t-34.5 16.5q-12 0 -30 -8q-72 -31 -123 -76t-115 -88q-22 -14 -22 -43z" />
<glyph unicode="&#xee;" horiz-adv-x="458" d="M-63 248q0 -25 18 -41.5t47 -18.5q-20 -45 -22.5 -69.5t-2.5 -38.5q2 -78 40 -113t96 -35q43 0 98 28t112.5 70t107.5 89t81 88q14 16 14 37q0 27 -22.5 46t-48.5 19q-31 0 -49 -24q-29 -37 -69 -77t-79 -73t-72.5 -54.5t-52.5 -21.5q-20 0 -20 31q0 16 6 39t14 45 q31 80 72 158t88 168q14 25 26.5 49t12.5 53q0 39 -22.5 53.5t-45.5 14.5q-47 0 -78 -45q-25 -37 -51 -83t-54 -91t-55.5 -83t-54.5 -61q-34 -28 -34 -59zM121 930q0 -23 15.5 -38t33.5 -15q23 0 39 22q18 25 40.5 50.5t44 48t38 39t24.5 20.5q20 -10 56.5 -47t70.5 -90 q14 -23 39 -23q23 0 39.5 15.5t16.5 37.5q0 12 -9 27q-47 70 -82.5 102.5t-62.5 55.5q-16 14 -32.5 18t-39.5 4q-25 0 -47 -12t-43 -31q-31 -29 -60.5 -68.5t-64.5 -76.5q-16 -16 -16 -39z" />
<glyph unicode="&#xef;" horiz-adv-x="458" d="M-63 248q0 -25 18 -41.5t47 -18.5q-20 -45 -22.5 -69.5t-2.5 -38.5q2 -78 40 -113t96 -35q43 0 98 28t112.5 70t107.5 89t81 88q14 16 14 37q0 27 -22.5 46t-48.5 19q-31 0 -49 -24q-29 -37 -69 -77t-79 -73t-72.5 -54.5t-52.5 -21.5q-20 0 -20 31q0 16 6 39t14 45 q31 80 72 158t88 168q14 25 26.5 49t12.5 53q0 39 -22.5 53.5t-45.5 14.5q-47 0 -78 -45q-25 -37 -51 -83t-54 -91t-55.5 -83t-54.5 -61q-34 -28 -34 -59zM88 942q0 -29 16.5 -49.5t55.5 -20.5q57 0 92 24t35 50q0 14 -10.5 32.5t-27 34t-35.5 26t-38 10.5q-41 0 -64.5 -35 t-23.5 -72zM401 942q0 -29 16.5 -49.5t55.5 -20.5q43 0 87 18.5t44 51.5q0 20 -13 39.5t-31.5 34t-38 24t-32.5 9.5q-41 0 -64.5 -35t-23.5 -72z" />
<glyph unicode="&#xf0;" horiz-adv-x="753" d="M-61 217q0 -70 21.5 -124t58 -92t86 -57.5t104.5 -19.5q98 0 199.5 60.5t171.5 160.5q41 59 69.5 137t28.5 191q0 135 -30 249t-93 222q29 18 56.5 37.5t56.5 42.5q31 25 30 51q0 23 -13 44.5t-42 21.5q-12 0 -24.5 -2t-22.5 -11q-29 -18 -57.5 -37.5t-57.5 -39.5 q-29 39 -56.5 65.5t-66.5 63.5q-14 12 -27.5 20t-29.5 8q-27 0 -45 -16t-18 -41q0 -39 18 -55q39 -37 62.5 -56.5t52.5 -58.5q-39 -27 -73 -50.5t-58 -41.5q-35 -25 -35 -62q0 -27 18.5 -43t40.5 -16q20 0 43 16q35 23 68 45.5t67 44.5q31 -41 50.5 -90t31.5 -100 q-29 10 -64.5 17.5t-78.5 7.5q-117 0 -201 -51.5t-138 -126t-78.5 -160.5t-24.5 -154zM70 219q0 72 20.5 136.5t59 113.5t96 79t133.5 30q86 0 122 -47.5t36 -112.5q0 -72 -33 -136.5t-82 -115.5t-107.5 -81t-111.5 -30q-66 0 -99.5 46t-33.5 118z" />
<glyph unicode="&#xf1;" horiz-adv-x="942" d="M-61 244q0 -27 19 -47.5t44 -20.5q23 0 47.5 21.5t63.5 66.5q-16 -37 -39 -90t-41 -115q-4 -10 -4 -18v-12q0 -31 18.5 -44.5t42.5 -13.5q37 0 60.5 24.5t60.5 86.5q33 55 67.5 102t79.5 93.5t106.5 96.5t149.5 111q-29 -76 -62.5 -146.5t-62.5 -143.5q-18 -45 -22 -78 t-4 -70q0 -53 43 -83t110 -30q29 0 78 26t103.5 64.5t107.5 86t88 92.5q14 16 15 41q0 27 -20.5 47t-47.5 20q-12 0 -25.5 -5t-23.5 -21q-23 -29 -56.5 -62t-72.5 -62.5t-78 -51t-72 -27.5q18 72 40 123t50 112q31 68 51.5 126.5t20.5 107.5q0 55 -25.5 90t-66.5 35 q-35 0 -66 -23q-94 -61 -164.5 -114.5t-125.5 -112.5q10 47 24.5 86t14.5 68q0 35 -21.5 50t-44.5 15q-27 0 -42 -17.5t-36 -52.5q-55 -84 -124.5 -152.5t-137.5 -133.5q-20 -20 -20 -45zM276 987q0 -20 14.5 -33.5t35.5 -13.5q23 0 39 16q39 37 71.5 68t67.5 31 q27 0 50.5 -19.5t45.5 -36.5q27 -23 62.5 -40t80.5 -17q158 0 242 113q12 18 12 32q0 23 -15 36.5t-36 13.5q-25 0 -43 -21q-31 -35 -63.5 -53.5t-73.5 -18.5q-35 0 -62.5 18.5t-50.5 35.5q-29 20 -59.5 39.5t-89.5 19.5q-43 0 -77 -14.5t-58.5 -35t-42.5 -41.5l-31 -36 q-19 -23 -19 -43z" />
<glyph unicode="&#xf2;" horiz-adv-x="753" d="M-61 217q0 -70 21.5 -124t58 -92t86 -57.5t104.5 -19.5q66 0 120 18.5t100 49.5t83 70.5t68 82.5q27 -6 57 -6q84 0 135 36t51 71q0 25 -20.5 42t-40.5 17q-23 0 -37 -6t-27 -16q-10 -8 -19 -9.5t-20 0.5q20 41 28.5 77t8.5 79q0 53 -26.5 97t-91.5 69q-12 4 -21 4 q6 12 6 29q0 25 -17.5 40t-45 24t-59 12.5t-60.5 3.5q-117 0 -201 -51.5t-138 -126t-78.5 -160.5t-24.5 -154zM70 219q0 72 24.5 136.5t66.5 113.5t98 79t120 30q10 0 21.5 -1.5t21.5 -3.5q-41 -27 -64.5 -69.5t-23.5 -91.5q0 -41 11 -74t29.5 -59.5t41 -46t43.5 -31.5 q-68 -86 -131.5 -116t-124.5 -30q-66 0 -99.5 46t-33.5 118zM199 1055q0 -31 28 -47q47 -27 106.5 -69t121.5 -91q14 -12 37 -12q20 0 30 16t10 39q0 25 -20 43q-61 49 -116.5 91t-127.5 77q-12 6 -26 6q-23 0 -33 -16.5t-10 -36.5zM465 412q0 57 51 57q23 0 36 -12.5 t13 -34.5q0 -33 -10 -61.5t-25 -53.5q-37 25 -51 53.5t-14 51.5z" />
<glyph unicode="&#xf3;" horiz-adv-x="753" d="M-61 217q0 -70 21.5 -124t58 -92t86 -57.5t104.5 -19.5q66 0 120 18.5t100 49.5t83 70.5t68 82.5q27 -6 57 -6q84 0 135 36t51 71q0 25 -20.5 42t-40.5 17q-23 0 -37 -6t-27 -16q-10 -8 -19 -9.5t-20 0.5q20 41 28.5 77t8.5 79q0 53 -26.5 97t-91.5 69q-12 4 -21 4 q6 12 6 29q0 25 -17.5 40t-45 24t-59 12.5t-60.5 3.5q-117 0 -201 -51.5t-138 -126t-78.5 -160.5t-24.5 -154zM70 219q0 72 24.5 136.5t66.5 113.5t98 79t120 30q10 0 21.5 -1.5t21.5 -3.5q-41 -27 -64.5 -69.5t-23.5 -91.5q0 -41 11 -74t29.5 -59.5t41 -46t43.5 -31.5 q-68 -86 -131.5 -116t-124.5 -30q-66 0 -99.5 46t-33.5 118zM399 901q0 -23 14.5 -37t37.5 -14q8 0 15 2t17 10q37 25 64.5 46.5t53.5 42t51.5 38t54.5 29.5q31 14 30 45q0 20 -13 36.5t-34 16.5q-12 0 -31 -8q-72 -31 -123 -76t-114 -88q-23 -14 -23 -43zM465 412 q0 57 51 57q23 0 36 -12.5t13 -34.5q0 -33 -10 -61.5t-25 -53.5q-37 25 -51 53.5t-14 51.5z" />
<glyph unicode="&#xf4;" horiz-adv-x="753" d="M-61 217q0 -70 21.5 -124t58 -92t86 -57.5t104.5 -19.5q66 0 120 18.5t100 49.5t83 70.5t68 82.5q27 -6 57 -6q84 0 135 36t51 71q0 25 -20.5 42t-40.5 17q-23 0 -37 -6t-27 -16q-10 -8 -19 -9.5t-20 0.5q20 41 28.5 77t8.5 79q0 53 -26.5 97t-91.5 69q-12 4 -21 4 q6 12 6 29q0 25 -17.5 40t-45 24t-59 12.5t-60.5 3.5q-117 0 -201 -51.5t-138 -126t-78.5 -160.5t-24.5 -154zM70 219q0 72 24.5 136.5t66.5 113.5t98 79t120 30q10 0 21.5 -1.5t21.5 -3.5q-41 -27 -64.5 -69.5t-23.5 -91.5q0 -41 11 -74t29.5 -59.5t41 -46t43.5 -31.5 q-68 -86 -131.5 -116t-124.5 -30q-66 0 -99.5 46t-33.5 118zM236 930q0 -23 15 -38t34 -15q23 0 39 22q18 25 40.5 50.5t44 48t38 39t24.5 20.5q20 -10 56 -47t71 -90q14 -23 39 -23q23 0 39 15.5t16 37.5q0 12 -8 27q-47 70 -83 102.5t-62 55.5q-16 14 -33 18t-39 4 q-25 0 -47.5 -12t-42.5 -31q-31 -29 -60.5 -68.5t-64.5 -76.5q-16 -16 -16 -39zM465 412q0 57 51 57q23 0 36 -12.5t13 -34.5q0 -33 -10 -61.5t-25 -53.5q-37 25 -51 53.5t-14 51.5z" />
<glyph unicode="&#xf5;" horiz-adv-x="753" d="M-61 217q0 -70 21.5 -124t58 -92t86 -57.5t104.5 -19.5q66 0 120 18.5t100 49.5t83 70.5t68 82.5q27 -6 57 -6q84 0 135 36t51 71q0 25 -20.5 42t-40.5 17q-23 0 -37 -6t-27 -16q-10 -8 -19 -9.5t-20 0.5q20 41 28.5 77t8.5 79q0 53 -26.5 97t-91.5 69q-12 4 -21 4 q6 12 6 29q0 25 -17.5 40t-45 24t-59 12.5t-60.5 3.5q-117 0 -201 -51.5t-138 -126t-78.5 -160.5t-24.5 -154zM70 219q0 72 24.5 136.5t66.5 113.5t98 79t120 30q10 0 21.5 -1.5t21.5 -3.5q-41 -27 -64.5 -69.5t-23.5 -91.5q0 -41 11 -74t29.5 -59.5t41 -46t43.5 -31.5 q-68 -86 -131.5 -116t-124.5 -30q-66 0 -99.5 46t-33.5 118zM86 987q0 -20 14.5 -33.5t34.5 -13.5q23 0 39 16q39 37 72 68t67 31q27 0 50.5 -19.5t46.5 -36.5q27 -23 62.5 -40t80.5 -17q158 0 242 113q12 18 12 32q0 23 -15.5 36.5t-35.5 13.5q-25 0 -43 -21 q-31 -35 -64 -53.5t-74 -18.5q-35 0 -62.5 18.5t-49.5 35.5q-29 20 -59.5 39.5t-90.5 19.5q-43 0 -76.5 -14.5t-58 -35t-43.5 -41.5l-31 -36q-18 -23 -18 -43zM465 412q0 57 51 57q23 0 36 -12.5t13 -34.5q0 -33 -10 -61.5t-25 -53.5q-37 25 -51 53.5t-14 51.5z" />
<glyph unicode="&#xf6;" horiz-adv-x="753" d="M-61 217q0 -70 21.5 -124t58 -92t86 -57.5t104.5 -19.5q66 0 120 18.5t100 49.5t83 70.5t68 82.5q27 -6 57 -6q84 0 135 36t51 71q0 25 -20.5 42t-40.5 17q-23 0 -37 -6t-27 -16q-10 -8 -19 -9.5t-20 0.5q20 41 28.5 77t8.5 79q0 53 -26.5 97t-91.5 69q-12 4 -21 4 q6 12 6 29q0 25 -17.5 40t-45 24t-59 12.5t-60.5 3.5q-117 0 -201 -51.5t-138 -126t-78.5 -160.5t-24.5 -154zM70 219q0 72 24.5 136.5t66.5 113.5t98 79t120 30q10 0 21.5 -1.5t21.5 -3.5q-41 -27 -64.5 -69.5t-23.5 -91.5q0 -41 11 -74t29.5 -59.5t41 -46t43.5 -31.5 q-68 -86 -131.5 -116t-124.5 -30q-66 0 -99.5 46t-33.5 118zM193 942q0 -29 16 -49.5t55 -20.5q57 0 92 24t35 50q0 14 -10 32.5t-26.5 34t-36 26t-37.5 10.5q-41 0 -64.5 -35t-23.5 -72zM465 412q0 57 51 57q23 0 36 -12.5t13 -34.5q0 -33 -10 -61.5t-25 -53.5 q-37 25 -51 53.5t-14 51.5zM506 942q0 -29 16.5 -49.5t55.5 -20.5q43 0 87 18.5t44 51.5q0 20 -13.5 39.5t-32 34t-38 24t-31.5 9.5q-41 0 -64.5 -35t-23.5 -72z" />
<glyph unicode="&#xf8;" horiz-adv-x="753" d="M-209 -109q0 -27 18.5 -49t47.5 -22q16 0 43 16q43 27 86 58.5t82 66.5q29 -16 64.5 -26.5t76.5 -10.5q66 0 120 18.5t100 49.5t83 70.5t68 82.5q27 -6 57 -6q59 0 105 21.5t69 50.5q14 20 14 39q0 25 -18.5 41t-44.5 16q-33 0 -60 -26q-8 -8 -28 -9q-8 0 -12 2 q16 33 27 72t11 80q0 39 -13 74t-48 61q68 49 147 86q37 16 37 55q0 25 -19.5 47.5t-47.5 22.5q-12 0 -27 -6q-51 -23 -94 -50.5t-82 -56.5q-6 10 -22.5 19.5t-41 15.5t-53 10.5t-55.5 4.5q-104 0 -186 -45.5t-138.5 -117t-86 -159.5t-29.5 -172q0 -45 8 -86t28 -76 q-37 -31 -74.5 -58.5t-78.5 -49.5q-33 -19 -33 -54zM70 225q0 45 17 105.5t54 115t95.5 92t140.5 37.5h20q10 0 21 -2q-59 -43 -76 -108q-72 -78 -134.5 -158t-127.5 -151q-10 34 -10 69zM170 59q55 59 104.5 119t96.5 119q45 -66 88 -96q-51 -66 -113.5 -106t-136.5 -40 q-29 0 -39 4zM465 418q0 25 14.5 42t40.5 17q33 0 39 -22.5t6 -40.5q0 -35 -11 -59.5t-24 -47.5q-29 25 -47 54.5t-18 56.5z" />
<glyph unicode="&#xf9;" horiz-adv-x="1013" d="M-66 246q0 -27 19.5 -46.5t48.5 -21.5q16 0 36.5 16.5t33.5 32.5q-16 -29 -25.5 -62.5t-9.5 -90.5q0 -63 37 -97t82 -34q68 0 126 20.5t104 49t81 59t55 51.5q0 -92 31 -140.5t127 -48.5q37 0 93 30t113.5 73t107.5 90t75 82q12 18 12 35q0 27 -21.5 45t-47.5 18 q-33 0 -54 -28q-23 -31 -63.5 -68t-83.5 -68.5t-80 -54t-51 -22.5q-33 0 -33 57q0 43 20.5 98t49 111.5t61.5 111t58 97.5q16 27 16 55q0 29 -22.5 43t-45.5 14q-35 0 -52 -26.5t-48 -79.5q-78 -129 -149.5 -217t-132 -142.5t-107.5 -79t-74 -24.5q-43 0 -43 51 q0 104 191 430q8 12 10 24.5t2 18.5q0 23 -16.5 36t-51.5 13q-43 0 -63 -43q-20 -41 -54 -84t-74 -85t-83 -80.5t-82 -73.5q-23 -20 -23 -45zM346 1055q0 -31 29 -47q47 -27 106.5 -69t120.5 -91q14 -12 37 -12q20 0 30.5 16t10.5 39q0 25 -21 43q-61 49 -116.5 91 t-126.5 77q-12 6 -27 6q-23 0 -33 -16.5t-10 -36.5z" />
<glyph unicode="&#xfa;" horiz-adv-x="1013" d="M-66 246q0 -27 19.5 -46.5t48.5 -21.5q16 0 36.5 16.5t33.5 32.5q-16 -29 -25.5 -62.5t-9.5 -90.5q0 -63 37 -97t82 -34q68 0 126 20.5t104 49t81 59t55 51.5q0 -92 31 -140.5t127 -48.5q37 0 93 30t113.5 73t107.5 90t75 82q12 18 12 35q0 27 -21.5 45t-47.5 18 q-33 0 -54 -28q-23 -31 -63.5 -68t-83.5 -68.5t-80 -54t-51 -22.5q-33 0 -33 57q0 43 20.5 98t49 111.5t61.5 111t58 97.5q16 27 16 55q0 29 -22.5 43t-45.5 14q-35 0 -52 -26.5t-48 -79.5q-78 -129 -149.5 -217t-132 -142.5t-107.5 -79t-74 -24.5q-43 0 -43 51 q0 104 191 430q8 12 10 24.5t2 18.5q0 23 -16.5 36t-51.5 13q-43 0 -63 -43q-20 -41 -54 -84t-74 -85t-83 -80.5t-82 -73.5q-23 -20 -23 -45zM565 901q0 -23 14.5 -37t36.5 -14q8 0 15.5 2t17.5 10q37 25 64.5 46.5t53.5 42t51.5 38t53.5 29.5q31 14 31 45q0 20 -13 36.5 t-34 16.5q-12 0 -31 -8q-72 -31 -123 -76t-114 -88q-23 -14 -23 -43z" />
<glyph unicode="&#xfb;" horiz-adv-x="1013" d="M-66 246q0 -27 19.5 -46.5t48.5 -21.5q16 0 36.5 16.5t33.5 32.5q-16 -29 -25.5 -62.5t-9.5 -90.5q0 -63 37 -97t82 -34q68 0 126 20.5t104 49t81 59t55 51.5q0 -92 31 -140.5t127 -48.5q37 0 93 30t113.5 73t107.5 90t75 82q12 18 12 35q0 27 -21.5 45t-47.5 18 q-33 0 -54 -28q-23 -31 -63.5 -68t-83.5 -68.5t-80 -54t-51 -22.5q-33 0 -33 57q0 43 20.5 98t49 111.5t61.5 111t58 97.5q16 27 16 55q0 29 -22.5 43t-45.5 14q-35 0 -52 -26.5t-48 -79.5q-78 -129 -149.5 -217t-132 -142.5t-107.5 -79t-74 -24.5q-43 0 -43 51 q0 104 191 430q8 12 10 24.5t2 18.5q0 23 -16.5 36t-51.5 13q-43 0 -63 -43q-20 -41 -54 -84t-74 -85t-83 -80.5t-82 -73.5q-23 -20 -23 -45zM412 930q0 -23 15 -38t34 -15q23 0 39 22q18 25 40.5 50.5t44 48t38 39t24.5 20.5q20 -10 56 -47t71 -90q14 -23 39 -23 q23 0 39 15.5t16 37.5q0 12 -8 27q-47 70 -83 102.5t-62 55.5q-16 14 -32.5 18t-39.5 4q-25 0 -47.5 -12t-42.5 -31q-31 -29 -60.5 -68.5t-64.5 -76.5q-16 -16 -16 -39z" />
<glyph unicode="&#xfc;" horiz-adv-x="1013" d="M-66 246q0 -27 19.5 -46.5t48.5 -21.5q16 0 36.5 16.5t33.5 32.5q-16 -29 -25.5 -62.5t-9.5 -90.5q0 -63 37 -97t82 -34q68 0 126 20.5t104 49t81 59t55 51.5q0 -92 31 -140.5t127 -48.5q37 0 93 30t113.5 73t107.5 90t75 82q12 18 12 35q0 27 -21.5 45t-47.5 18 q-33 0 -54 -28q-23 -31 -63.5 -68t-83.5 -68.5t-80 -54t-51 -22.5q-33 0 -33 57q0 43 20.5 98t49 111.5t61.5 111t58 97.5q16 27 16 55q0 29 -22.5 43t-45.5 14q-35 0 -52 -26.5t-48 -79.5q-78 -129 -149.5 -217t-132 -142.5t-107.5 -79t-74 -24.5q-43 0 -43 51 q0 104 191 430q8 12 10 24.5t2 18.5q0 23 -16.5 36t-51.5 13q-43 0 -63 -43q-20 -41 -54 -84t-74 -85t-83 -80.5t-82 -73.5q-23 -20 -23 -45zM387 942q0 -29 16.5 -49.5t55.5 -20.5q57 0 92 24t35 50q0 14 -10.5 32.5t-27 34t-35.5 26t-38 10.5q-41 0 -64.5 -35t-23.5 -72z M700 942q0 -29 16.5 -49.5t55.5 -20.5q43 0 87 18.5t44 51.5q0 20 -13 39.5t-31.5 34t-38 24t-32.5 9.5q-41 0 -64.5 -35t-23.5 -72z" />
<glyph unicode="&#xfd;" horiz-adv-x="942" d="M-66 246q0 -29 19.5 -48.5t48.5 -19.5q20 0 43 19q4 4 15.5 13t15.5 11q-14 -29 -18.5 -64.5t-6.5 -64.5q0 -133 115 -133q66 0 148.5 41t170.5 100q-16 -35 -29.5 -67.5t-29.5 -67.5q-82 -57 -142.5 -119.5t-99.5 -124t-57 -119t-18 -104.5q0 -76 26.5 -104.5 t65.5 -28.5q53 2 83.5 49t59.5 107q41 86 88 175t94 181q68 31 137.5 64.5t133 73.5t115 86t81.5 102q12 20 13 43q0 29 -20.5 46t-45.5 17q-37 0 -57 -35q-12 -20 -45 -50.5t-72 -61.5t-78 -55.5t-63 -32.5q25 53 52.5 112.5t54 116.5t51 109.5t42.5 93.5q18 39 19 67 q0 35 -23.5 48.5t-54.5 13.5q-29 0 -55.5 -34t-59.5 -124q-33 -55 -64.5 -102t-71.5 -89t-89 -80t-115 -71q-53 -27 -82 -26q-39 0 -39 45q0 20 6.5 45.5t16.5 54.5q10 31 28.5 71t38 80.5t40 77.5t34.5 66q14 27 15 59q0 45 -58 45q-25 0 -41 -23.5t-26 -39.5 q-27 -41 -58.5 -77t-68.5 -71.5t-78 -71.5t-84 -79q-21 -20 -21 -45zM500 901q0 -23 14 -37t37 -14q8 0 15 2t18 10q37 25 64.5 46.5t53 42t51 38t54.5 29.5q31 14 31 45q0 20 -13.5 36.5t-33.5 16.5q-12 0 -31 -8q-72 -31 -123 -76t-115 -88q-22 -14 -22 -43z" />
<glyph unicode="&#xfe;" horiz-adv-x="978" d="M-152 -549q0 -23 19.5 -33t38.5 -10q20 0 38.5 11.5t30.5 43.5q20 59 52 148.5t67 194t72 217t70 217.5q35 84 79.5 145t95 101t100.5 59.5t97 19.5q43 0 71 -17.5t43 -42t20.5 -52t5.5 -45.5q0 -29 -17.5 -80.5t-54.5 -105.5t-95.5 -101t-142.5 -68q-31 31 -59.5 50.5 t-63.5 19.5q-41 0 -71.5 -30t-30.5 -83q0 -55 46 -72.5t116 -17.5h39q14 0 24 2q49 -12 97 -12q78 0 152.5 27.5t139 68.5t115.5 91t82 98q8 12 14 27.5t6 29.5q0 23 -16 40t-45 17q-23 0 -37 -8t-28 -33q-23 -37 -69 -79t-101 -76q43 53 69.5 99t39.5 84t17.5 68.5 t4.5 53.5q0 119 -70 198.5t-199 79.5q-76 0 -135 -29.5t-119 -78.5q14 39 36 102.5t45.5 137t46 149.5t40 140.5t28.5 109.5t11 55q0 23 -11 33t-28 10q-16 0 -34.5 -12.5t-28.5 -38.5q-6 -12 -26.5 -68.5t-49.5 -136.5t-61.5 -170t-61.5 -168t-49 -132t-25 -62 q-27 -41 -52 -71t-53 -56.5t-56.5 -52t-61.5 -60.5q-25 -29 -24 -55q0 -27 19.5 -45.5t41.5 -18.5q25 0 47 25q29 35 64 55q-43 -121 -77 -218t-63.5 -183t-55.5 -168t-54 -170q-4 -16 -9.5 -34t-5.5 -34z" />
<glyph unicode="&#xff;" horiz-adv-x="942" d="M-66 246q0 -29 19.5 -48.5t48.5 -19.5q20 0 43 19q4 4 15.5 13t15.5 11q-14 -29 -18.5 -64.5t-6.5 -64.5q0 -133 115 -133q66 0 148.5 41t170.5 100q-16 -35 -29.5 -67.5t-29.5 -67.5q-82 -57 -142.5 -119.5t-99.5 -124t-57 -119t-18 -104.5q0 -76 26.5 -104.5 t65.5 -28.5q53 2 83.5 49t59.5 107q41 86 88 175t94 181q68 31 137.5 64.5t133 73.5t115 86t81.5 102q12 20 13 43q0 29 -20.5 46t-45.5 17q-37 0 -57 -35q-12 -20 -45 -50.5t-72 -61.5t-78 -55.5t-63 -32.5q25 53 52.5 112.5t54 116.5t51 109.5t42.5 93.5q18 39 19 67 q0 35 -23.5 48.5t-54.5 13.5q-29 0 -55.5 -34t-59.5 -124q-33 -55 -64.5 -102t-71.5 -89t-89 -80t-115 -71q-53 -27 -82 -26q-39 0 -39 45q0 20 6.5 45.5t16.5 54.5q10 31 28.5 71t38 80.5t40 77.5t34.5 66q14 27 15 59q0 45 -58 45q-25 0 -41 -23.5t-26 -39.5 q-27 -41 -58.5 -77t-68.5 -71.5t-78 -71.5t-84 -79q-21 -20 -21 -45zM356 942q0 -29 16.5 -49.5t55.5 -20.5q57 0 92 24t35 50q0 14 -10 32.5t-26.5 34t-36 26t-38.5 10.5q-41 0 -64.5 -35t-23.5 -72zM670 942q0 -29 16 -49.5t55 -20.5q43 0 87 18.5t44 51.5q0 20 -13 39.5 t-31.5 34t-38 24t-31.5 9.5q-41 0 -64.5 -35t-23.5 -72z" />
<glyph unicode="&#x152;" horiz-adv-x="1689" d="M4 324q0 -211 91 -317.5t261 -106.5q143 0 268.5 57t227.5 152q31 -80 111.5 -132.5t220.5 -52.5q164 0 306 68.5t236 187.5q18 25 23.5 39t5.5 25q0 33 -24.5 55.5t-55.5 22.5q-14 0 -30.5 -9.5t-40.5 -40.5q-72 -92 -181.5 -144t-238.5 -52q-104 0 -150.5 47t-46.5 115 q0 35 10.5 70.5t36 71.5t70.5 69.5t117 64.5q39 16 60.5 40t21.5 52q0 16 -8.5 37t-30.5 43q-29 29 -46.5 55.5t-17.5 73.5q0 68 41 135.5t102.5 120.5t132 86t128.5 33q16 0 24 -3t8 -18q0 -23 -55 -69.5t-154 -108.5q-27 -16 -36 -36.5t-9 -39.5q0 -27 20.5 -45t51.5 -18 t62 18q123 78 203.5 161t80.5 177q0 76 -52 101.5t-132 25.5q-49 0 -111.5 -19.5t-127 -54t-125 -83t-107.5 -107.5q-41 47 -99.5 66.5t-130.5 19.5q-102 0 -191 -37t-159.5 -94t-118 -127t-67.5 -133q-4 -16 -6 -31.5t-2 -27.5q0 -27 23.5 -44.5t54.5 -17.5q23 0 42 12.5 t27 40.5q12 51 50 107.5t92.5 102.5t120 77t134.5 31q51 0 88 -23.5t50 -95.5q-4 -23 -7.5 -43t-3.5 -43q0 -45 13.5 -91t58.5 -102q-37 -14 -77 -41.5t-76.5 -65.5t-66.5 -86t-46 -103q-49 -59 -104.5 -108.5t-117 -85.5t-126 -56.5t-127.5 -20.5q-104 0 -159.5 65.5 t-55.5 211.5q0 78 23.5 173t69.5 191t116.5 188.5t164 163t211 113.5t258.5 43q39 0 57.5 23.5t18.5 52.5t-18.5 52.5t-57.5 23.5q-164 0 -302 -50.5t-248.5 -132.5t-194.5 -188.5t-139.5 -221t-84 -227t-28.5 -208.5z" />
<glyph unicode="&#x153;" horiz-adv-x="1239" d="M-61 231q0 -66 15 -122t49 -97t84 -64.5t122 -23.5q61 0 112.5 17.5t96.5 45t81 64.5t66 74q23 -94 78 -149.5t162 -55.5q90 0 170 34t144.5 80t110.5 94t68 77q14 16 15 39q0 27 -20.5 46t-49.5 19q-31 0 -51 -26q-16 -18 -56 -57.5t-94.5 -78t-117 -67.5t-119.5 -29 q-47 0 -78 38t-35 114q68 31 137.5 76t125 97t91 104t35.5 100q0 61 -43 99t-114 38q-76 0 -141.5 -48t-118.5 -134q-23 33 -59 49t-50 16q6 12 6 27q0 18 -11 34.5t-34 24.5q-29 10 -62.5 16.5t-72.5 6.5q-100 0 -181 -44t-139.5 -114t-90 -154t-31.5 -166zM70 229 q0 61 24.5 124t66.5 113t98 81t120 31q10 0 21.5 -1.5t21.5 -3.5q-41 -27 -65.5 -70.5t-24.5 -94.5q0 -37 12 -70t31.5 -57.5t43 -43t44.5 -28.5q-51 -61 -116.5 -107.5t-137.5 -46.5q-66 0 -102.5 48t-36.5 126zM463 414q0 27 15.5 46t39.5 19q25 0 37 -20.5t12 -42.5 q0 -23 -7 -47.5t-23 -51.5q-37 16 -55.5 42t-18.5 55zM715 362q18 59 48 102.5t60.5 72t57 42t43.5 13.5q14 0 18 -4t4 -21q0 -18 -17.5 -43.5t-49 -53.5t-73.5 -56.5t-91 -51.5z" />
<glyph unicode="&#x178;" d="M-276 -604q0 -29 17 -50.5t54 -21.5q205 0 367 61.5t287.5 162t218 228.5t159.5 261q61 121 126 239.5t124.5 232.5t110.5 220.5t84 204.5q14 41 14 74q0 41 -17.5 59t-41.5 18q-23 0 -47.5 -15t-40.5 -50q-35 -66 -75 -150t-81 -182q-41 -61 -102.5 -128.5t-131 -133.5 t-142 -126t-135 -106.5t-110 -73t-67.5 -26.5q-33 0 -41 15.5t-8 31.5q0 39 15 84t41 97.5t60.5 112t73.5 128.5q63 111 111.5 192t80 144.5t47 117.5t15.5 109q0 84 -53 143.5t-174 59.5q-88 0 -170 -59.5t-144.5 -149.5t-99.5 -195.5t-37 -195.5q0 -47 14.5 -73.5 t53.5 -26.5q41 0 59.5 27.5t18.5 76.5q0 55 28.5 131t72.5 145.5t97.5 119t104.5 49.5q41 0 58.5 -20.5t17.5 -55.5q0 -41 -13.5 -82t-41 -95.5t-69.5 -126t-100 -171.5q-68 -117 -110.5 -200t-68 -143.5t-35 -105.5t-9.5 -88q0 -68 44 -107.5t108 -39.5q37 0 94 22.5 t128 65.5t152.5 104.5t165.5 140.5q-25 -43 -46 -86t-44 -84q-66 -129 -148.5 -243.5t-190 -200.5t-243 -136t-307.5 -50q-39 0 -59 -25.5t-20 -54.5zM780 1419q0 -29 16.5 -49t55.5 -20q55 0 89 21.5t34 47.5q0 27 -13.5 47.5t-31 33.5t-34.5 19.5t-28 6.5q-41 0 -64.5 -35 t-23.5 -72zM1094 1419q0 -29 16 -49t55 -20q12 0 34 4t41.5 11t34.5 19.5t15 28.5q0 29 -13 50.5t-30.5 34.5t-36 20.5t-28.5 7.5q-41 0 -64.5 -35t-23.5 -72z" />
<glyph unicode="&#x2c6;" horiz-adv-x="655" d="M113 930q0 -23 15 -38t34 -15q23 0 39 22q18 25 40.5 50.5t44 48t38 39t24.5 20.5q20 -10 56 -47t71 -90q14 -23 39 -23q23 0 39 15.5t16 37.5q0 12 -8 27q-47 70 -83 102.5t-62 55.5q-16 14 -32.5 18t-39.5 4q-25 0 -47.5 -12t-42.5 -31q-31 -29 -60.5 -68.5 t-64.5 -76.5q-16 -16 -16 -39z" />
<glyph unicode="&#x2dc;" horiz-adv-x="808" d="M80 987q0 -20 14.5 -33.5t34.5 -13.5q23 0 39 16q39 37 71.5 68t67.5 31q27 0 50.5 -19.5t45.5 -36.5q27 -23 63 -40t81 -17q158 0 241 113q12 18 13 32q0 23 -15.5 36.5t-35.5 13.5q-25 0 -43 -21q-31 -35 -64 -53.5t-74 -18.5q-35 0 -62.5 18.5t-49.5 35.5 q-29 20 -59.5 39.5t-90.5 19.5q-43 0 -76.5 -14.5t-58.5 -35t-43 -41.5l-31 -36q-18 -23 -18 -43z" />
<glyph unicode="&#x2000;" horiz-adv-x="821" />
<glyph unicode="&#x2001;" horiz-adv-x="1642" />
<glyph unicode="&#x2002;" horiz-adv-x="821" />
<glyph unicode="&#x2003;" horiz-adv-x="1642" />
<glyph unicode="&#x2004;" horiz-adv-x="546" />
<glyph unicode="&#x2005;" horiz-adv-x="409" />
<glyph unicode="&#x2006;" horiz-adv-x="272" />
<glyph unicode="&#x2007;" horiz-adv-x="272" />
<glyph unicode="&#x2008;" horiz-adv-x="204" />
<glyph unicode="&#x2009;" horiz-adv-x="327" />
<glyph unicode="&#x200a;" horiz-adv-x="90" />
<glyph unicode="&#x2010;" horiz-adv-x="716" d="M68 522q0 -29 19 -52.5t56 -23.5h430q37 0 56.5 24t19.5 52q0 29 -19.5 52.5t-56.5 23.5h-430q-37 0 -56 -23.5t-19 -52.5z" />
<glyph unicode="&#x2011;" horiz-adv-x="716" d="M68 522q0 -29 19 -52.5t56 -23.5h430q37 0 56.5 24t19.5 52q0 29 -19.5 52.5t-56.5 23.5h-430q-37 0 -56 -23.5t-19 -52.5z" />
<glyph unicode="&#x2012;" horiz-adv-x="716" d="M68 522q0 -29 19 -52.5t56 -23.5h430q37 0 56.5 24t19.5 52q0 29 -19.5 52.5t-56.5 23.5h-430q-37 0 -56 -23.5t-19 -52.5z" />
<glyph unicode="&#x2013;" horiz-adv-x="829" d="M68 522q0 -29 19 -52.5t56 -23.5h553q37 0 56.5 24t19.5 54q0 29 -19.5 51.5t-56.5 22.5h-553q-37 0 -56 -23.5t-19 -52.5z" />
<glyph unicode="&#x2014;" d="M68 522q0 -29 19 -52.5t56 -23.5h871q39 0 57.5 24t18.5 52q0 29 -18.5 52.5t-57.5 23.5h-871q-37 0 -56 -23.5t-19 -52.5z" />
<glyph unicode="&#x2018;" horiz-adv-x="348" d="M35 1278q0 -10 7 -47t17.5 -83t24.5 -93t29 -78q12 -29 43 -29q20 0 37.5 14.5t17.5 36.5q0 14 -4 23q-10 18 -19.5 50t-18.5 69t-16.5 75.5t-13.5 69.5q-4 23 -18.5 32t-30.5 9q-20 0 -37.5 -13t-17.5 -36z" />
<glyph unicode="&#x2019;" horiz-adv-x="481" d="M244 991q0 -23 16 -36t39 -13q12 0 24.5 6t20.5 23q6 16 27.5 55t44 85t40 91t17.5 70q0 23 -16.5 36t-36.5 13q-16 0 -31.5 -9t-19.5 -32q-6 -27 -20.5 -61.5t-32 -71.5t-36 -72t-30.5 -59q-6 -13 -6 -25z" />
<glyph unicode="&#x201a;" horiz-adv-x="573" d="M254 -49q0 -23 16.5 -36t38.5 -13q12 0 24.5 6t20.5 22q6 16 27.5 55.5t44.5 85.5t40 91t17 69q0 23 -16 36.5t-37 13.5q-16 0 -31.5 -9.5t-19.5 -31.5q-6 -27 -20.5 -62t-32 -71.5t-36 -71.5t-30.5 -60q-6 -12 -6 -24z" />
<glyph unicode="&#x201c;" horiz-adv-x="409" d="M49 1278q0 -10 7 -47t17.5 -83t25 -93t28.5 -78q12 -29 43 -29q20 0 37.5 14.5t17.5 36.5q0 14 -4 23q-10 18 -19 50t-18.5 69t-16.5 75.5t-13 69.5q-4 23 -18.5 32t-31.5 9q-20 0 -37.5 -13t-17.5 -36zM285 1278q0 -10 7 -47t17 -83t24.5 -93t28.5 -78q12 -29 44 -29 q20 0 37.5 14.5t17.5 36.5q0 14 -4 23q-10 18 -19.5 50t-18.5 69t-16.5 75.5t-13.5 69.5q-4 23 -18.5 32t-30.5 9q-20 0 -37.5 -13t-17.5 -36z" />
<glyph unicode="&#x201d;" horiz-adv-x="768" d="M254 991q0 -23 16.5 -36t38.5 -13q12 0 24.5 6t20.5 23q6 16 27.5 55t44.5 85t40 91t17 70q0 23 -16 36t-37 13q-16 0 -31.5 -9t-19.5 -32q-6 -27 -20.5 -61.5t-32 -71.5t-36 -72t-30.5 -59q-6 -13 -6 -25zM510 991q0 -23 16.5 -36t38.5 -13q12 0 24.5 6t20.5 23 q6 16 27.5 55t44.5 85t40 91t17 70q0 23 -16 36t-37 13q-16 0 -31.5 -9t-19.5 -32q-6 -27 -20.5 -61.5t-32 -71.5t-36 -72t-30.5 -59q-6 -13 -6 -25z" />
<glyph unicode="&#x201e;" horiz-adv-x="768" d="M254 -49q0 -23 16.5 -36t38.5 -13q12 0 24.5 6t20.5 22q6 16 27.5 55.5t44.5 85.5t40 91t17 69q0 23 -16 36.5t-37 13.5q-16 0 -31.5 -9.5t-19.5 -31.5q-6 -27 -20.5 -62t-32 -71.5t-36 -71.5t-30.5 -60q-6 -12 -6 -24zM510 -49q0 -23 16.5 -36t38.5 -13q12 0 24.5 6 t20.5 22q6 16 27.5 55.5t44.5 85.5t40 91t17 69q0 23 -16 36.5t-37 13.5q-16 0 -31.5 -9.5t-19.5 -31.5q-6 -27 -20.5 -62t-32 -71.5t-36 -71.5t-30.5 -60q-6 -12 -6 -24z" />
<glyph unicode="&#x2022;" horiz-adv-x="849" d="M141 449q0 -45 15.5 -87.5t47.5 -75t81 -52t114 -19.5q74 0 131.5 22.5t95.5 60.5t58.5 88t20.5 106q0 45 -16.5 88t-50.5 75.5t-86 52t-122 19.5t-124 -24.5t-91 -64.5t-55.5 -89t-18.5 -100z" />
<glyph unicode="&#x2026;" horiz-adv-x="880" d="M78 23q0 -25 15.5 -44.5t49.5 -19.5q53 0 87 20.5t34 43.5q0 12 -9 28.5t-24.5 31.5t-34 25.5t-36.5 10.5q-35 0 -58.5 -30.5t-23.5 -65.5zM356 23q0 -25 15.5 -44.5t50.5 -19.5q53 0 87 20.5t34 43.5q0 12 -9.5 28.5t-24.5 31.5t-33.5 25.5t-37.5 10.5 q-35 0 -58.5 -30.5t-23.5 -65.5zM639 23q0 -25 15.5 -44.5t50.5 -19.5q53 0 86.5 20.5t33.5 43.5q0 12 -9 28.5t-24.5 31.5t-34 25.5t-36.5 10.5q-35 0 -58.5 -30.5t-23.5 -65.5z" />
<glyph unicode="&#x202f;" horiz-adv-x="327" />
<glyph unicode="&#x2039;" horiz-adv-x="819" d="M29 514q0 -59 54 -118.5t131 -116t159 -108.5t137 -95q12 -10 31 -10q23 0 38 16t15 37q0 25 -23 39q-57 37 -131.5 84t-142.5 95t-114 91t-46 70q0 18 32 42.5t83 54.5t115.5 60.5t131 60t127 57.5t105.5 48q27 12 27 39q0 18 -16.5 35.5t-39.5 17.5q-12 0 -24 -6 q-41 -18 -105.5 -45.5t-136 -60.5t-144.5 -70t-131.5 -75t-95 -74.5t-36.5 -67.5z" />
<glyph unicode="&#x203a;" horiz-adv-x="768" d="M41 164q0 -18 16.5 -35.5t38.5 -17.5q12 0 25 6q41 18 105.5 45.5t136 60.5t144.5 70t131 75t95 73.5t37 68.5q0 59 -54 118.5t-131 116t-159 108.5t-137 95q-12 10 -31 10q-23 0 -38 -16t-15 -37q0 -25 22 -39q57 -37 132 -84t142.5 -95t114 -91t46.5 -70 q0 -18 -32 -42.5t-83 -54.5t-115.5 -60.5t-131.5 -60t-128 -57.5t-104 -48q-27 -12 -27 -39z" />
<glyph unicode="&#x205f;" horiz-adv-x="409" />
<glyph unicode="&#x2122;" horiz-adv-x="892" d="M283 889q0 -16 13 -27.5t30 -11.5q10 0 21 6t15 23q6 16 23.5 57t39 90t44.5 97t35 77q27 4 54.5 7t55.5 12q33 8 33 41q0 16 -11 28t-34 12q-43 -6 -76.5 -12t-66.5 -11t-67 -11t-75 -13q-18 -4 -26 -14t-8 -22q0 -16 12 -31t35 -15t42 4.5t36 8.5q-16 -35 -36 -77 t-37.5 -82t-30.5 -72.5t-19 -49.5q-2 -4 -2 -14zM489 889q0 -16 11.5 -26.5t27.5 -10.5q20 0 33 18q8 16 28.5 52t45 78t50.5 86t44 75q-4 -18 -4 -41v-47v-76q0 -37 2 -65q2 -41 12.5 -61.5t36.5 -20.5q20 0 40 28.5t40 63.5q12 18 24.5 46t23.5 55.5t21.5 54t18.5 45.5 q0 -29 -1 -68l-2 -78q-1 -39 -1 -73v-58q0 -18 11.5 -27.5t25.5 -9.5q16 0 30.5 11.5t14.5 33.5v95q0 66 -1 134t-7 116q-4 23 -14.5 45t-32.5 22q-33 0 -56 -55q-8 -20 -23.5 -54t-32.5 -71t-33.5 -72t-24.5 -57q2 23 2 47v55q0 41 -1 82t-5 74q-4 23 -14.5 37t-26.5 14 t-33 -15.5t-29 -29.5q-31 -39 -61.5 -88t-55 -95t-44 -83t-27.5 -49q-13 -19 -13 -37z" />
<glyph unicode="&#xe000;" horiz-adv-x="690" d="M0 690h690v-690h-690v690z" />
<glyph unicode="&#xfb01;" horiz-adv-x="878" d="M357 248q0 -25 18 -41.5t47 -18.5q-20 -45 -22.5 -69.5t-2.5 -38.5q2 -78 40 -113t96 -35q43 0 98 28t112.5 70t107.5 89t81 88q14 16 14 37q0 27 -22.5 46t-48.5 19q-31 0 -49 -24q-29 -37 -69 -77t-79 -73t-72.5 -54.5t-52.5 -21.5q-20 0 -20 31q0 16 6 39t14 45 q31 80 72 158t88 168q14 25 26.5 49t12.5 53q0 39 -22.5 53.5t-45.5 14.5q-47 0 -78 -45q-25 -37 -51 -83t-54 -91t-55.5 -83t-54.5 -61q-34 -28 -34 -59zM701 940q0 -33 19 -57.5t65 -24.5q72 0 105.5 26.5t33.5 65.5q0 20 -13.5 41t-32 37t-39 25.5t-36.5 9.5 q-45 0 -73.5 -40t-28.5 -83zM-229 -539q0 -63 17 -101t44 -58.5t57.5 -26.5t59.5 -6q37 0 83 21.5t86 62.5t67.5 100.5t27.5 136.5q0 37 -3 62.5t-8 46t-11.5 39t-14.5 41.5q-10 31 -19.5 57.5t-9.5 48.5q0 31 15.5 52.5t38.5 37.5q31 20 69.5 46t76.5 57t73 64.5t57 70.5 q10 20 10 33q0 29 -18 47t-53 18t-54 -32q-14 -25 -42.5 -51.5t-63.5 -54.5t-72 -53.5t-67 -47.5q12 33 33.5 84t46 106t50 108.5t44.5 92.5q43 61 90 134t91 147.5t83 148.5t68.5 138.5t47 116.5t17.5 83q0 41 -19.5 60.5t-52.5 19.5q-68 0 -126 -73t-111 -185.5 t-102.5 -250.5t-98.5 -270q-31 -41 -55.5 -72.5t-50 -59t-53 -54.5t-62.5 -57q-20 -20 -20 -45q0 -29 19 -46.5t48 -17.5q10 0 14 2q-37 -90 -79.5 -189t-80.5 -195.5t-62.5 -185t-24.5 -151.5zM-96 -528q0 41 13 92t33.5 104t41 102.5t37.5 86.5q6 -31 15 -64t19.5 -66.5 t17.5 -67.5t7 -67q0 -49 -16.5 -83.5t-39 -57t-49 -33t-44.5 -10.5q-25 0 -30 20.5t-5 43.5z" />
<glyph unicode="&#xfb02;" horiz-adv-x="886" d="M357 242q0 -27 18 -45.5t47 -18.5q10 0 16 2q-4 -16 -5 -35.5t-1 -50.5q0 -72 27 -116t94 -44q31 0 83 27t107.5 66t106.5 83t82 80q20 27 20 50q0 27 -20 46t-49 19q-12 0 -25.5 -5t-23.5 -19q-20 -25 -55 -59t-73 -64.5t-73 -52t-55 -21.5q-16 0 -17 22q0 29 16.5 95.5 t45.5 154.5q139 154 237.5 281t161 231.5t91 185.5t28.5 142q0 43 -19.5 85t-70.5 42q-66 0 -118 -37t-93 -93t-74 -126t-59 -135q-49 -119 -100.5 -253t-96.5 -251q-39 -43 -71.5 -77t-51.5 -50q-20 -16 -25 -31.5t-5 -27.5zM776 754q25 63 54.5 130.5t58.5 123t52.5 91.5 t35.5 36q10 0 10 -15q0 -27 -16 -68.5t-45 -92t-67 -103.5t-83 -102zM-229 -539q0 -63 17 -101t44 -58.5t57.5 -26.5t59.5 -6q37 0 83 21.5t86 62.5t67.5 100.5t27.5 136.5q0 37 -3 62.5t-8 46t-11.5 39t-14.5 41.5q-10 31 -19.5 57.5t-9.5 48.5q0 31 15.5 52.5t38.5 37.5 q31 20 69.5 46t76.5 57t73 64.5t57 70.5q10 20 10 33q0 29 -18 47t-53 18t-54 -32q-14 -25 -42.5 -51.5t-63.5 -54.5t-72 -53.5t-67 -47.5q12 33 33.5 84t46 106t50 108.5t44.5 92.5q43 61 90 134t91 147.5t83 148.5t68.5 138.5t47 116.5t17.5 83q0 41 -19.5 60.5 t-52.5 19.5q-68 0 -126 -73t-111 -185.5t-102.5 -250.5t-98.5 -270q-31 -41 -55.5 -72.5t-50 -59t-53 -54.5t-62.5 -57q-20 -20 -20 -45q0 -29 19 -46.5t48 -17.5q10 0 14 2q-37 -90 -79.5 -189t-80.5 -195.5t-62.5 -185t-24.5 -151.5zM-96 -528q0 41 13 92t33.5 104 t41 102.5t37.5 86.5q6 -31 15 -64t19.5 -66.5t17.5 -67.5t7 -67q0 -49 -16.5 -83.5t-39 -57t-49 -33t-44.5 -10.5q-25 0 -30 20.5t-5 43.5z" />
<glyph unicode="&#xfb03;" horiz-adv-x="1298" d="M777 248q0 -25 18 -41.5t47 -18.5q-20 -45 -22.5 -69.5t-2.5 -38.5q2 -78 40 -113t96 -35q43 0 98 28t112.5 70t107.5 89t81 88q14 16 14 37q0 27 -22.5 46t-48.5 19q-31 0 -49 -24q-29 -37 -69 -77t-79 -73t-72.5 -54.5t-52.5 -21.5q-20 0 -20 31q0 16 6 39t14 45 q31 80 72 158t88 168q14 25 26.5 49t12.5 53q0 39 -22.5 53.5t-45.5 14.5q-47 0 -78 -45q-25 -37 -51 -83t-54 -91t-55.5 -83t-54.5 -61q-34 -28 -34 -59zM1121 940q0 -33 19 -57.5t65 -24.5q72 0 105.5 26.5t33.5 65.5q0 20 -13.5 41t-32 37t-39 25.5t-36.5 9.5 q-45 0 -73.5 -40t-28.5 -83zM191 -539q0 -63 17 -101t44 -58.5t57.5 -26.5t59.5 -6q37 0 83 21.5t86 62.5t67.5 100.5t27.5 136.5q0 37 -3 62.5t-8 46t-11.5 39t-14.5 41.5q-10 31 -19.5 57.5t-9.5 48.5q0 31 15.5 52.5t38.5 37.5q31 20 69.5 46t76.5 57t73 64.5t57 70.5 q10 20 10 33q0 29 -18 47t-53 18t-54 -32q-14 -25 -42.5 -51.5t-63.5 -54.5t-72 -53.5t-67 -47.5q12 33 33.5 84t46 106t50 108.5t44.5 92.5q43 61 90 134t91 147.5t83 148.5t68.5 138.5t47 116.5t17.5 83q0 41 -19.5 60.5t-52.5 19.5q-68 0 -126 -73t-111 -185.5 t-102.5 -250.5t-98.5 -270q-31 -41 -55.5 -72.5t-50 -59t-53 -54.5t-62.5 -57q-20 -20 -20 -45q0 -29 19 -46.5t48 -17.5q10 0 14 2q-37 -90 -79.5 -189t-80.5 -195.5t-62.5 -185t-24.5 -151.5zM324 -528q0 41 13 92t33.5 104t41 102.5t37.5 86.5q6 -31 15 -64t19.5 -66.5 t17.5 -67.5t7 -67q0 -49 -16.5 -83.5t-39 -57t-49 -33t-44.5 -10.5q-25 0 -30 20.5t-5 43.5zM-229 -539q0 -63 17 -101t44 -58.5t57.5 -26.5t59.5 -6q37 0 83 21.5t86 62.5t67.5 100.5t27.5 136.5q0 37 -3 62.5t-8 46t-11.5 39t-14.5 41.5q-10 31 -19.5 57.5t-9.5 48.5 q0 31 15.5 52.5t38.5 37.5q31 20 69.5 46t76.5 57t73 64.5t57 70.5q10 20 10 33q0 29 -18 47t-53 18t-54 -32q-14 -25 -42.5 -51.5t-63.5 -54.5t-72 -53.5t-67 -47.5q12 33 33.5 84t46 106t50 108.5t44.5 92.5q43 61 90 134t91 147.5t83 148.5t68.5 138.5t47 116.5t17.5 83 q0 41 -19.5 60.5t-52.5 19.5q-68 0 -126 -73t-111 -185.5t-102.5 -250.5t-98.5 -270q-31 -41 -55.5 -72.5t-50 -59t-53 -54.5t-62.5 -57q-20 -20 -20 -45q0 -29 19 -46.5t48 -17.5q10 0 14 2q-37 -90 -79.5 -189t-80.5 -195.5t-62.5 -185t-24.5 -151.5zM-96 -528q0 41 13 92 t33.5 104t41 102.5t37.5 86.5q6 -31 15 -64t19.5 -66.5t17.5 -67.5t7 -67q0 -49 -16.5 -83.5t-39 -57t-49 -33t-44.5 -10.5q-25 0 -30 20.5t-5 43.5z" />
<glyph unicode="&#xfb04;" horiz-adv-x="1306" d="M777 242q0 -27 18 -45.5t47 -18.5q10 0 16 2q-4 -16 -5 -35.5t-1 -50.5q0 -72 27 -116t94 -44q31 0 83 27t107.5 66t106.5 83t82 80q20 27 20 50q0 27 -20 46t-49 19q-12 0 -25.5 -5t-23.5 -19q-20 -25 -55 -59t-73 -64.5t-73 -52t-55 -21.5q-16 0 -17 22q0 29 16.5 95.5 t45.5 154.5q139 154 237.5 281t161 231.5t91 185.5t28.5 142q0 43 -19.5 85t-70.5 42q-66 0 -118 -37t-93 -93t-74 -126t-59 -135q-49 -119 -100.5 -253t-96.5 -251q-39 -43 -71.5 -77t-51.5 -50q-20 -16 -25 -31.5t-5 -27.5zM1196 754q25 63 54.5 130.5t58.5 123t52.5 91.5 t35.5 36q10 0 10 -15q0 -27 -16 -68.5t-45 -92t-67 -103.5t-83 -102zM191 -539q0 -63 17 -101t44 -58.5t57.5 -26.5t59.5 -6q37 0 83 21.5t86 62.5t67.5 100.5t27.5 136.5q0 37 -3 62.5t-8 46t-11.5 39t-14.5 41.5q-10 31 -19.5 57.5t-9.5 48.5q0 31 15.5 52.5t38.5 37.5 q31 20 69.5 46t76.5 57t73 64.5t57 70.5q10 20 10 33q0 29 -18 47t-53 18t-54 -32q-14 -25 -42.5 -51.5t-63.5 -54.5t-72 -53.5t-67 -47.5q12 33 33.5 84t46 106t50 108.5t44.5 92.5q43 61 90 134t91 147.5t83 148.5t68.5 138.5t47 116.5t17.5 83q0 41 -19.5 60.5 t-52.5 19.5q-68 0 -126 -73t-111 -185.5t-102.5 -250.5t-98.5 -270q-31 -41 -55.5 -72.5t-50 -59t-53 -54.5t-62.5 -57q-20 -20 -20 -45q0 -29 19 -46.5t48 -17.5q10 0 14 2q-37 -90 -79.5 -189t-80.5 -195.5t-62.5 -185t-24.5 -151.5zM324 -528q0 41 13 92t33.5 104 t41 102.5t37.5 86.5q6 -31 15 -64t19.5 -66.5t17.5 -67.5t7 -67q0 -49 -16.5 -83.5t-39 -57t-49 -33t-44.5 -10.5q-25 0 -30 20.5t-5 43.5zM-229 -539q0 -63 17 -101t44 -58.5t57.5 -26.5t59.5 -6q37 0 83 21.5t86 62.5t67.5 100.5t27.5 136.5q0 37 -3 62.5t-8 46t-11.5 39 t-14.5 41.5q-10 31 -19.5 57.5t-9.5 48.5q0 31 15.5 52.5t38.5 37.5q31 20 69.5 46t76.5 57t73 64.5t57 70.5q10 20 10 33q0 29 -18 47t-53 18t-54 -32q-14 -25 -42.5 -51.5t-63.5 -54.5t-72 -53.5t-67 -47.5q12 33 33.5 84t46 106t50 108.5t44.5 92.5q43 61 90 134 t91 147.5t83 148.5t68.5 138.5t47 116.5t17.5 83q0 41 -19.5 60.5t-52.5 19.5q-68 0 -126 -73t-111 -185.5t-102.5 -250.5t-98.5 -270q-31 -41 -55.5 -72.5t-50 -59t-53 -54.5t-62.5 -57q-20 -20 -20 -45q0 -29 19 -46.5t48 -17.5q10 0 14 2q-37 -90 -79.5 -189 t-80.5 -195.5t-62.5 -185t-24.5 -151.5zM-96 -528q0 41 13 92t33.5 104t41 102.5t37.5 86.5q6 -31 15 -64t19.5 -66.5t17.5 -67.5t7 -67q0 -49 -16.5 -83.5t-39 -57t-49 -33t-44.5 -10.5q-25 0 -30 20.5t-5 43.5z" />
</font>
</defs>
</svg>
